<?xml version="1.0" encoding="utf-8"?>
<COLLADA xmlns="http://www.collada.org/2005/11/COLLADASchema" version="1.4.1" xmlns:xsi="http://www.w3.org/2001/XMLSchema-instance">
  <asset>
    <contributor>
      <author>Blender User</author>
      <authoring_tool>Blender 3.0.1 commit date:2022-01-25, commit time:17:19, hash:dc2d18018171</authoring_tool>
    </contributor>
    <created>2024-12-03T21:45:33</created>
    <modified>2024-12-03T21:45:33</modified>
    <unit name="meter" meter="1"/>
    <up_axis>Z_UP</up_axis>
  </asset>
  <library_effects>
    <effect id="miiFighterH24B-effect">
      <profile_COMMON>
        <newparam sid="miiFighterH24B_ALB_png-surface">
          <surface type="2D">
            <init_from>miiFighterH24B_ALB_png</init_from>
          </surface>
        </newparam>
        <newparam sid="miiFighterH24B_ALB_png-sampler">
          <sampler2D>
            <source>miiFighterH24B_ALB_png-surface</source>
          </sampler2D>
        </newparam>
        <technique sid="common">
          <lambert>
            <emission>
              <color sid="emission">0 0 0 1</color>
            </emission>
            <diffuse>
              <texture texture="miiFighterH24B_ALB_png-sampler" texcoord="Hat_Root__miiFighterH24B-texcoord"/>
            </diffuse>
            <index_of_refraction>
              <float sid="ior">1.45</float>
            </index_of_refraction>
          </lambert>
        </technique>
      </profile_COMMON>
    </effect>
    <effect id="miiFighterH24A-effect">
      <profile_COMMON>
        <newparam sid="miiFighterH24A_ALB_png-surface">
          <surface type="2D">
            <init_from>miiFighterH24A_ALB_png</init_from>
          </surface>
        </newparam>
        <newparam sid="miiFighterH24A_ALB_png-sampler">
          <sampler2D>
            <source>miiFighterH24A_ALB_png-surface</source>
          </sampler2D>
        </newparam>
        <technique sid="common">
          <lambert>
            <emission>
              <color sid="emission">0 0 0 1</color>
            </emission>
            <diffuse>
              <texture texture="miiFighterH24A_ALB_png-sampler" texcoord="Hat_Root__miiFighterH24A-texcoord"/>
            </diffuse>
            <index_of_refraction>
              <float sid="ior">1.45</float>
            </index_of_refraction>
          </lambert>
        </technique>
      </profile_COMMON>
    </effect>
  </library_effects>
  <library_images>
    <image id="miiFighterH24A_ALB_png" name="miiFighterH24A_ALB_png">
      <init_from>miiFighterH24A_ALB.png</init_from>
    </image>
    <image id="miiFighterH24B_ALB_png" name="miiFighterH24B_ALB_png">
      <init_from>miiFighterH24B_ALB.png</init_from>
    </image>
  </library_images>
  <library_materials>
    <material id="miiFighterH24B-material" name="miiFighterH24B">
      <instance_effect url="#miiFighterH24B-effect"/>
    </material>
    <material id="miiFighterH24A-material" name="miiFighterH24A">
      <instance_effect url="#miiFighterH24A-effect"/>
    </material>
  </library_materials>
  <library_geometries>
    <geometry id="Hat_Root__miiFighterH24B-mesh" name="Hat_Root__miiFighterH24B">
      <mesh>
        <source id="Hat_Root__miiFighterH24B-mesh-positions">
          <float_array id="Hat_Root__miiFighterH24B-mesh-positions-array" count="165">-1.20209e-5 3.55266 0.2485036 -1.846042 4.830813 1.659196 -2.480639 3.365381 0.9843726 -0.8757331 6.004497 2.155002 -2.388615 1.953371 0.4584044 0.8756949 6.004503 2.154996 -1.877202 0.8629922 0.2694937 1.846018 4.830827 1.659183 -0.7961678 0.1425442 0.7632629 2.480621 3.365399 0.9843546 0.7961712 0.1425489 0.7632571 2.388604 1.953389 0.4583871 1.877198 0.8630058 0.2694801 5.13464e-6 -0.1228989 1.29997 2.040788 0.4185424 -0.04587393 2.601163 1.417649 -0.4756786 1.877198 0.8630058 0.2694801 2.711507 1.64669 -1.89646 0.7961712 0.1425489 0.7632571 0.9359428 0.5286093 -2.291043 1.018973 -0.1228783 0.8210503 0.7482886 -0.2403623 -0.6454538 0.627427 -0.5187017 0.8862958 2.388604 1.953389 0.4583871 3.081863 3.438851 -1.174552 2.59802 3.454729 0.6912141 5.13464e-6 -0.1228989 1.29997 -0.7482924 -0.2403677 -0.6454483 2.110261 2.237797 -2.910188 -0.9359632 0.5286025 -2.291037 -1.70055e-5 1.44035 -3.26353 2.480621 3.365399 0.9843546 5.90157e-6 -0.5187029 1.11357 -0.6274189 -0.5187052 0.8863003 -1.018967 -0.1228846 0.8210577 -0.7961678 0.1425442 0.7632629 -2.110299 2.237792 -2.910173 -2.040792 0.4185286 -0.04585897 -2.711533 1.64667 -1.89644 2.161545 4.330798 -2.637938 -2.29549e-5 2.52528 -3.81946 1.442825 3.293715 -3.518686 1.846018 4.830827 1.659183 2.411594 5.275939 0.8968816 -2.601177 1.417631 -0.4756587 -3.081897 3.438829 -1.174529 -1.877202 0.8629922 0.2694937 -3.14249e-5 4.73493 -3.940351 -2.161595 4.330782 -2.637923 -1.509605 3.293704 -3.518675 -2.388615 1.953371 0.4584044 -2.59804 3.454711 0.691233 -2.411626 5.275921 0.8968991 -1.846042 4.830813 1.659196 -2.480639 3.365381 0.9843726</float_array>
          <technique_common>
            <accessor source="#Hat_Root__miiFighterH24B-mesh-positions-array" count="55" stride="3">
              <param name="X" type="float"/>
              <param name="Y" type="float"/>
              <param name="Z" type="float"/>
            </accessor>
          </technique_common>
        </source>
        <source id="Hat_Root__miiFighterH24B-mesh-normals">
          <float_array id="Hat_Root__miiFighterH24B-mesh-normals-array" count="165">0 -0.3139837 0.9494284 0.2582532 -0.5232818 0.8120847 0.2881012 -0.403006 0.8686679 0.1035516 -0.5872196 0.8027766 0.2092384 -0.1865017 0.9599148 -0.1035516 -0.5872196 0.8027766 -0.1137757 0.08713245 0.9896783 -0.2582532 -0.5232818 0.8120847 -0.1165535 0.3500878 0.9294374 -0.2881012 -0.403006 0.8686679 0.1165535 0.3500878 0.9294374 -0.2092092 -0.1865029 0.959921 0.1137757 0.08713245 0.9896783 0 0.8963659 0.4433152 0.7541617 -0.603488 0.2589254 0.9165865 -0.3461195 0.2001761 0.7031017 -0.3022623 0.6436503 0.8357329 -0.4117016 -0.36339 0.4160964 0.4131056 0.8100665 0.2943578 -0.7702134 -0.5657958 0.620388 -0.08508664 0.779666 0.2607899 -0.9255678 -0.2744322 0.3490769 -0.8458355 0.4033703 0.8971486 -0.2627416 0.3550934 0.9951688 -0.05453771 -0.08163875 0.9412609 -0.0190742 0.3371412 0 -0.2298116 0.9732351 -0.2607825 -0.9255721 -0.2744244 0.6355879 -0.2588008 -0.7273585 -0.2943578 -0.7702134 -0.5657958 0 -0.5485438 -0.8361219 0.9255612 0.02362197 0.3778604 0 -0.8335404 0.5524586 -0.3490769 -0.8458355 0.4033703 -0.6203692 -0.08508825 0.7796808 -0.4161016 0.4130802 0.8100767 -0.637723 -0.2646905 -0.7233591 -0.7541617 -0.603488 0.2589254 -0.8357329 -0.4117016 -0.36339 0.7369482 0.1397171 -0.661352 0.00262463 -0.2841954 -0.9587629 0.4944748 8.24023e-4 -0.8691916 0.8130269 0.03549361 0.5811433 0.8755238 0.03518819 0.4818921 -0.916581 -0.3461174 0.2002055 -0.9951671 -0.05456817 -0.08163857 -0.7030951 -0.30229 0.6436443 0.004455745 0.1225947 -0.9924469 -0.7439419 0.1501251 -0.6511628 -0.509059 0.00125128 -0.8607308 -0.8971415 -0.26277 0.3550905 -0.9412609 -0.0190742 0.3371412 -0.8755238 0.03518819 0.4818921 -0.8130277 0.03546309 0.581144 -0.9255612 0.02362197 0.3778604</float_array>
          <technique_common>
            <accessor source="#Hat_Root__miiFighterH24B-mesh-normals-array" count="55" stride="3">
              <param name="X" type="float"/>
              <param name="Y" type="float"/>
              <param name="Z" type="float"/>
            </accessor>
          </technique_common>
        </source>
        <source id="Hat_Root__miiFighterH24B-mesh-map-0">
          <float_array id="Hat_Root__miiFighterH24B-mesh-map-0-array" count="450">0.8164063 0.7382813 0.734375 0.5585938 0.8125 0.4960938 0.8164063 0.7382813 0.671875 0.6523438 0.734375 0.5585938 0.8164063 0.7382813 0.8125 0.4960938 0.8828125 0.5078125 0.8164063 0.7382813 0.671875 0.8203125 0.671875 0.6523438 0.8164063 0.7382813 0.8828125 0.5078125 0.9375 0.5546875 0.8164063 0.7382813 0.734375 0.9179688 0.671875 0.8203125 0.8164063 0.7382813 0.9375 0.5546875 0.9765625 0.6601563 0.8164063 0.7382813 0.8125 0.9765625 0.734375 0.9179688 0.8164063 0.7382813 0.9765625 0.6601563 0.9765625 0.8125 0.8164063 0.7382813 0.8828125 0.9648438 0.8125 0.9765625 0.8164063 0.7382813 0.9765625 0.8125 0.9375 0.921875 0.8164063 0.7382813 0.9375 0.921875 0.8828125 0.9648438 0.9765625 0.6601563 1.003906 0.7382813 0.9765625 0.8125 0.296875 0.2304687 0.2539063 0.3242188 0.2734375 0.1914062 0.296875 0.2304687 0.28125 0.4609375 0.2539063 0.3242188 0.296875 0.2304687 0.2734375 0.1914062 0.34375 0.078125 0.296875 0.2304687 0.3710938 0.421875 0.28125 0.4609375 0.296875 0.2304687 0.34375 0.078125 0.3632813 0.109375 0.296875 0.2304687 0.3828125 0.2578125 0.3710938 0.421875 0.296875 0.2304687 0.3632813 0.109375 0.3984375 0.09375 0.296875 0.2304687 0.3984375 0.09375 0.3828125 0.2578125 0.2539063 0.3242188 0.203125 0.2539063 0.2734375 0.1914062 0.2539063 0.3242188 0.28125 0.4609375 0.1757812 0.5429688 0.2539063 0.3242188 0.1171875 0.328125 0.203125 0.2539063 0.2539063 0.3242188 0.1757812 0.5429688 0.1171875 0.328125 0.34375 0.078125 0.4101563 0.03125 0.3632813 0.109375 0.3632813 0.109375 0.4101563 0.03125 0.3984375 0.09375 0.3710938 0.421875 0.3828125 0.2578125 0.4375 0.2578125 0.3710938 0.421875 0.3085938 0.5703125 0.28125 0.4609375 0.3710938 0.421875 0.4375 0.2578125 0.4492188 0.421875 0.3710938 0.421875 0.4101563 0.5390625 0.3085938 0.5703125 0.3710938 0.421875 0.4492188 0.421875 0.4101563 0.5390625 0.28125 0.4609375 0.3085938 0.5703125 0.1757812 0.5429688 0.203125 0.2539063 0.1171875 0.328125 0.1132812 0.2890625 0.4101563 0.03125 0.4101563 0.09375 0.3984375 0.09375 0.4101563 0.03125 0.4257813 0.09375 0.4101563 0.09375 0.4101563 0.03125 0.4609375 0.109375 0.4257813 0.09375 0.4101563 0.03125 0.4765625 0.078125 0.4609375 0.109375 0.4101563 0.09375 0.3828125 0.2578125 0.3984375 0.09375 0.4101563 0.09375 0.4375 0.2578125 0.3828125 0.2578125 0.4101563 0.09375 0.4257813 0.09375 0.4375 0.2578125 0.4492188 0.421875 0.515625 0.5703125 0.4101563 0.5390625 0.4492188 0.421875 0.4375 0.2578125 0.5234375 0.2304687 0.4492188 0.421875 0.5390625 0.4609375 0.515625 0.5703125 0.4492188 0.421875 0.5234375 0.2304687 0.5390625 0.4609375 0.4257813 0.09375 0.4609375 0.109375 0.5234375 0.2304687 0.4257813 0.09375 0.5234375 0.2304687 0.4375 0.2578125 0.4609375 0.109375 0.4765625 0.078125 0.5234375 0.2304687 0.3085938 0.5703125 0.2460937 0.7734375 0.1757812 0.5429688 0.3085938 0.5703125 0.4101563 0.5390625 0.4101563 0.6484375 0.3085938 0.5703125 0.3320313 0.6992188 0.2460937 0.7734375 0.3085938 0.5703125 0.4101563 0.6484375 0.3320313 0.6992188 0.4101563 0.5390625 0.515625 0.5703125 0.4101563 0.6484375 0.1171875 0.328125 0.01171875 0.265625 0.1132812 0.2890625 0.1171875 0.328125 0.1757812 0.5429688 0.01171875 0.3867188 0.1171875 0.328125 0.01171875 0.3867188 0.01171875 0.265625 0.5390625 0.4609375 0.5234375 0.2304687 0.5703125 0.3242188 0.5390625 0.4609375 0.6445313 0.5429688 0.515625 0.5703125 0.5390625 0.4609375 0.5703125 0.3242188 0.6445313 0.5429688 0.4765625 0.078125 0.546875 0.1914062 0.5234375 0.2304687 0.5234375 0.2304687 0.546875 0.1914062 0.5703125 0.3242188 0.2460937 0.7734375 0.3320313 0.6992188 0.4101563 0.8984375 0.3320313 0.6992188 0.4101563 0.6484375 0.4101563 0.8984375 0.515625 0.5703125 0.6445313 0.5429688 0.5742188 0.7734375 0.515625 0.5703125 0.4921875 0.6992188 0.4101563 0.6484375 0.515625 0.5703125 0.5742188 0.7734375 0.4921875 0.6992188 0.4921875 0.6992188 0.5742188 0.7734375 0.4101563 0.8984375 0.4921875 0.6992188 0.4101563 0.8984375 0.4101563 0.6484375 0.546875 0.1914062 0.6210938 0.2539063 0.5703125 0.3242188 0.6445313 0.5429688 0.5703125 0.3242188 0.703125 0.3242188 0.6445313 0.5429688 0.703125 0.3242188 0.8125 0.3867188 0.5703125 0.3242188 0.6210938 0.2539063 0.703125 0.3242188 0.8125 0.3867188 0.703125 0.3242188 0.8125 0.265625 0.6210938 0.2539063 0.7070313 0.2890625 0.703125 0.3242188 0.703125 0.3242188 0.7070313 0.2890625 0.8125 0.265625</float_array>
          <technique_common>
            <accessor source="#Hat_Root__miiFighterH24B-mesh-map-0-array" count="225" stride="2">
              <param name="S" type="float"/>
              <param name="T" type="float"/>
            </accessor>
          </technique_common>
        </source>
        <vertices id="Hat_Root__miiFighterH24B-mesh-vertices">
          <input semantic="POSITION" source="#Hat_Root__miiFighterH24B-mesh-positions"/>
        </vertices>
        <triangles material="miiFighterH24B-material" count="75">
          <input semantic="VERTEX" source="#Hat_Root__miiFighterH24B-mesh-vertices" offset="0"/>
          <input semantic="NORMAL" source="#Hat_Root__miiFighterH24B-mesh-normals" offset="1"/>
          <input semantic="TEXCOORD" source="#Hat_Root__miiFighterH24B-mesh-map-0" offset="2" set="0"/>
          <p>0 0 0 1 1 1 2 2 2 0 0 3 3 3 4 1 1 5 0 0 6 2 2 7 4 4 8 0 0 9 5 5 10 3 3 11 0 0 12 4 4 13 6 6 14 0 0 15 7 7 16 5 5 17 0 0 18 6 6 19 8 8 20 0 0 21 9 9 22 7 7 23 0 0 24 8 8 25 10 10 26 0 0 27 11 11 28 9 9 29 0 0 30 10 10 31 12 12 32 0 0 33 12 12 34 11 11 35 8 8 36 13 13 37 10 10 38 14 14 39 15 15 40 16 16 41 14 14 42 17 17 43 15 15 44 14 14 45 16 16 46 18 18 47 14 14 48 19 19 49 17 17 50 14 14 51 18 18 52 20 20 53 14 14 54 21 21 55 19 19 56 14 14 57 20 20 58 22 22 59 14 14 60 22 22 61 21 21 62 15 15 63 23 23 64 16 16 65 15 15 66 17 17 67 24 24 68 15 15 69 25 25 70 23 23 71 15 15 72 24 24 73 25 25 74 18 18 75 26 26 76 20 20 77 20 20 78 26 26 79 22 22 80 19 19 81 21 21 82 27 27 83 19 19 84 28 28 85 17 17 86 19 19 87 27 27 88 29 29 89 19 19 90 30 30 91 28 28 92 19 19 93 29 29 94 30 30 95 17 17 96 28 28 97 24 24 98 23 23 99 25 25 100 31 31 101 26 26 102 32 32 103 22 22 104 26 26 105 33 33 106 32 32 107 26 26 108 34 34 109 33 33 110 26 26 111 35 35 112 34 34 113 32 32 114 21 21 115 22 22 116 32 32 117 27 27 118 21 21 119 32 32 120 33 33 121 27 27 122 29 29 123 36 36 124 30 30 125 29 29 126 27 27 127 37 37 128 29 29 129 38 38 130 36 36 131 29 29 132 37 37 133 38 38 134 33 33 135 34 34 136 37 37 137 33 33 138 37 37 139 27 27 140 34 34 141 35 35 142 37 37 143 28 28 144 39 39 145 24 24 146 28 28 147 30 30 148 40 40 149 28 28 150 41 41 151 39 39 152 28 28 153 40 40 154 41 41 155 30 30 156 36 36 157 40 40 158 25 25 159 42 42 160 31 31 161 25 25 162 24 24 163 43 43 164 25 25 165 43 43 166 42 42 167 38 38 168 37 37 169 44 44 170 38 38 171 45 45 172 36 36 173 38 38 174 44 44 175 45 45 176 35 35 177 46 46 178 37 37 179 37 37 180 46 46 181 44 44 182 39 39 183 41 41 184 47 47 185 41 41 186 40 40 187 47 47 188 36 36 189 45 45 190 48 48 191 36 36 192 49 49 193 40 40 194 36 36 195 48 48 196 49 49 197 49 49 198 48 48 199 47 47 200 49 49 201 47 47 202 40 40 203 46 46 204 50 50 205 44 44 206 45 45 207 44 44 208 51 51 209 45 45 210 51 51 211 52 52 212 44 44 213 50 50 214 51 51 215 52 52 216 51 51 217 53 53 218 50 50 219 54 54 220 51 51 221 51 51 222 54 54 223 53 53 224</p>
        </triangles>
      </mesh>
    </geometry>
    <geometry id="Hat_Root__miiFighterH24A-mesh" name="Hat_Root__miiFighterH24A">
      <mesh>
        <source id="Hat_Root__miiFighterH24A-mesh-positions">
          <float_array id="Hat_Root__miiFighterH24A-mesh-positions-array" count="1167">-2.79739e-5 6.21924 -1.486781 -2.074414 2.128212 -4.449433 -2.64321e-5 2.19446 -5.11727 -2.703101 2.14821 -3.556241 2.074366 2.128227 -4.449448 -2.81235 2.872479 -2.54124 2.703061 2.136709 -3.218 -2.72919 3.28944 -2.22621 2.81231 2.8725 -2.54126 -2.789967 3.82992 -0.8332974 2.72915 3.289459 -2.22623 -2.624562 3.84405 0.55946 2.789933 3.82994 -0.8333176 -2.47267 4.026471 1.412969 2.624538 3.844069 0.559441 -2.170407 4.098842 2.124997 2.472651 4.026489 1.412951 -1.469905 3.984985 2.721645 2.170393 4.098857 2.124982 -0.8006107 3.785687 3.329982 1.469895 3.984995 2.721634 1.1648e-6 3.26932 3.619349 0.8006073 3.785693 3.329977 -3.634093 2.545037 -0.9969081 -3.170199 4.266939 -0.870106 -3.166182 3.985448 -2.012719 -2.871985 4.464829 0.3738609 -3.568126 2.310337 -2.037857 -3.336419 2.818968 0.4395458 -3.646872 1.610717 -1.800687 -3.463617 2.299128 0.4533663 -3.641079 1.283217 -1.382747 -3.561736 1.778907 0.2385647 -3.631887 1.149127 -0.8941259 -3.606665 1.407837 -0.08349233 -3.607176 1.169067 -0.44748 -3.271506 2.154048 -2.303068 -2.72919 3.28944 -2.22621 -3.037698 2.762369 0.6843947 -2.624562 3.84405 0.55946 -3.404929 0.8302506 -1.620848 -3.418753 1.383398 -2.124768 -3.259534 1.513158 0.5211047 -3.150905 2.172409 0.6772572 -3.394494 0.6991288 -0.3299408 -3.337143 0.9990209 0.142807 -3.150506 2.084178 -2.336509 -2.863927 2.70577 0.6660742 -3.225759 0.8936313 -1.658468 -3.434095 0.6004955 -0.9369536 -3.161606 0.6894755 -0.9946786 -3.067783 1.023639 0.09400039 -3.116214 0.7559297 -0.3832068 -3.254293 1.421178 -2.142298 -2.934236 2.132669 0.6373695 -3.023204 1.505599 0.4767568 3.634067 2.545063 -0.9969345 3.646847 1.610743 -1.800713 3.568094 2.310363 -2.037883 3.64106 1.283243 -1.382773 3.166138 3.985471 -2.012742 3.631873 1.149153 -0.8941523 3.170161 4.266962 -0.870129 3.607164 1.169093 -0.4475062 2.871955 4.46485 0.37384 3.606654 1.407863 -0.08351868 3.336401 2.818992 0.4395216 3.561724 1.778933 0.2385388 3.463603 2.299152 0.4533411 3.271474 2.154071 -2.303092 3.418727 1.383422 -2.124793 3.394486 0.6991532 -0.3299654 3.404901 0.8302742 -1.620872 3.434084 0.6005203 -0.9369785 3.037682 2.762391 0.6843726 2.624538 3.844069 0.559441 3.259526 1.513182 0.521081 3.337137 0.999045 0.1427827 2.72915 3.289459 -2.22623 3.254267 1.421202 -2.142322 3.150474 2.084201 -2.336532 3.161594 0.6894983 -0.9947016 3.116206 0.7559522 -0.3832294 2.863913 2.70579 0.6660533 3.150894 2.172431 0.6772343 3.225741 0.8936545 -1.658492 3.067777 1.023661 0.0939781 2.934225 2.13269 0.6373481 3.023196 1.505621 0.4767348 -2.789967 3.82992 -0.8332974 -2.863927 2.70577 0.6660742 -2.934236 2.132669 0.6373695 -2.624562 3.84405 0.55946 -3.023204 1.505599 0.4767568 -3.067783 1.023639 0.09400039 -3.116214 0.7559297 -0.3832068 -3.161606 0.6894755 -0.9946786 -3.225759 0.8936313 -1.658468 -3.254293 1.421178 -2.142298 -3.150506 2.084178 -2.336509 -2.72919 3.28944 -2.22621 2.789933 3.82994 -0.8333176 2.934225 2.13269 0.6373481 2.863913 2.70579 0.6660533 3.023196 1.505621 0.4767348 2.624538 3.844069 0.559441 3.067777 1.023661 0.0939781 3.116206 0.7559522 -0.3832294 3.161594 0.6894983 -0.9947016 3.225741 0.8936545 -1.658492 3.254267 1.421202 -2.142322 3.150474 2.084201 -2.336532 2.72915 3.289459 -2.22623 -1.78352e-5 6.97613 2.087909 -0.7284797 6.330247 2.307012 -1.49515e-5 6.47089 2.378169 -1.540729 6.789814 1.633045 0.7284503 6.330253 2.307007 -1.277007 7.742715 0.4219677 1.540691 6.789826 1.633034 -2.61282e-5 7.83927 0.6584541 1.276953 7.742725 0.4219584 -1.440665 6.122165 2.038934 1.440635 6.122175 2.038924 -3.50142e-5 8.154581 -1.487791 -2.491225 6.845311 -0.1160748 -1.020265 8.066617 -1.431187 -1.768283 7.709784 -1.383134 -2.187775 5.538972 1.571217 2.187746 5.538988 1.571201 -2.246521 7.249802 -1.353983 -2.75908 5.92249 0.3335383 -1.290847 7.645945 -2.591376 2.491175 6.845329 -0.1160929 1.020196 8.066624 -1.431195 1.768217 7.709796 -1.383147 2.75904 5.92251 0.3335182 3.047852 4.997921 0.008091926 2.871955 4.46485 0.37384 -2.496062 6.423481 -2.404572 -3.047888 4.997899 0.008114039 1.290773 7.645955 -2.591386 -3.80571e-5 7.88427 -2.604151 3.170161 4.266962 -0.870129 2.246459 7.249818 -1.353999 -1.333007 6.928755 -3.410346 -1.530075 5.573744 -4.172345 -2.914819 5.40628 -2.49659 -2.871985 4.464829 0.3738609 -3.170199 4.266939 -0.870106 2.495998 6.423499 -2.40459 1.332933 6.928765 -3.410356 -1.61305 4.357324 -4.060595 -3.63137e-5 5.4812 -4.543621 -3.18886e-5 4.26269 -4.545091 -3.91121e-5 7.01663 -3.771531 1.530005 5.573755 -4.172356 2.914761 5.406301 -2.496611 -3.300264 4.653638 -1.862779 1.612989 4.357335 -4.060606 3.300216 4.653662 -1.862803 -3.166182 3.985448 -2.012719 -2.95761e-5 3.78359 -4.38688 -1.622058 3.867194 -3.855405 3.166138 3.985471 -2.012742 3.170161 4.266962 -0.870129 -3.170199 4.266939 -0.870106 1.622002 3.867206 -3.855417 -9.51978e-6 6.05775 3.467889 -1.49515e-5 6.47089 2.378169 -0.7284797 6.330247 2.307012 0.7284503 6.330253 2.307007 -0.746516 5.998347 3.248072 0.7464959 5.998353 3.248067 -0.7555277 5.416277 3.606692 0.7555143 5.416283 3.606686 -4.15289e-6 5.12989 4.020649 -1.51852 5.680235 2.840185 -1.440665 6.122165 2.038934 1.5185 5.680245 2.840174 1.440635 6.122175 2.038924 -0.6882456 4.408217 3.718862 0.6882403 4.408222 3.718857 0 3.92003 3.94951 -2.187775 5.538972 1.571217 2.187746 5.538988 1.571201 -1.534206 4.775354 3.272765 1.534194 4.775366 3.272754 1.1648e-6 3.26932 3.619349 -2.186439 4.857442 2.407637 -2.651252 4.794711 1.454439 -2.871985 4.464829 0.3738609 2.186421 4.857458 2.407622 2.651228 4.79473 1.45442 2.871955 4.46485 0.37384 -0.8006107 3.785687 3.329982 0.8006073 3.785693 3.329977 -2.47267 4.026471 1.412969 -2.624562 3.84405 0.55946 -1.469905 3.984985 2.721645 -2.170407 4.098842 2.124997 2.472651 4.026489 1.412951 2.170393 4.098857 2.124982 1.469895 3.984995 2.721634 2.624538 3.844069 0.559441 4.804688 7.437017 -1.234288 4.632397 7.350547 -1.772398 4.328442 8.674486 -1.758867 4.383002 5.986076 -1.724447 4.418013 8.758557 -1.433307 4.568445 5.875916 -1.044347 4.300094 8.792236 -1.086397 4.409006 6.161106 -0.3914938 4.59184 7.543127 -0.6947886 4.195965 7.482845 -2.216606 3.929668 6.411454 -2.281255 3.657559 9.667533 -1.529204 3.82924 5.377154 -0.2354196 3.939195 5.215014 -1.632555 4.031339 5.038464 -0.9197032 4.17258 7.798115 -0.3359041 3.876585 6.801234 0.00886631 3.343547 7.005442 -2.062393 3.502481 5.825032 -2.206363 3.058469 6.551021 -2.062492 3.597569 9.624174 -1.737074 4.032221 8.639255 -2.012125 3.33654 4.679532 -0.9202127 3.368728 6.225702 0.09757447 3.22591 5.207731 -0.1964424 4.036625 8.842685 -0.8433048 2.53882 7.010399 -1.3174 3.509465 7.782003 -1.981324 2.993198 7.401351 -1.316772 3.271476 4.939622 -1.722932 2.703829 6.38341 -2.150711 3.088772 5.530771 -2.253602 3.456609 9.786103 -1.624914 3.545272 8.626673 -1.885024 3.349819 9.621693 -1.683163 3.456609 9.786103 -1.624914 2.927189 5.94137 0.05679112 3.334122 7.283372 -0.447791 3.022044 6.853601 -0.3268708 3.43722 9.671712 -1.434534 3.524208 7.999023 -0.7246478 3.571354 8.788614 -1.025094 3.178876 7.989091 -1.390893 3.300413 8.651802 -1.467573 2.709315 6.70372 -0.3427677 3.456609 9.786103 -1.624914 3.178876 7.989091 -1.390893 3.300413 8.651802 -1.467573 2.53882 7.010399 -1.3174 2.993198 7.401351 -1.316772 3.349819 9.621693 -1.683163 3.456609 9.786103 -1.624914 -4.804751 7.436983 -1.234253 -4.328517 8.674455 -1.758835 -4.632463 7.350513 -1.772364 -4.418087 8.758524 -1.433275 -4.383058 5.986044 -1.724415 -4.300166 8.792205 -1.086365 -4.568495 5.875883 -1.044314 -4.5919 7.543093 -0.6947552 -4.409054 6.161074 -0.3914617 -4.196035 7.482815 -2.216576 -3.657641 9.667507 -1.529178 -4.032299 8.639226 -2.012096 -3.597651 9.624146 -1.737048 -3.939245 5.214986 -1.632526 -3.929731 6.411426 -2.281226 -3.502539 5.825007 -2.206338 -3.876635 6.801206 0.008894503 -3.829281 5.377126 -0.2353917 -3.368772 6.225678 0.09759896 -3.545348 8.626648 -1.884998 -3.456692 9.786077 -1.624889 -3.349901 9.621668 -1.683139 -3.456692 9.786077 -1.624889 -4.172639 7.798085 -0.3358738 -4.036695 8.842657 -0.8432754 -3.271524 4.939598 -1.722909 -4.031382 5.038435 -0.9196739 -3.33658 4.679508 -0.9201884 -3.343613 7.005418 -2.062369 -3.509536 7.781977 -1.981298 -3.022096 6.853579 -0.3268488 -3.22595 5.207708 -0.1964189 -2.709366 6.703701 -0.3427479 -2.927232 5.94135 0.0568124 -3.300487 8.651779 -1.467549 -3.4373 9.671688 -1.434509 -3.456692 9.786077 -1.624889 -3.334178 7.283348 -0.4477667 -3.524272 7.998997 -0.7246221 -3.088828 5.530749 -2.25358 -3.058531 6.550999 -2.062469 -2.703891 6.38339 -2.150691 -3.178944 7.989069 -1.390869 -2.993262 7.401329 -1.31675 -2.53888 7.010381 -1.317382 -3.571426 8.788587 -1.025068 -3.300487 8.651779 -1.467549 -3.349901 9.621668 -1.683139 -3.456692 9.786077 -1.624889 -2.53888 7.010381 -1.317382 -2.993262 7.401329 -1.31675 -3.178944 7.989069 -1.390869 -1.912147 3.226403 -4.260583 -2.92849e-5 3.2051 -4.88939 -2.8087e-5 2.57499 -5.192511 -2.95761e-5 3.78359 -4.38688 -2.087656 2.509582 -4.520093 -1.622058 3.867194 -3.855405 -2.722142 2.36875 -3.60938 -2.920852 3.161899 -2.8403 1.912093 3.226417 -4.260598 -2.074414 2.128212 -4.449433 -3.166182 3.985448 -2.012719 2.087605 2.509597 -4.520108 -2.64321e-5 2.19446 -5.11727 -2.087656 2.509582 -4.520093 2.087605 2.509597 -4.520108 1.622002 3.867206 -3.855417 -2.81235 2.872479 -2.54124 -2.703101 2.14821 -3.556241 -2.920852 3.161899 -2.8403 -2.72919 3.28944 -2.22621 2.835109 2.60255 -3.271151 2.074366 2.128227 -4.449448 2.074366 2.128227 -4.449448 2.920808 3.16192 -2.840321 3.166138 3.985471 -2.012742 2.703061 2.136709 -3.218 2.72915 3.289459 -2.22623 2.81231 2.8725 -2.54126 -2.541611 7.178111 -1.348032 -2.756992 6.45278 -2.316011 -2.669685 5.90966 -1.062071 -2.496062 6.423481 -2.404572 -2.246521 7.249802 -1.353983 -2.491225 6.845311 -0.1160748 -2.747515 6.83902 -0.2020588 -2.669685 5.90966 -1.062071 -2.914819 5.40628 -2.49659 -3.162939 5.499409 -2.400369 -2.669685 5.90966 -1.062071 -2.75908 5.92249 0.3335383 -3.300264 4.653638 -1.862779 -3.006871 5.974739 0.2204382 -2.669685 5.90966 -1.062071 -3.424234 4.799558 -1.816648 -3.48603 4.534058 -0.8952768 -3.170199 4.266939 -0.870106 -3.047888 4.997899 0.008114039 -2.669685 5.90966 -1.062071 -2.669685 5.90966 -1.062071 -3.298069 5.119288 -0.07732957 -2.669685 5.90966 -1.062071 -3.48603 4.534058 -0.8952768 -3.170199 4.266939 -0.870106 -2.669685 5.90966 -1.062071 2.541549 7.178129 -1.34805 2.669635 5.909679 -1.06209 2.756928 6.4528 -2.316031 2.495998 6.423499 -2.40459 2.246459 7.249818 -1.353999 2.491175 6.845329 -0.1160929 2.747464 6.83904 -0.2020788 2.669635 5.909679 -1.06209 2.914761 5.406301 -2.496611 3.162881 5.499432 -2.400392 2.669635 5.909679 -1.06209 2.75904 5.92251 0.3335182 3.300216 4.653662 -1.862803 3.006829 5.974761 0.2204164 3.047852 4.997921 0.008091926 3.424186 4.799582 -1.816673 2.669635 5.909679 -1.06209 2.669635 5.909679 -1.06209 3.298031 5.119312 -0.07735359 3.48599 4.534082 -0.8953022 3.170161 4.266962 -0.870129 3.48599 4.534082 -0.8953022 3.170161 4.266962 -0.870129 2.669635 5.909679 -1.06209 2.669635 5.909679 -1.06209 2.669635 5.909679 -1.06209</float_array>
          <technique_common>
            <accessor source="#Hat_Root__miiFighterH24A-mesh-positions-array" count="389" stride="3">
              <param name="X" type="float"/>
              <param name="Y" type="float"/>
              <param name="Z" type="float"/>
            </accessor>
          </technique_common>
        </source>
        <source id="Hat_Root__miiFighterH24A-mesh-normals">
          <float_array id="Hat_Root__miiFighterH24A-mesh-normals-array" count="1167">-0.001831114 -0.9767714 0.2142763 0.4465587 -0.6622082 0.6017189 0 -0.6698074 0.7425349 0.6038531 -0.6414833 0.4731393 -0.4875761 -0.6606205 0.5708327 0.5451035 -0.631717 0.5511769 -0.62767 -0.616927 0.4747964 0.5323138 -0.6366586 0.5579499 -0.4323998 -0.5806938 0.6898009 0.6614722 -0.7412799 0.1138364 -0.532292 -0.6366689 0.5579589 0.6686088 -0.7435939 -0.00552392 -0.6614722 -0.7412799 0.1138364 0.6047716 -0.7920384 -0.08322626 -0.6686088 -0.7435939 -0.00552392 0.3394674 -0.8859173 -0.3160895 -0.6047716 -0.7920384 -0.08322626 0.1527468 -0.8939885 -0.4212516 -0.3394674 -0.8859173 -0.3160895 -0.2002393 -0.8606842 -0.4681102 -0.1527468 -0.8939885 -0.4212516 0 -0.8658878 -0.5002385 0.2002393 -0.8606842 -0.4681102 -0.9868599 0.1597971 0.02392679 -0.9636169 0.2533103 0.08530145 -0.8787735 0.2606045 -0.3998031 -0.8445339 0.266984 0.4642006 -0.8730606 0.08664375 -0.4798521 -0.8353117 0.2375313 0.4958156 -0.9465408 -0.1245778 -0.2975584 -0.8369542 0.07184183 0.5425371 -0.9692211 -0.2201027 -0.1102955 -0.9056942 -0.08417254 0.4154913 -0.9788177 -0.2046019 0.007355153 -0.9492025 -0.1898283 0.2509579 -0.9644644 -0.2329827 0.1246094 -0.4665415 0.01059001 -0.8844359 -0.2070689 0.1641902 -0.9644501 -0.2572465 0.1052913 0.9605926 -0.2035906 0.1886974 0.9606999 -0.4163733 -0.7832444 -0.4616943 -0.4847087 -0.4096005 -0.7728422 -0.3384879 -0.3747141 0.8631427 -0.2527909 -0.1026667 0.9620584 -0.4143915 -0.8405024 0.3490496 -0.3867349 -0.6641208 0.6398279 -0.2955822 -0.05545407 -0.9537066 0.1178033 0.008972585 0.9929965 0.1613565 -0.8004038 -0.577337 -0.4328853 -0.8992198 -0.063358 0.2846556 -0.9496762 -0.1307151 0.1755444 -0.7516791 0.635738 0.2484563 -0.9184431 0.3077855 -0.01922702 -0.4180515 -0.9082198 0.1477756 -0.171886 0.9739701 0.1465528 -0.4500348 0.8809036 0.9868599 0.1597971 0.02392679 0.9465408 -0.1245778 -0.2975584 0.8730478 0.0866425 -0.4798756 0.9692211 -0.2201027 -0.1102955 0.8787665 0.260633 -0.3998 0.9788177 -0.2046019 0.007355153 0.9636194 0.253311 0.08527117 0.9644644 -0.2329827 0.1246094 0.8445339 0.266984 0.4642006 0.9492025 -0.1898283 0.2509579 0.8353244 0.2375348 0.4957926 0.9056966 -0.0841422 0.4154924 0.8369542 0.07184183 0.5425371 0.4665415 0.01059001 -0.8844359 0.4847087 -0.4096005 -0.7728422 0.4143915 -0.8405024 0.3490496 0.416348 -0.7832544 -0.4617002 0.4329101 -0.8992078 -0.06335717 0.2572465 0.1052913 0.9605926 0.2035906 0.1886974 0.9606999 0.3384879 -0.3747141 0.8631427 0.3867428 -0.6641038 0.6398408 0.2070689 0.1641902 -0.9644501 0.01922702 -0.4180515 -0.9082198 0.2955736 -0.05545246 -0.9537093 -0.2846556 -0.9496762 -0.1307151 -0.2484276 -0.9184499 0.3077878 -0.1177732 0.008972585 0.993 0.2527909 -0.1026667 0.9620584 -0.1613565 -0.8004038 -0.577337 -0.1755444 -0.7516791 0.635738 -0.1477413 -0.1718817 0.973976 -0.1465528 -0.4500348 0.8809036 0.9823373 -0.1839364 -0.0343641 0.9873277 -0.1464618 -0.06109946 0.9909337 -0.1255872 -0.04773229 0.970146 -0.2145808 -0.1130127 0.9943864 -0.1053501 -0.009857475 0.9941189 -0.1059002 -0.02264493 0.9922942 -0.1127982 -0.05127185 0.989196 -0.1121894 -0.09436607 0.9839802 -0.1056586 -0.1435944 0.9843127 -0.1189036 -0.1303485 0.9783487 -0.2068885 0.005584955 0.9249337 -0.3390335 0.1719124 -0.9823373 -0.1839364 -0.0343641 -0.9909337 -0.1255872 -0.04773229 -0.9873232 -0.1464917 -0.06109923 -0.9943864 -0.1053501 -0.009857475 -0.970146 -0.2145808 -0.1130127 -0.9941189 -0.1059002 -0.02264493 -0.9922924 -0.1128284 -0.05124127 -0.9891926 -0.1122196 -0.09436577 -0.9839823 -0.1056861 -0.1435597 -0.9843165 -0.1189041 -0.1303185 -0.9783484 -0.2068884 0.005615472 -0.9249294 -0.3390431 0.1719173 0 0.6976134 0.7164744 -0.3045226 0.5309156 0.7908189 0 0.4981293 0.8671028 -0.5422613 0.5789756 0.6088842 0.3045226 0.5309156 0.7908189 -0.3839343 0.8664768 0.3190805 0.5422714 0.5789864 0.608865 0 0.9350171 0.3546027 0.3839343 0.8664768 0.3190805 -0.5549356 0.369835 0.7451635 0.5549356 0.369835 0.7451635 0 0.9976438 -0.06860727 -0.7088082 0.6352875 0.3065958 -0.2404607 0.9680079 -0.0716896 -0.5891975 0.8034706 -0.08533078 -0.8062686 0.2833141 0.5192921 0.8062686 0.2833141 0.5192921 -0.6905192 0.7087694 -0.1443235 -0.8412671 0.2883472 0.4573026 -0.4095112 0.797262 -0.4434795 0.7088082 0.6352875 0.3065958 0.2404607 0.9680079 -0.0716896 0.5891761 0.8034829 -0.08536261 0.8412671 0.2883472 0.4573026 0.925601 -0.02053904 0.3779433 0.9216384 -0.03921669 0.3860633 -0.7108605 0.4982616 -0.4963999 -0.9255966 -0.02053964 0.377954 0.4095012 0.797273 -0.4434686 0 0.9027212 -0.4302262 0.9570956 -0.1427968 0.2521451 0.6905032 0.7087844 -0.1443266 -0.4421272 0.5934704 -0.6725448 -0.4988358 0.2331054 -0.8347603 -0.7892622 0.07852637 -0.6090146 -0.9216384 -0.03921669 0.3860633 -0.957093 -0.1428009 0.2521525 0.7108498 0.498254 -0.4964229 0.4421272 0.5934704 -0.6725448 -0.5511459 -0.1721892 -0.8164491 0 0.2324044 -0.9726193 0 -0.1733152 -0.9848664 0 0.63041 -0.7762624 0.4988358 0.2331054 -0.8347603 0.7892603 0.07855671 -0.6090132 -0.9236966 -0.1234505 -0.3626911 0.5511459 -0.1721892 -0.8164491 0.9236863 -0.1234491 -0.3627176 -0.9140324 -0.111946 -0.3898882 0 -0.326491 -0.9452004 -0.5732026 -0.3074456 -0.7595499 0.9140324 -0.111946 -0.3898882 0.977244 -0.2067347 0.04748731 -0.977244 -0.2067347 0.04748731 0.573208 -0.3074179 -0.7595571 0 0.751873 0.6593081 0 0.9350513 0.3545125 -0.3304922 0.8773655 0.3478576 0.3304922 0.8773655 0.3478576 -0.3835729 0.7294843 0.5663255 0.3835729 0.7294843 0.5663255 -0.4427162 0.3264979 0.8351058 0.4427162 0.3264979 0.8351058 0 0.2082325 0.9780794 -0.6486207 0.5660668 0.5087825 -0.5622575 0.7460144 0.3568319 0.6486307 0.5660756 0.5087599 0.5622575 0.7460144 0.3568319 -0.4825673 -0.1667256 0.8598439 0.4825673 -0.1667256 0.8598439 0 -0.3170334 0.9484145 -0.8053893 0.5157971 0.2920643 0.8053893 0.5157971 0.2920643 -0.6875964 -0.05737596 0.7238227 0.6876116 -0.05737721 0.7238082 0 -0.4503726 0.8928407 -0.8447652 0.08050906 0.5290464 -0.9491584 0.1765862 0.2606065 -0.9752901 -0.08765006 0.2027975 0.8447788 0.08051031 0.5290244 0.9491608 0.1766172 0.2605767 0.9752901 -0.08765006 0.2027975 -0.5695571 -0.3996543 0.7182487 0.5695571 -0.3996543 0.7182487 -0.9153791 -0.2436311 0.3205078 -0.9258679 -0.3005554 0.2289872 -0.6917854 -0.4080762 0.5957406 -0.7968917 -0.2382038 0.5551782 0.9153791 -0.2436311 0.3205078 0.7968975 -0.238175 0.5551822 0.6917854 -0.4080762 0.5957406 0.9258764 -0.3005276 0.2289894 0.9974312 0.07053005 0.01251286 0.8636094 -0.003235042 -0.5041511 0.763317 0.3641252 -0.5336291 0.7749212 -0.3380953 -0.5340306 0.8871179 0.4584068 -0.05371475 0.9294788 -0.3665606 0.04126131 0.7612296 0.5017591 0.4108132 0.757279 -0.2015199 0.6212233 0.8374276 0.1595565 0.5227399 0.3101394 0.09326761 -0.946105 0.2641161 -0.1254353 -0.9562995 0.5838661 0.7935646 0.1713357 0.4636148 -0.4855884 0.7411243 0.567752 -0.6351999 -0.523621 0.6635698 -0.7368759 0.129186 0.2550189 0.3577162 0.8983343 0.1904681 0.1774365 0.9655249 -0.4676167 0.2582848 -0.8453542 0.2349674 -0.2244688 -0.9457294 -0.2443347 0.3815785 -0.8914586 0.2946307 0.5367076 -0.7906565 0.2172032 0.269299 -0.9382435 0.4185389 -0.8995504 0.1250367 0.01348918 0.06482148 0.9978058 0.1978556 -0.5425084 0.8164177 0.193094 0.5336865 0.8233428 -0.499872 0.5993947 -0.6251833 -0.5782386 0.1640992 -0.7991943 -0.7107419 0.4174479 -0.5662008 0.3968403 -0.7160705 -0.5742481 -0.04797536 0.4905572 -0.8700875 0.2863634 -0.2542875 -0.9237608 0.5905463 0.7388696 -0.324541 -0.5780866 0.0936926 -0.8105786 -0.3327797 0.2385368 -0.9123365 -0.1953264 0.4378058 -0.8775954 -0.08823072 -0.005829095 0.9960831 -0.546446 0.4981646 0.6732227 -0.4231802 0.583559 0.6930927 -0.4597989 0.619169 0.6365648 -0.6426174 0.3609229 0.6758531 -0.6408076 0.2740912 0.7171051 -0.8418713 0.1427991 -0.5204433 -0.8617242 0.02331703 -0.506841 -0.3702592 0.6658684 0.6477095 0.2381147 0.821621 0.5179194 -0.8550526 0.2703378 0.4424959 -0.8706926 0.1630355 0.4640194 -0.5980228 0.7135073 0.3650701 -0.745139 0.5471881 0.3812524 -0.9263724 0.2588618 0.2735414 -0.8524712 0.4818727 0.2027106 -0.9974312 0.07053005 0.01251286 -0.763317 0.3641252 -0.5336291 -0.8636171 -0.00326544 -0.5041378 -0.8871243 0.4583944 -0.05371332 -0.7749212 -0.3380953 -0.5340306 -0.7612413 0.5017362 0.4108194 -0.9294788 -0.3665606 0.04126131 -0.8374276 0.1595565 0.5227399 -0.7572743 -0.2015491 0.6212195 -0.3101394 0.09326761 -0.946105 -0.5838661 0.7935646 0.1713357 -0.2172323 0.2692973 -0.9382373 -0.2946355 0.536686 -0.7906695 -0.567752 -0.6351999 -0.523621 -0.2641151 -0.1254653 -0.9562959 -0.2349674 -0.2244688 -0.9457294 -0.1904387 0.1774376 0.9655304 -0.4636148 -0.4855884 0.7411243 -0.01348918 0.06482148 0.9978058 0.5780866 0.0936926 -0.8105786 -0.5905463 0.7388696 -0.324541 0.3327797 0.2385368 -0.9123365 0.1953264 0.4378058 -0.8775954 -0.2550189 0.3577162 0.8983343 -0.193094 0.5336865 0.8233428 -0.3968403 -0.7160705 -0.5742481 -0.6635698 -0.7368759 0.129186 -0.4185389 -0.8995504 0.1250367 0.4676167 0.2582848 -0.8453542 0.5782183 0.1641021 -0.7992084 0.4231802 0.583559 0.6930927 -0.1978263 -0.5425117 0.8164227 0.3702517 0.6658853 0.6476963 0.08823072 -0.005829095 0.9960831 0.8617109 0.02331668 -0.5068637 0.4597989 0.619169 0.6365648 -0.2381088 0.8216309 0.5179064 0.546446 0.4981646 0.6732227 0.6426174 0.3609229 0.6758531 -0.2863634 -0.2542875 -0.9237608 0.2443347 0.3815785 -0.8914586 0.0479449 0.4905579 -0.8700887 0.8418713 0.1427991 -0.5204433 0.7107296 0.4174407 -0.5662215 0.5980228 0.7135073 0.3650701 0.6408076 0.2740912 0.7171051 0.8706926 0.1630355 0.4640194 0.9263724 0.2588618 0.2735414 0.8524587 0.4818961 0.2027077 0.499872 0.5993947 -0.6251833 0.745139 0.5471881 0.3812524 0.8550526 0.2703378 0.4424959 -0.5248994 0.5005146 -0.6884517 0 0.5370118 -0.8435748 0 0.1213448 -0.9926105 0 0.644754 -0.7643902 -0.6765492 0.2386295 -0.6966614 -0.4727075 0.586482 -0.6577132 -0.9217598 0.01861643 -0.3873143 -0.8903642 0.2026163 -0.4076741 0.5251464 0.5010055 -0.687906 -0.5919544 -0.171458 -0.7875228 -0.9591185 -0.001281738 -0.283002 0.6998997 0.2215092 -0.6790245 0 -0.1937973 -0.9810417 -0.2959146 -0.1840921 -0.9373072 0.2958868 -0.1840937 -0.9373157 0.4726838 0.5864905 -0.6577227 -0.9708323 -0.1557067 0.1823191 -0.9265722 -0.1618144 -0.3395295 -0.8941071 -0.2918811 0.3396734 -0.8283546 -0.4378297 0.3494764 0.9580183 -0.04886072 -0.2825133 0.8572759 -0.1561042 -0.4906218 0.2958866 -0.183941 -0.9373456 0.9724015 0.0925951 -0.2141529 0.9591102 -0.001281738 -0.2830302 0.9241589 -0.2903008 -0.248306 0.8283842 -0.4377987 0.3494455 0.9661346 -0.148352 0.2111293 -0.6416245 0.7545741 -0.1376087 -0.6646515 0.5386369 -0.5177922 -0.9841378 0.1272326 0.1236314 -0.2194002 0.5524222 -0.8041724 -0.235976 0.9575768 -0.1654152 -0.2252928 0.7783622 0.5859996 -0.6947655 0.6435851 0.3210906 -0.9853506 0.06381613 -0.1581517 -0.3872008 -0.0803883 -0.9184842 -0.8150056 0.1420957 -0.5617603 -0.9041733 0.365411 0.2212365 -0.3780059 0.1797863 0.9081787 -0.7148145 -0.5255666 -0.4613242 -0.7942413 0.2724482 0.5430957 -0.9527388 0.1594917 -0.2585561 -0.9619317 -0.06521928 -0.2653942 -0.9462679 -0.3010686 -0.1180469 -0.6211008 -0.7543791 -0.2124762 -0.4804693 -0.421536 0.7690622 -0.8655292 0.4692352 0.1751506 -0.8514322 0.5163894 0.09168046 -0.8869111 -0.06091576 0.4579063 -0.8857386 0.3894296 -0.2526104 -0.8781912 -0.2596577 0.4016942 -0.5538011 -0.6004343 0.5768735 -0.8578152 0.4904199 -0.1537579 0.6416065 0.7545889 -0.1376113 0.9841415 0.1272331 0.1236013 0.664641 0.5386285 -0.5178145 0.2194002 0.5524222 -0.8041724 0.2359472 0.9575837 -0.1654163 0.2252928 0.7783622 0.5859996 0.6947655 0.6435851 0.3210906 0.9853506 0.06381613 -0.1581517 0.3872008 -0.0803883 -0.9184842 0.8150056 0.1420957 -0.5617603 0.9041794 0.3654135 0.2212074 0.3780059 0.1797863 0.9081787 0.7148145 -0.5255666 -0.4613242 0.7942346 0.2724764 0.5430912 0.4804693 -0.421536 0.7690622 0.9619257 -0.0651884 -0.265423 0.8655292 0.4692352 0.1751506 0.9527313 0.1594905 -0.2585845 0.8869234 -0.06091666 0.4578821 0.8781912 -0.2596577 0.4016942 0.5538011 -0.6004343 0.5768735 0.9462679 -0.3010686 -0.1180469 0.6211008 -0.7543791 -0.2124762 0.8857317 0.3894265 -0.2526389 0.8578152 0.4904199 -0.1537579 0.8514322 0.5163894 0.09168046</float_array>
          <technique_common>
            <accessor source="#Hat_Root__miiFighterH24A-mesh-normals-array" count="389" stride="3">
              <param name="X" type="float"/>
              <param name="Y" type="float"/>
              <param name="Z" type="float"/>
            </accessor>
          </technique_common>
        </source>
        <source id="Hat_Root__miiFighterH24A-mesh-map-0">
          <float_array id="Hat_Root__miiFighterH24A-mesh-map-0-array" count="3036">1.00033 0.869541 1.05821 0.977484 1.00058 0.991141 1.00033 0.869541 1.08005 0.958109 1.05821 0.977484 1.00033 0.869541 1.00058 0.991141 0.943014 0.977567 1.00033 0.869541 1.0844 0.924756 1.08005 0.958109 1.00033 0.869541 0.943014 0.977567 0.917063 0.951073 1.00033 0.869541 1.07945 0.911681 1.0844 0.924756 1.00033 0.869541 0.917063 0.951073 0.915972 0.924135 1.00033 0.869541 1.08181 0.867035 1.07945 0.911681 1.00033 0.869541 0.915972 0.924135 0.920926 0.91108 1.00033 0.869541 1.07961 0.825603 1.08181 0.867035 1.00033 0.869541 0.920926 0.91108 0.91868 0.866689 1.00033 0.869541 1.07164 0.801852 1.07961 0.825603 1.00033 0.869541 0.91868 0.866689 0.920848 0.825449 1.00033 0.869541 1.06123 0.782961 1.07164 0.801852 1.00033 0.869541 0.920848 0.825449 0.928776 0.801755 1.00033 0.869541 1.04273 0.765048 1.06123 0.782961 1.00033 0.869541 0.928776 0.801755 0.939142 0.782898 1.00033 0.869541 1.024 0.748177 1.04273 0.765048 1.00033 0.869541 0.939142 0.782898 0.95759 0.765031 1.00033 0.869541 1.00012 0.736002 1.024 0.748177 1.00033 0.869541 0.95759 0.765031 0.976276 0.74817 1.00033 0.869541 0.976276 0.74817 1.00012 0.736002 0.103263 0.882761 0.102364 0.9834 0.03622394 0.960481 0.103263 0.882761 0.175489 1.00253 0.102364 0.9834 0.103263 0.882761 0.03622394 0.960481 0.04793816 0.862064 0.103263 0.882761 0.183997 0.904942 0.175489 1.00253 0.103263 0.882761 0.04793816 0.862064 0.06541776 0.826 0.103263 0.882761 0.184831 0.875738 0.183997 0.904942 0.103263 0.882761 0.06541776 0.826 0.08999359 0.810851 0.103263 0.882761 0.174818 0.846859 0.184831 0.875738 0.103263 0.882761 0.08999359 0.810851 0.116998 0.807049 0.103263 0.882761 0.159171 0.825552 0.174818 0.846859 0.103263 0.882761 0.116998 0.807049 0.141112 0.810836 0.103263 0.882761 0.141112 0.810836 0.159171 0.825552 0.03622394 0.960481 0.02580529 0.850711 0.04793816 0.862064 0.03622394 0.960481 0.003839671 0.92199 0.02580529 0.850711 0.04793816 0.862064 0.02580529 0.850711 0.06541776 0.826 0.175489 1.00253 0.183997 0.904942 0.206863 0.905361 0.175489 1.00253 0.206863 0.905361 0.204261 0.97348 0.183997 0.904942 0.184831 0.875738 0.206863 0.905361 0.08999359 0.810851 0.07957619 0.780531 0.116998 0.807049 0.08999359 0.810851 0.06541776 0.826 0.0466215 0.808395 0.08999359 0.810851 0.0466215 0.808395 0.07957619 0.780531 0.06541776 0.826 0.02580529 0.850711 0.0466215 0.808395 0.174818 0.846859 0.159171 0.825552 0.197964 0.831355 0.174818 0.846859 0.207354 0.870225 0.184831 0.875738 0.174818 0.846859 0.197964 0.831355 0.207354 0.870225 0.184831 0.875738 0.207354 0.870225 0.206863 0.905361 0.141112 0.810836 0.116998 0.807049 0.151855 0.783341 0.141112 0.810836 0.177429 0.80107 0.159171 0.825552 0.141112 0.810836 0.151855 0.783341 0.177429 0.80107 0.159171 0.825552 0.177429 0.80107 0.197964 0.831355 0.003839671 0.92199 0.01920467 0.846192 0.02580529 0.850711 0.204261 0.97348 0.206863 0.905361 0.2174479 0.904654 0.206863 0.905361 0.207354 0.870225 0.2174479 0.904654 0.07957619 0.780531 0.0466215 0.808395 0.0717526 0.773027 0.07957619 0.780531 0.119509 0.774687 0.116998 0.807049 0.07957619 0.780531 0.0717526 0.773027 0.11678 0.759081 0.07957619 0.780531 0.11678 0.759081 0.119509 0.774687 0.116998 0.807049 0.119509 0.774687 0.151855 0.783341 0.177429 0.80107 0.18852 0.791008 0.197964 0.831355 0.177429 0.80107 0.151855 0.783341 0.158628 0.768211 0.177429 0.80107 0.158628 0.768211 0.18852 0.791008 0.158628 0.768211 0.119509 0.774687 0.11678 0.759081 0.158628 0.768211 0.151855 0.783341 0.119509 0.774687 0.01920467 0.846192 0.03751748 0.805747 0.02580529 0.850711 0.03751748 0.805747 0.0466215 0.808395 0.02580529 0.850711 0.03751748 0.805747 0.0717526 0.773027 0.0466215 0.808395 0.207354 0.870225 0.219482 0.867912 0.2174479 0.904654 0.207354 0.870225 0.197964 0.831355 0.210234 0.826304 0.207354 0.870225 0.210234 0.826304 0.219482 0.867912 0.210234 0.826304 0.197964 0.831355 0.18852 0.791008 0.35296 0.88242 0.391049 0.825808 0.408079 0.862158 0.35296 0.88242 0.366573 0.810506 0.391049 0.825808 0.35296 0.88242 0.408079 0.862158 0.4186 0.960229 0.35296 0.88242 0.339441 0.806626 0.366573 0.810506 0.35296 0.88242 0.4186 0.960229 0.353958 0.982789 0.35296 0.88242 0.31543 0.810478 0.339441 0.806626 0.35296 0.88242 0.353958 0.982789 0.281687 1.00252 0.35296 0.88242 0.297294 0.825329 0.31543 0.810478 0.35296 0.88242 0.281687 1.00252 0.272842 0.905033 0.35296 0.88242 0.281745 0.846722 0.297294 0.825329 0.35296 0.88242 0.272842 0.905033 0.27189 0.875803 0.35296 0.88242 0.27189 0.875803 0.281745 0.846722 0.391049 0.825808 0.430053 0.851226 0.408079 0.862158 0.391049 0.825808 0.366573 0.810506 0.410072 0.808497 0.391049 0.825808 0.410072 0.808497 0.430053 0.851226 0.408079 0.862158 0.430053 0.851226 0.4186 0.960229 0.339441 0.806626 0.31543 0.810478 0.304421 0.783124 0.339441 0.806626 0.377106 0.780299 0.366573 0.810506 0.339441 0.806626 0.304421 0.783124 0.336907 0.774315 0.339441 0.806626 0.336907 0.774315 0.377106 0.780299 0.366573 0.810506 0.377106 0.780299 0.410072 0.808497 0.281687 1.00252 0.25015 0.905642 0.272842 0.905033 0.281687 1.00252 0.253027 0.973703 0.25015 0.905642 0.272842 0.905033 0.25015 0.905642 0.27189 0.875803 0.297294 0.825329 0.281745 0.846722 0.258448 0.831472 0.297294 0.825329 0.27897 0.801084 0.31543 0.810478 0.297294 0.825329 0.258448 0.831472 0.27897 0.801084 0.31543 0.810478 0.27897 0.801084 0.304421 0.783124 0.430053 0.851226 0.450855 0.922402 0.4186 0.960229 0.430053 0.851226 0.410072 0.808497 0.419064 0.806054 0.430053 0.851226 0.436831 0.846775 0.450855 0.922402 0.430053 0.851226 0.419064 0.806054 0.436831 0.846775 0.336907 0.774315 0.339643 0.758911 0.377106 0.780299 0.336907 0.774315 0.304421 0.783124 0.29772 0.76829 0.336907 0.774315 0.29772 0.76829 0.339643 0.758911 0.304421 0.783124 0.27897 0.801084 0.29772 0.76829 0.253027 0.973703 0.239772 0.905021 0.25015 0.905642 0.27189 0.875803 0.249471 0.870535 0.281745 0.846722 0.27189 0.875803 0.25015 0.905642 0.249471 0.870535 0.25015 0.905642 0.239772 0.905021 0.249471 0.870535 0.281745 0.846722 0.249471 0.870535 0.258448 0.831472 0.410072 0.808497 0.384844 0.773063 0.419064 0.806054 0.410072 0.808497 0.377106 0.780299 0.384844 0.773063 0.384844 0.773063 0.377106 0.780299 0.339643 0.758911 0.27897 0.801084 0.267819 0.791136 0.29772 0.76829 0.27897 0.801084 0.258448 0.831472 0.267819 0.791136 0.239772 0.905021 0.237528 0.868359 0.249471 0.870535 0.258448 0.831472 0.2463729 0.826614 0.267819 0.791136 0.258448 0.831472 0.249471 0.870535 0.2463729 0.826614 0.2463729 0.826614 0.249471 0.870535 0.237528 0.868359 0.942045 0.329117 0.881081 0.284905 0.884573 0.24149 0.942045 0.329117 0.887566 0.33294 0.881081 0.284905 0.942045 0.329117 0.884573 0.24149 0.891989 0.235306 0.942045 0.329117 0.891989 0.235306 0.899405 0.229121 0.942045 0.329117 0.899405 0.229121 0.90682 0.222937 0.942045 0.329117 0.90682 0.222937 0.914236 0.2167519 0.942045 0.329117 0.914236 0.2167519 0.958306 0.209002 0.942045 0.329117 0.958306 0.209002 0.986104 0.224036 0.942045 0.329117 0.986104 0.224036 0.995924 0.251199 0.942045 0.329117 0.995924 0.251199 0.996039 0.30658 0.411436 0.329192 0.468975 0.2414619 0.472471 0.284928 0.411436 0.329192 0.46155 0.23527 0.468975 0.2414619 0.411436 0.329192 0.472471 0.284928 0.465979 0.333019 0.411436 0.329192 0.454126 0.2290779 0.46155 0.23527 0.411436 0.329192 0.446702 0.222887 0.454126 0.2290779 0.411436 0.329192 0.439277 0.216695 0.446702 0.222887 0.411436 0.329192 0.395156 0.208935 0.439277 0.216695 0.411436 0.329192 0.367325 0.223987 0.395156 0.208935 0.411436 0.329192 0.357493 0.251182 0.367325 0.223987 0.411436 0.329192 0.357378 0.306628 0.357493 0.251182 0.679281 0.348083 0.632185 0.316113 0.679397 0.315301 0.679281 0.348083 0.594077 0.368363 0.632185 0.316113 0.679281 0.348083 0.679397 0.315301 0.726576 0.316448 0.679281 0.348083 0.617177 0.444957 0.594077 0.368363 0.679281 0.348083 0.726576 0.316448 0.764324 0.368909 0.679281 0.348083 0.679002 0.433813 0.617177 0.444957 0.679281 0.348083 0.764324 0.368909 0.740767 0.445381 0.679281 0.348083 0.740767 0.445381 0.679002 0.433813 0.632185 0.316113 0.594077 0.368363 0.583497 0.325707 0.726576 0.316448 0.775117 0.326345 0.764324 0.368909 0.617177 0.444957 0.679002 0.433813 0.678614 0.535481 0.617177 0.444957 0.533401 0.462758 0.594077 0.368363 0.617177 0.444957 0.678614 0.535481 0.631745 0.534005 0.617177 0.444957 0.591898 0.534339 0.533401 0.462758 0.617177 0.444957 0.631745 0.534005 0.591898 0.534339 0.679002 0.433813 0.740767 0.445381 0.678614 0.535481 0.583497 0.325707 0.594077 0.368363 0.521065 0.337951 0.775117 0.326345 0.837366 0.338846 0.764324 0.368909 0.533401 0.462758 0.591898 0.534339 0.555989 0.538296 0.533401 0.462758 0.492659 0.415376 0.594077 0.368363 0.594077 0.368363 0.492659 0.415376 0.521065 0.337951 0.631745 0.534005 0.678614 0.535481 0.620831 0.588583 0.631745 0.534005 0.620831 0.588583 0.591898 0.534339 0.740767 0.445381 0.764324 0.368909 0.824605 0.463737 0.740767 0.445381 0.725501 0.534369 0.678614 0.535481 0.740767 0.445381 0.824605 0.463737 0.765367 0.535022 0.740767 0.445381 0.765367 0.535022 0.725501 0.534369 0.837366 0.338846 0.865681 0.416367 0.764324 0.368909 0.837366 0.338846 0.924171 0.403426 0.865681 0.416367 0.837366 0.338846 0.934103 0.366063 0.924171 0.403426 0.865681 0.416367 0.824605 0.463737 0.764324 0.368909 0.555989 0.538296 0.591898 0.534339 0.538377 0.61744 0.591898 0.534339 0.620831 0.588583 0.538377 0.61744 0.492659 0.415376 0.434174 0.402527 0.521065 0.337951 0.678614 0.535481 0.725501 0.534369 0.735953 0.58904 0.678614 0.535481 0.678413 0.583833 0.620831 0.588583 0.678614 0.535481 0.735953 0.58904 0.678413 0.583833 0.725501 0.534369 0.765367 0.535022 0.735953 0.58904 0.934103 0.366063 0.989072 0.413943 0.924171 0.403426 0.824605 0.463737 0.801261 0.539283 0.765367 0.535022 0.538377 0.61744 0.620831 0.588583 0.619497 0.635258 0.538377 0.61744 0.619497 0.635258 0.608643 0.704366 0.538377 0.61744 0.608643 0.704366 0.501557 0.670162 0.620831 0.588583 0.678413 0.583833 0.619497 0.635258 0.434174 0.402527 0.424186 0.365115 0.521065 0.337951 0.434174 0.402527 0.369098 0.413275 0.424186 0.365115 0.735953 0.58904 0.765367 0.535022 0.818119 0.618572 0.735953 0.58904 0.736896 0.635723 0.678413 0.583833 0.735953 0.58904 0.818119 0.618572 0.736896 0.635723 0.765367 0.535022 0.801261 0.539283 0.818119 0.618572 0.608643 0.704366 0.58889 0.760812 0.501557 0.670162 0.608643 0.704366 0.619497 0.635258 0.677874 0.717541 0.608643 0.704366 0.677651 0.776535 0.58889 0.760812 0.608643 0.704366 0.677874 0.717541 0.677651 0.776535 0.678413 0.583833 0.736896 0.635723 0.678167 0.643457 0.678413 0.583833 0.678167 0.643457 0.619497 0.635258 0.678167 0.643457 0.677874 0.717541 0.619497 0.635258 0.678167 0.643457 0.736896 0.635723 0.677874 0.717541 0.818119 0.618572 0.747194 0.704899 0.736896 0.635723 0.818119 0.618572 0.854496 0.671532 0.747194 0.704899 0.677874 0.717541 0.747194 0.704899 0.677651 0.776535 0.677874 0.717541 0.736896 0.635723 0.747194 0.704899 0.501557 0.670162 0.58889 0.760812 0.448575 0.698975 0.854496 0.671532 0.766507 0.761474 0.747194 0.704899 0.854496 0.671532 0.907247 0.700732 0.766507 0.761474 0.747194 0.704899 0.766507 0.761474 0.677651 0.776535 0.58889 0.760812 0.448047 0.738152 0.448575 0.698975 0.58889 0.760812 0.677651 0.776535 0.67755 0.804702 0.58889 0.760812 0.574745 0.786786 0.448047 0.738152 0.58889 0.760812 0.67755 0.804702 0.574745 0.786786 0.677651 0.776535 0.766507 0.761474 0.67755 0.804702 0.907247 0.700732 0.907462 0.739908 0.766507 0.761474 0.907247 0.700732 0.965996 0.713158 0.907462 0.739908 0.448575 0.698975 0.448047 0.738152 0.389772 0.710802 0.67755 0.804702 0.766507 0.761474 0.780454 0.787543 0.780454 0.787543 0.766507 0.761474 0.907462 0.739908 0.678878 0.18211 0.678878 0.252439 0.622822 0.246708 0.678878 0.18211 0.734933 0.246707 0.678878 0.252439 0.678878 0.18211 0.622822 0.246708 0.634736 0.185473 0.678878 0.18211 0.72302 0.185473 0.734933 0.246707 0.678878 0.18211 0.634736 0.185473 0.635065 0.144266 0.678878 0.18211 0.72269 0.1442649 0.72302 0.185473 0.678878 0.18211 0.635065 0.144266 0.678879 0.121103 0.678878 0.18211 0.678879 0.121103 0.72269 0.1442649 0.622822 0.246708 0.581751 0.179825 0.634736 0.185473 0.622822 0.246708 0.566125 0.2349799 0.581751 0.179825 0.634736 0.185473 0.581751 0.179825 0.635065 0.144266 0.734933 0.246707 0.72302 0.185473 0.776004 0.179825 0.734933 0.246707 0.776004 0.179825 0.791628 0.2349799 0.72302 0.185473 0.72269 0.1442649 0.776004 0.179825 0.678879 0.121103 0.635065 0.144266 0.63253 0.08194118 0.678879 0.121103 0.725215 0.0819438 0.72269 0.1442649 0.678879 0.121103 0.63253 0.08194118 0.678884 0.0536645 0.678879 0.121103 0.678884 0.0536645 0.725215 0.0819438 0.566125 0.2349799 0.49918 0.208103 0.581751 0.179825 0.791628 0.2349799 0.776004 0.179825 0.858573 0.208103 0.635065 0.144266 0.581313 0.116306 0.63253 0.08194118 0.635065 0.144266 0.581751 0.179825 0.581313 0.116306 0.72269 0.1442649 0.725215 0.0819438 0.776445 0.116306 0.72269 0.1442649 0.776445 0.116306 0.776004 0.179825 0.678884 0.0536645 0.63253 0.08194118 0.678874 0.008098423 0.678884 0.0536645 0.678874 0.008098423 0.725215 0.0819438 0.49918 0.208103 0.522544 0.141627 0.581751 0.179825 0.49918 0.208103 0.464173 0.164099 0.522544 0.141627 0.49918 0.208103 0.395004 0.175651 0.464173 0.164099 0.581751 0.179825 0.522544 0.141627 0.581313 0.116306 0.858573 0.208103 0.776004 0.179825 0.83521 0.141627 0.858573 0.208103 0.83521 0.141627 0.893581 0.164098 0.858573 0.208103 0.893581 0.164098 0.962753 0.175651 0.776004 0.179825 0.776445 0.116306 0.83521 0.141627 0.63253 0.08194118 0.6114 0.04010701 0.678874 0.008098423 0.63253 0.08194118 0.581313 0.116306 0.6114 0.04010701 0.725215 0.0819438 0.746361 0.04010522 0.776445 0.116306 0.725215 0.0819438 0.678874 0.008098423 0.746361 0.04010522 0.395004 0.175651 0.444818 0.118472 0.464173 0.164099 0.395004 0.175651 0.390612 0.132578 0.444818 0.118472 0.522544 0.141627 0.547662 0.06638509 0.581313 0.116306 0.522544 0.141627 0.464173 0.164099 0.492122 0.09989607 0.522544 0.141627 0.492122 0.09989607 0.547662 0.06638509 0.547662 0.06638509 0.6114 0.04010701 0.581313 0.116306 0.492122 0.09989607 0.464173 0.164099 0.444818 0.118472 0.893581 0.164098 0.912937 0.118472 0.962753 0.175651 0.893581 0.164098 0.83521 0.141627 0.865633 0.09989589 0.893581 0.164098 0.865633 0.09989589 0.912937 0.118472 0.776445 0.116306 0.746361 0.04010522 0.810091 0.06638467 0.776445 0.116306 0.810091 0.06638467 0.83521 0.141627 0.83521 0.141627 0.810091 0.06638467 0.865633 0.09989589 0.962753 0.175651 0.912937 0.118472 0.967143 0.132578 0.20608 0.559087 0.223818 0.534729 0.279246 0.586341 0.20608 0.559087 0.169282 0.48295 0.223818 0.534729 0.20608 0.559087 0.279246 0.586341 0.26677 0.603099 0.20608 0.559087 0.1408399 0.509828 0.169282 0.48295 0.20608 0.559087 0.26677 0.603099 0.25495 0.621504 0.20608 0.559087 0.124975 0.546014 0.1408399 0.509828 0.20608 0.559087 0.25495 0.621504 0.189662 0.585429 0.20608 0.559087 0.189662 0.585429 0.124975 0.546014 0.223818 0.534729 0.253381 0.515774 0.279246 0.586341 0.223818 0.534729 0.169282 0.48295 0.213099 0.463607 0.223818 0.534729 0.213099 0.463607 0.253381 0.515774 0.26677 0.603099 0.324265 0.651647 0.25495 0.621504 0.26677 0.603099 0.279246 0.586341 0.324265 0.651647 0.1408399 0.509828 0.124975 0.546014 0.07082206 0.524067 0.1408399 0.509828 0.1295109 0.447231 0.169282 0.48295 0.1408399 0.509828 0.07082206 0.524067 0.09434908 0.47934 0.1408399 0.509828 0.09434908 0.47934 0.1295109 0.447231 0.189662 0.585429 0.25495 0.621504 0.182074 0.618217 0.189662 0.585429 0.121556 0.597795 0.124975 0.546014 0.189662 0.585429 0.182074 0.618217 0.121556 0.597795 0.213099 0.463607 0.268281 0.456593 0.253381 0.515774 0.213099 0.463607 0.169282 0.48295 0.188124 0.421408 0.213099 0.463607 0.251294 0.420949 0.268281 0.456593 0.213099 0.463607 0.188124 0.421408 0.251294 0.420949 0.169282 0.48295 0.1295109 0.447231 0.188124 0.421408 0.279246 0.586341 0.334809 0.638542 0.324265 0.651647 0.279246 0.586341 0.253381 0.515774 0.29808 0.572083 0.279246 0.586341 0.29808 0.572083 0.334809 0.638542 0.07082206 0.524067 0.05691176 0.451371 0.09434908 0.47934 0.07082206 0.524067 0.124975 0.546014 0.0728268 0.590683 0.07082206 0.524067 0.03033047 0.523427 0.05691176 0.451371 0.07082206 0.524067 0.0728268 0.590683 0.03033047 0.523427 0.124975 0.546014 0.121556 0.597795 0.0728268 0.590683 0.09434908 0.47934 0.05691176 0.451371 0.1295109 0.447231 0.25495 0.621504 0.2474 0.642014 0.182074 0.618217 0.25495 0.621504 0.324265 0.651647 0.2474 0.642014 0.268281 0.456593 0.251294 0.420949 0.324782 0.409038 0.268281 0.456593 0.300049 0.505889 0.253381 0.515774 0.268281 0.456593 0.324782 0.409038 0.333253 0.452491 0.268281 0.456593 0.333253 0.452491 0.300049 0.505889 0.253381 0.515774 0.300049 0.505889 0.29808 0.572083 0.188124 0.421408 0.1295109 0.447231 0.112158 0.405053 0.188124 0.421408 0.2484109 0.39269 0.251294 0.420949 0.188124 0.421408 0.112158 0.405053 0.177012 0.388583 0.188124 0.421408 0.177012 0.388583 0.2484109 0.39269 0.2484109 0.39269 0.324782 0.409038 0.251294 0.420949 0.112158 0.405053 0.1295109 0.447231 0.05691176 0.451371 0.334809 0.638542 0.341193 0.653526 0.324265 0.651647 0.334809 0.638542 0.29808 0.572083 0.327582 0.56121 0.334809 0.638542 0.327582 0.56121 0.351855 0.632724 0.334809 0.638542 0.351855 0.632724 0.349388 0.646325 0.29808 0.572083 0.300049 0.505889 0.327582 0.56121 0.03033047 0.523427 0.0728268 0.590683 0.03808057 0.59095 0.121556 0.597795 0.182074 0.618217 0.131278 0.651747 0.121556 0.597795 0.0912857 0.647483 0.0728268 0.590683 0.121556 0.597795 0.131278 0.651747 0.0912857 0.647483 0.2474 0.642014 0.324265 0.651647 0.319287 0.668779 0.2474 0.642014 0.187187 0.665322 0.182074 0.618217 0.2474 0.642014 0.319287 0.668779 0.247417 0.672751 0.2474 0.642014 0.247417 0.672751 0.187187 0.665322 0.182074 0.618217 0.187187 0.665322 0.131278 0.651747 0.333253 0.452491 0.347951 0.499527 0.300049 0.505889 0.300049 0.505889 0.347951 0.499527 0.327582 0.56121 0.351855 0.632724 0.327582 0.56121 0.359172 0.553014 0.359172 0.553014 0.327582 0.56121 0.347951 0.499527 0.03808057 0.59095 0.0728268 0.590683 0.06850796 0.655715 0.0728268 0.590683 0.0912857 0.647483 0.06850796 0.655715 0.324265 0.651647 0.334002 0.66573 0.319287 0.668779 0.247417 0.672751 0.19278 0.716187 0.187187 0.665322 0.247417 0.672751 0.319287 0.668779 0.247532 0.708442 0.247417 0.672751 0.247532 0.708442 0.19278 0.716187 0.131278 0.651747 0.100358 0.727314 0.0912857 0.647483 0.131278 0.651747 0.187187 0.665322 0.143252 0.717171 0.131278 0.651747 0.143252 0.717171 0.100358 0.727314 0.100358 0.727314 0.06850796 0.655715 0.0912857 0.647483 0.143252 0.717171 0.187187 0.665322 0.19278 0.716187 0.319287 0.668779 0.322032 0.68718 0.247532 0.708442 0.319287 0.668779 0.331837 0.677396 0.322032 0.68718 0.1650789 0.182924 0.09021186 0.210705 0.146912 0.158004 0.1650789 0.182924 0.103064 0.227873 0.09021186 0.210705 0.1650789 0.182924 0.146912 0.158004 0.203285 0.104795 0.1650789 0.182924 0.115206 0.246776 0.103064 0.227873 0.1650789 0.182924 0.203285 0.104795 0.232414 0.132172 0.1650789 0.182924 0.181914 0.209858 0.115206 0.246776 0.1650789 0.182924 0.232414 0.132172 0.248606 0.169147 0.1650789 0.182924 0.248606 0.169147 0.181914 0.209858 0.09021186 0.210705 0.116554 0.138525 0.146912 0.158004 0.09021186 0.210705 0.103064 0.227873 0.0439887 0.277868 0.09021186 0.210705 0.07087147 0.196104 0.116554 0.138525 0.09021186 0.210705 0.0439887 0.277868 0.03322809 0.264577 0.09021186 0.210705 0.03322809 0.264577 0.07087147 0.196104 0.103064 0.227873 0.115206 0.246776 0.0439887 0.277868 0.203285 0.104795 0.244122 0.06735551 0.232414 0.132172 0.203285 0.104795 0.146912 0.158004 0.15832 0.08489811 0.203285 0.104795 0.1837159 0.04160088 0.244122 0.06735551 0.203285 0.104795 0.15832 0.08489811 0.1837159 0.04160088 0.146912 0.158004 0.116554 0.138525 0.15832 0.08489811 0.248606 0.169147 0.25203 0.222325 0.181914 0.209858 0.248606 0.169147 0.232414 0.132172 0.304324 0.14702 0.248606 0.169147 0.301623 0.21521 0.25203 0.222325 0.248606 0.169147 0.304324 0.14702 0.301623 0.21521 0.03322809 0.264577 0.04072254 0.184984 0.07087147 0.196104 0.03322809 0.264577 0.0439887 0.277868 0.02668905 0.27989 0.03322809 0.264577 0.01580816 0.258593 0.04072254 0.184984 0.03322809 0.264577 0.01825827 0.272549 0.01580816 0.258593 0.115206 0.246776 0.181914 0.209858 0.189746 0.243508 0.115206 0.246776 0.122946 0.267852 0.0439887 0.277868 0.115206 0.246776 0.189746 0.243508 0.122946 0.267852 0.181914 0.209858 0.25203 0.222325 0.189746 0.243508 0.244122 0.06735551 0.1837159 0.04160088 0.261365 0.02559882 0.244122 0.06735551 0.280547 0.10057 0.232414 0.132172 0.244122 0.06735551 0.261365 0.02559882 0.316628 0.07356858 0.244122 0.06735551 0.316628 0.07356858 0.280547 0.10057 0.280547 0.10057 0.316628 0.07356858 0.304324 0.14702 0.280547 0.10057 0.304324 0.14702 0.232414 0.132172 0.116554 0.138525 0.101415 0.07754361 0.15832 0.08489811 0.116554 0.138525 0.07087147 0.196104 0.06869149 0.128189 0.116554 0.138525 0.06869149 0.128189 0.101415 0.07754361 0.07087147 0.196104 0.04072254 0.184984 0.06869149 0.128189 0.301623 0.21521 0.282741 0.273363 0.25203 0.222325 0.301623 0.21521 0.304324 0.14702 0.345412 0.146466 0.301623 0.21521 0.306 0.281726 0.282741 0.273363 0.301623 0.21521 0.345412 0.146466 0.337407 0.215341 0.301623 0.21521 0.337407 0.215341 0.306 0.281726 0.345412 0.146466 0.304324 0.14702 0.316628 0.07356858 0.01580816 0.258593 0.008525729 0.176475 0.04072254 0.184984 0.0439887 0.277868 0.122946 0.267852 0.04900389 0.295474 0.0439887 0.277868 0.04900389 0.295474 0.03391796 0.292288 0.189746 0.243508 0.25203 0.222325 0.242065 0.277899 0.189746 0.243508 0.184702 0.291917 0.122946 0.267852 0.189746 0.243508 0.242065 0.277899 0.184702 0.291917 0.25203 0.222325 0.282741 0.273363 0.242065 0.277899 0.1837159 0.04160088 0.195185 0.007680356 0.261365 0.02559882 0.1837159 0.04160088 0.15832 0.08489811 0.119004 0.04107332 0.1837159 0.04160088 0.1223379 0.0127061 0.195185 0.007680356 0.1837159 0.04160088 0.119004 0.04107332 0.1223379 0.0127061 0.15832 0.08489811 0.101415 0.07754361 0.119004 0.04107332 0.06869149 0.128189 0.04072254 0.184984 0.01982969 0.121659 0.06869149 0.128189 0.0347262 0.0733447 0.101415 0.07754361 0.06869149 0.128189 0.01982969 0.121659 0.0347262 0.0733447 0.01982969 0.121659 0.04072254 0.184984 0.008525729 0.176475 0.306 0.281726 0.273694 0.355435 0.282741 0.273363 0.282741 0.273363 0.273694 0.355435 0.242065 0.277899 0.04900389 0.295474 0.122946 0.267852 0.122966 0.29935 0.04900389 0.295474 0.122966 0.29935 0.122936 0.335804 0.04900389 0.295474 0.122936 0.335804 0.04629647 0.314218 0.04900389 0.295474 0.04629647 0.314218 0.03615576 0.304319 0.122946 0.267852 0.184702 0.291917 0.122966 0.29935 0.1223379 0.0127061 0.119004 0.04107332 0.04339146 0.02882277 0.04339146 0.02882277 0.119004 0.04107332 0.101415 0.07754361 0.04339146 0.02882277 0.101415 0.07754361 0.0347262 0.0733447 0.273694 0.355435 0.229836 0.345016 0.242065 0.277899 0.242065 0.277899 0.229836 0.345016 0.184702 0.291917 0.122936 0.335804 0.122966 0.29935 0.179065 0.343925 0.179065 0.343925 0.184702 0.291917 0.229836 0.345016 0.179065 0.343925 0.122966 0.29935 0.184702 0.291917 0.572476 0.895724 0.677761 0.910728 0.677598 0.948511 0.572476 0.895724 0.677955 0.869198 0.677761 0.910728 0.572476 0.895724 0.677598 0.948511 0.56179 0.93598 0.572476 0.895724 0.583984 0.85381 0.677955 0.869198 0.572476 0.895724 0.56179 0.93598 0.504693 0.920347 0.572476 0.895724 0.486729 0.861724 0.583984 0.85381 0.572476 0.895724 0.504693 0.920347 0.486729 0.861724 0.677761 0.910728 0.783063 0.89642 0.677598 0.948511 0.677761 0.910728 0.677955 0.869198 0.783063 0.89642 0.56179 0.93598 0.555263 0.955728 0.504693 0.920347 0.583984 0.85381 0.486729 0.861724 0.472052 0.800559 0.677598 0.948511 0.783063 0.89642 0.793031 0.936878 0.677598 0.948511 0.677524 0.96964 0.56179 0.93598 0.677598 0.948511 0.793031 0.936878 0.677524 0.96964 0.56179 0.93598 0.677524 0.96964 0.555263 0.955728 0.677955 0.869198 0.772416 0.854312 0.783063 0.89642 0.504693 0.920347 0.464526 0.868886 0.486729 0.861724 0.504693 0.920347 0.555263 0.955728 0.497708 0.930322 0.504693 0.920347 0.497708 0.930322 0.464526 0.868886 0.472052 0.800559 0.486729 0.861724 0.457378 0.840651 0.457378 0.840651 0.486729 0.861724 0.464526 0.868886 0.793031 0.936878 0.783063 0.89642 0.862011 0.902396 0.793031 0.936878 0.862011 0.902396 0.799796 0.956655 0.793031 0.936878 0.799796 0.956655 0.677524 0.96964 0.772416 0.854312 0.870208 0.864998 0.783063 0.89642 0.772416 0.854312 0.886829 0.804281 0.870208 0.864998 0.783063 0.89642 0.870208 0.864998 0.862011 0.902396 0.799796 0.956655 0.862011 0.902396 0.87268 0.926453 0.886829 0.804281 0.90022 0.844919 0.870208 0.864998 0.862011 0.902396 0.892381 0.872943 0.87268 0.926453 0.862011 0.902396 0.870208 0.864998 0.892381 0.872943 0.892381 0.872943 0.870208 0.864998 0.90022 0.844919 0.537731 0.539303 0.522947 0.61153 0.461697 0.557018 0.537731 0.539303 0.538377 0.61744 0.522947 0.61153 0.537731 0.539303 0.555989 0.538296 0.538377 0.61744 0.537731 0.539303 0.533401 0.462758 0.555989 0.538296 0.537731 0.539303 0.519414 0.470074 0.533401 0.462758 0.537731 0.539303 0.462986 0.519441 0.519414 0.470074 0.522947 0.61153 0.538377 0.61744 0.501557 0.670162 0.522947 0.61153 0.501557 0.670162 0.489122 0.660017 0.522947 0.61153 0.489122 0.660017 0.448345 0.58544 0.533401 0.462758 0.519414 0.470074 0.492659 0.415376 0.501557 0.670162 0.448575 0.698975 0.489122 0.660017 0.519414 0.470074 0.483981 0.428103 0.492659 0.415376 0.519414 0.470074 0.453085 0.494995 0.483981 0.428103 0.448575 0.698975 0.446298 0.688476 0.489122 0.660017 0.448575 0.698975 0.394084 0.688702 0.446298 0.688476 0.448575 0.698975 0.389772 0.710802 0.394084 0.688702 0.492659 0.415376 0.483981 0.428103 0.434174 0.402527 0.489122 0.660017 0.446298 0.688476 0.427269 0.606905 0.394084 0.688702 0.425809 0.607594 0.446298 0.688476 0.483981 0.428103 0.433793 0.418752 0.434174 0.402527 0.483981 0.428103 0.452829 0.492109 0.433793 0.418752 0.434174 0.402527 0.433793 0.418752 0.379356 0.434166 0.434174 0.402527 0.379356 0.434166 0.369098 0.413275 0.433793 0.418752 0.443905 0.495961 0.379356 0.434166 0.819522 0.540459 0.895364 0.558928 0.83358 0.612804 0.819522 0.540459 0.83358 0.612804 0.818119 0.618572 0.819522 0.540459 0.818119 0.618572 0.801261 0.539283 0.819522 0.540459 0.801261 0.539283 0.824605 0.463737 0.819522 0.540459 0.824605 0.463737 0.838623 0.471185 0.819522 0.540459 0.838623 0.471185 0.894733 0.521316 0.83358 0.612804 0.854496 0.671532 0.818119 0.618572 0.83358 0.612804 0.866974 0.661482 0.854496 0.671532 0.83358 0.612804 0.908273 0.587314 0.866974 0.661482 0.824605 0.463737 0.865681 0.416367 0.838623 0.471185 0.854496 0.671532 0.866974 0.661482 0.907247 0.700732 0.865681 0.416367 0.874412 0.429161 0.838623 0.471185 0.865681 0.416367 0.924171 0.403426 0.874412 0.429161 0.866974 0.661482 0.909658 0.690233 0.907247 0.700732 0.866974 0.661482 0.929182 0.608691 0.909658 0.690233 0.838623 0.471185 0.874412 0.429161 0.90511 0.4965 0.924171 0.403426 0.924602 0.419614 0.874412 0.429161 0.924171 0.403426 0.978886 0.434755 0.924602 0.419614 0.924171 0.403426 0.989072 0.413943 0.978886 0.434755 0.907247 0.700732 0.909658 0.690233 0.961952 0.691004 0.907247 0.700732 0.961952 0.691004 0.965996 0.713158 0.874412 0.429161 0.924602 0.419614 0.905983 0.493076 0.978886 0.434755 0.914984 0.49655 0.924602 0.419614 0.909658 0.690233 0.931039 0.609425 0.961952 0.691004</float_array>
          <technique_common>
            <accessor source="#Hat_Root__miiFighterH24A-mesh-map-0-array" count="1518" stride="2">
              <param name="S" type="float"/>
              <param name="T" type="float"/>
            </accessor>
          </technique_common>
        </source>
        <vertices id="Hat_Root__miiFighterH24A-mesh-vertices">
          <input semantic="POSITION" source="#Hat_Root__miiFighterH24A-mesh-positions"/>
        </vertices>
        <triangles material="miiFighterH24A-material" count="506">
          <input semantic="VERTEX" source="#Hat_Root__miiFighterH24A-mesh-vertices" offset="0"/>
          <input semantic="NORMAL" source="#Hat_Root__miiFighterH24A-mesh-normals" offset="1"/>
          <input semantic="TEXCOORD" source="#Hat_Root__miiFighterH24A-mesh-map-0" offset="2" set="0"/>
          <p>0 0 0 1 1 1 2 2 2 0 0 3 3 3 4 1 1 5 0 0 6 2 2 7 4 4 8 0 0 9 5 5 10 3 3 11 0 0 12 4 4 13 6 6 14 0 0 15 7 7 16 5 5 17 0 0 18 6 6 19 8 8 20 0 0 21 9 9 22 7 7 23 0 0 24 8 8 25 10 10 26 0 0 27 11 11 28 9 9 29 0 0 30 10 10 31 12 12 32 0 0 33 13 13 34 11 11 35 0 0 36 12 12 37 14 14 38 0 0 39 15 15 40 13 13 41 0 0 42 14 14 43 16 16 44 0 0 45 17 17 46 15 15 47 0 0 48 16 16 49 18 18 50 0 0 51 19 19 52 17 17 53 0 0 54 18 18 55 20 20 56 0 0 57 21 21 58 19 19 59 0 0 60 20 20 61 22 22 62 0 0 63 22 22 64 21 21 65 23 23 66 24 24 67 25 25 68 23 23 69 26 26 70 24 24 71 23 23 72 25 25 73 27 27 74 23 23 75 28 28 76 26 26 77 23 23 78 27 27 79 29 29 80 23 23 81 30 30 82 28 28 83 23 23 84 29 29 85 31 31 86 23 23 87 32 32 88 30 30 89 23 23 90 31 31 91 33 33 92 23 23 93 34 34 94 32 32 95 23 23 96 33 33 97 35 35 98 23 23 99 35 35 100 34 34 101 25 25 102 36 36 103 27 27 104 25 25 105 37 37 106 36 36 107 27 27 108 36 36 109 29 29 110 26 26 111 28 28 112 38 38 113 26 26 114 38 38 115 39 39 116 28 28 117 30 30 118 38 38 119 31 31 120 40 40 121 33 33 122 31 31 123 29 29 124 41 41 125 31 31 126 41 41 127 40 40 128 29 29 129 36 36 130 41 41 131 32 32 132 34 34 133 42 42 134 32 32 135 43 43 136 30 30 137 32 32 138 42 42 139 43 43 140 30 30 141 43 43 142 38 38 143 35 35 144 33 33 145 44 44 146 35 35 147 45 45 148 34 34 149 35 35 150 44 44 151 45 45 152 34 34 153 45 45 154 42 42 155 37 37 156 46 46 157 36 36 158 39 39 159 38 38 160 47 47 161 38 38 162 43 43 163 47 47 164 40 40 165 41 41 166 48 48 167 40 40 168 49 49 169 33 33 170 40 40 171 48 48 172 50 50 173 40 40 174 50 50 175 49 49 176 33 33 177 49 49 178 44 44 179 45 45 180 51 51 181 42 42 182 45 45 183 44 44 184 52 52 185 45 45 186 52 52 187 51 51 188 52 52 189 49 49 190 50 50 191 52 52 192 44 44 193 49 49 194 46 46 195 53 53 196 36 36 197 53 53 198 41 41 199 36 36 200 53 53 201 48 48 202 41 41 203 43 43 204 54 54 205 47 47 206 43 43 207 42 42 208 55 55 209 43 43 210 55 55 211 54 54 212 55 55 213 42 42 214 51 51 215 56 56 216 57 57 217 58 58 218 56 56 219 59 59 220 57 57 221 56 56 222 58 58 223 60 60 224 56 56 225 61 61 226 59 59 227 56 56 228 60 60 229 62 62 230 56 56 231 63 63 232 61 61 233 56 56 234 62 62 235 64 64 236 56 56 237 65 65 238 63 63 239 56 56 240 64 64 241 66 66 242 56 56 243 67 67 244 65 65 245 56 56 246 66 66 247 68 68 248 56 56 249 68 68 250 67 67 251 57 57 252 69 69 253 58 58 254 57 57 255 59 59 256 70 70 257 57 57 258 70 70 259 69 69 260 58 58 261 69 69 262 60 60 263 61 61 264 63 63 265 71 71 266 61 61 267 72 72 268 59 59 269 61 61 270 71 71 271 73 73 272 61 61 273 73 73 274 72 72 275 59 59 276 72 72 277 70 70 278 64 64 279 74 74 280 66 66 281 64 64 282 75 75 283 74 74 284 66 66 285 74 74 286 68 68 287 65 65 288 67 67 289 76 76 290 65 65 291 77 77 292 63 63 293 65 65 294 76 76 295 77 77 296 63 63 297 77 77 298 71 71 299 69 69 300 78 78 301 60 60 302 69 69 303 70 70 304 79 79 305 69 69 306 80 80 307 78 78 308 69 69 309 79 79 310 80 80 311 73 73 312 81 81 313 72 72 314 73 73 315 71 71 316 82 82 317 73 73 318 82 82 319 81 81 320 71 71 321 77 77 322 82 82 323 75 75 324 83 83 325 74 74 326 68 68 327 84 84 328 67 67 329 68 68 330 74 74 331 84 84 332 74 74 333 83 83 334 84 84 335 67 67 336 84 84 337 76 76 338 70 70 339 85 85 340 79 79 341 70 70 342 72 72 343 85 85 344 85 85 345 72 72 346 81 81 347 77 77 348 86 86 349 82 82 350 77 77 351 76 76 352 86 86 353 83 83 354 87 87 355 84 84 356 76 76 357 88 88 358 86 86 359 76 76 360 84 84 361 88 88 362 88 88 363 84 84 364 87 87 365 89 89 366 90 90 367 91 91 368 89 89 369 92 92 370 90 90 371 89 89 372 91 91 373 93 93 374 89 89 375 93 93 376 94 94 377 89 89 378 94 94 379 95 95 380 89 89 381 95 95 382 96 96 383 89 89 384 96 96 385 97 97 386 89 89 387 97 97 388 98 98 389 89 89 390 98 98 391 99 99 392 89 89 393 99 99 394 100 100 395 101 101 396 102 102 397 103 103 398 101 101 399 104 104 400 102 102 401 101 101 402 103 103 403 105 105 404 101 101 405 106 106 406 104 104 407 101 101 408 107 107 409 106 106 410 101 101 411 108 108 412 107 107 413 101 101 414 109 109 415 108 108 416 101 101 417 110 110 418 109 109 419 101 101 420 111 111 421 110 110 422 101 101 423 112 112 424 111 111 425 113 113 426 114 114 427 115 115 428 113 113 429 116 116 430 114 114 431 113 113 432 115 115 433 117 117 434 113 113 435 118 118 436 116 116 437 113 113 438 117 117 439 119 119 440 113 113 441 120 120 442 118 118 443 113 113 444 119 119 445 121 121 446 113 113 447 121 121 448 120 120 449 114 114 450 116 116 451 122 122 452 117 117 453 123 123 454 119 119 455 118 118 456 120 120 457 124 124 458 118 118 459 125 125 460 116 116 461 118 118 462 124 124 463 126 126 464 118 118 465 127 127 466 125 125 467 118 118 468 126 126 469 127 127 470 120 120 471 121 121 472 124 124 473 122 122 474 116 116 475 128 128 476 123 123 477 129 129 478 119 119 479 125 125 480 127 127 481 130 130 482 125 125 483 131 131 484 116 116 485 116 116 486 131 131 487 128 128 488 126 126 489 124 124 490 132 132 491 126 126 492 132 132 493 127 127 494 121 121 495 119 119 496 133 133 497 121 121 498 134 134 499 124 124 500 121 121 501 133 133 502 135 135 503 121 121 504 135 135 505 134 134 506 129 129 507 136 136 508 119 119 509 129 129 510 137 137 511 136 136 512 129 129 513 138 138 514 137 137 515 136 136 516 133 133 517 119 119 518 130 130 519 127 127 520 139 139 521 127 127 522 132 132 523 139 139 524 131 131 525 140 140 526 128 128 527 124 124 528 134 134 529 141 141 530 124 124 531 142 142 532 132 132 533 124 124 534 141 141 535 142 142 536 134 134 537 135 135 538 141 141 539 138 138 540 143 143 541 137 137 542 133 133 543 144 144 544 135 135 545 139 139 546 132 132 547 145 145 548 139 139 549 145 145 550 146 146 551 139 139 552 146 146 553 147 147 554 132 132 555 142 142 556 145 145 557 140 140 558 148 148 559 128 128 560 140 140 561 149 149 562 148 148 563 141 141 564 135 135 565 150 150 566 141 141 567 151 151 568 142 142 569 141 141 570 150 150 571 151 151 572 135 135 573 144 144 574 150 150 575 146 146 576 152 152 577 147 147 578 146 146 579 145 145 580 153 153 581 146 146 582 154 154 583 152 152 584 146 146 585 153 153 586 154 154 587 142 142 588 151 151 589 155 155 590 142 142 591 155 155 592 145 145 593 155 155 594 153 153 595 145 145 596 155 155 597 151 151 598 153 153 599 150 150 600 156 156 601 151 151 602 150 150 603 157 157 604 156 156 605 153 153 606 156 156 607 154 154 608 153 153 609 151 151 610 156 156 611 147 147 612 152 152 613 158 158 614 157 157 615 159 159 616 156 156 617 157 157 618 160 160 619 159 159 620 156 156 621 159 159 622 154 154 623 152 152 624 161 161 625 158 158 626 152 152 627 154 154 628 162 162 629 152 152 630 163 163 631 161 161 632 152 152 633 162 162 634 163 163 635 154 154 636 159 159 637 162 162 638 160 160 639 164 164 640 159 159 641 160 160 642 165 165 643 164 164 644 158 158 645 161 161 646 166 166 647 162 162 648 159 159 649 167 167 650 167 167 651 159 159 652 164 164 653 168 168 654 169 169 655 170 170 656 168 168 657 171 171 658 169 169 659 168 168 660 170 170 661 172 172 662 168 168 663 173 173 664 171 171 665 168 168 666 172 172 667 174 174 668 168 168 669 175 175 670 173 173 671 168 168 672 174 174 673 176 176 674 168 168 675 176 176 676 175 175 677 170 170 678 177 177 679 172 172 680 170 170 681 178 178 682 177 177 683 172 172 684 177 177 685 174 174 686 171 171 687 173 173 688 179 179 689 171 171 690 179 179 691 180 180 692 173 173 693 175 175 694 179 179 695 176 176 696 174 174 697 181 181 698 176 176 699 182 182 700 175 175 701 176 176 702 181 181 703 183 183 704 176 176 705 183 183 706 182 182 707 178 178 708 184 184 709 177 177 710 180 180 711 179 179 712 185 185 713 174 174 714 186 186 715 181 181 716 174 174 717 177 177 718 186 186 719 175 175 720 182 182 721 187 187 722 175 175 723 187 187 724 179 179 725 183 183 726 181 181 727 188 188 728 183 183 729 188 188 730 182 182 731 184 184 732 189 189 733 177 177 734 184 184 735 190 190 736 189 189 737 184 184 738 191 191 739 190 190 740 177 177 741 189 189 742 186 186 743 185 185 744 179 179 745 192 192 746 185 185 747 192 192 748 193 193 749 185 185 750 193 193 751 194 194 752 179 179 753 187 187 754 192 192 755 181 181 756 195 195 757 188 188 758 181 181 759 186 186 760 195 195 761 182 182 762 196 196 763 187 187 764 182 182 765 188 188 766 196 196 767 191 191 768 197 197 769 190 190 770 191 191 771 198 198 772 197 197 773 189 189 774 199 199 775 186 186 776 189 189 777 190 190 778 200 200 779 189 189 780 200 200 781 199 199 782 199 199 783 195 195 784 186 186 785 200 200 786 190 190 787 197 197 788 193 193 789 201 201 790 194 194 791 193 193 792 192 192 793 202 202 794 193 193 795 202 202 796 201 201 797 187 187 798 196 196 799 203 203 800 187 187 801 203 203 802 192 192 803 192 192 804 203 203 805 202 202 806 194 194 807 201 201 808 204 204 809 205 205 810 206 206 811 207 207 812 205 205 813 208 208 814 206 206 815 205 205 816 207 207 817 209 209 818 205 205 819 210 210 820 208 208 821 205 205 822 209 209 823 211 211 824 205 205 825 212 212 826 210 210 827 205 205 828 211 211 829 213 213 830 205 205 831 213 213 832 212 212 833 206 206 834 214 214 835 207 207 836 206 206 837 208 208 838 215 215 839 206 206 840 215 215 841 214 214 842 209 209 843 216 216 844 211 211 845 209 209 846 207 207 847 216 216 848 210 210 849 212 212 850 217 217 851 210 210 852 218 218 853 208 208 854 210 210 855 217 217 856 219 219 857 210 210 858 219 219 859 218 218 860 213 213 861 211 211 862 220 220 863 213 213 864 221 221 865 212 212 866 213 213 867 220 220 868 221 221 869 215 215 870 222 222 871 214 214 872 215 215 873 208 208 874 223 223 875 215 215 876 224 224 877 222 222 878 215 215 879 223 223 880 224 224 881 208 208 882 218 218 883 223 223 884 207 207 885 225 225 886 216 216 887 207 207 888 214 214 889 226 226 890 207 207 891 226 226 892 225 225 893 217 217 894 227 227 895 219 219 896 217 217 897 212 212 898 228 228 899 217 217 900 229 229 901 227 227 902 217 217 903 228 228 904 229 229 905 212 212 906 221 221 907 228 228 908 219 219 909 227 227 910 218 218 911 211 211 912 230 230 913 220 220 914 211 211 915 216 216 916 230 230 917 222 222 918 224 224 919 231 231 920 222 222 921 232 232 922 214 214 923 222 222 924 231 231 925 233 233 926 222 222 927 233 233 928 232 232 929 214 214 930 232 232 931 226 226 932 223 223 933 218 218 934 234 234 935 223 223 936 235 235 937 224 224 938 223 223 939 234 234 940 236 236 941 223 223 942 236 236 943 235 235 944 235 235 945 231 231 946 224 224 947 234 234 948 218 218 949 227 227 950 225 225 951 237 237 952 216 216 953 225 225 954 226 226 955 238 238 956 225 225 957 238 238 958 239 239 959 225 225 960 239 239 961 240 240 962 226 226 963 232 232 964 238 238 965 229 229 966 228 228 967 241 241 968 221 221 969 220 220 970 242 242 971 221 221 972 243 243 973 228 228 974 221 221 975 242 242 976 243 243 977 230 230 978 216 216 979 244 244 980 230 230 981 245 245 982 220 220 983 230 230 984 244 244 985 246 246 986 230 230 987 246 246 988 245 245 989 220 220 990 245 245 991 242 242 992 233 233 993 247 247 994 232 232 995 232 232 996 247 247 997 238 238 998 239 239 999 238 238 1000 248 248 1001 248 248 1002 238 238 1003 247 247 1004 241 241 1005 228 228 1006 249 249 1007 228 228 1008 243 243 1009 249 249 1010 216 216 1011 250 250 1012 244 244 1013 246 246 1014 251 251 1015 245 245 1016 246 246 1017 244 244 1018 252 252 1019 246 246 1020 252 252 1021 251 251 1022 242 242 1023 253 253 1024 243 243 1025 242 242 1026 245 245 1027 254 254 1028 242 242 1029 254 254 1030 253 253 1031 253 253 1032 249 249 1033 243 243 1034 254 254 1035 245 245 1036 251 251 1037 244 244 1038 255 255 1039 252 252 1040 244 244 1041 256 256 1042 255 255 1043 257 257 1044 258 258 1045 259 259 1046 257 257 1047 260 260 1048 258 258 1049 257 257 1050 259 259 1051 261 261 1052 257 257 1053 262 262 1054 260 260 1055 257 257 1056 261 261 1057 263 263 1058 257 257 1059 264 264 1060 262 262 1061 257 257 1062 263 263 1063 265 265 1064 257 257 1065 265 265 1066 264 264 1067 258 258 1068 266 266 1069 259 259 1070 258 258 1071 260 260 1072 267 267 1073 258 258 1074 268 268 1075 266 266 1076 258 258 1077 267 267 1078 269 269 1079 258 258 1080 269 269 1081 268 268 1082 260 260 1083 262 262 1084 267 267 1085 261 261 1086 270 270 1087 263 263 1088 261 261 1089 259 259 1090 271 271 1091 261 261 1092 272 272 1093 270 270 1094 261 261 1095 271 271 1096 272 272 1097 259 259 1098 266 266 1099 271 271 1100 265 265 1101 273 273 1102 264 264 1103 265 265 1104 263 263 1105 274 274 1106 265 265 1107 275 275 1108 273 273 1109 265 265 1110 274 274 1111 275 275 1112 269 269 1113 276 276 1114 268 268 1115 269 269 1116 267 267 1117 277 277 1118 269 269 1119 278 278 1120 276 276 1121 269 269 1122 279 279 1123 278 278 1124 262 262 1125 264 264 1126 280 280 1127 262 262 1128 281 281 1129 267 267 1130 262 262 1131 280 280 1132 281 281 1133 264 264 1134 273 273 1135 280 280 1136 270 270 1137 272 272 1138 282 282 1139 270 270 1140 283 283 1141 263 263 1142 270 270 1143 282 282 1144 284 284 1145 270 270 1146 284 284 1147 283 283 1148 283 283 1149 284 284 1150 274 274 1151 283 283 1152 274 274 1153 263 263 1154 266 266 1155 285 285 1156 271 271 1157 266 266 1158 268 268 1159 286 286 1160 266 266 1161 286 286 1162 285 285 1163 268 268 1164 276 276 1165 286 286 1166 275 275 1167 287 287 1168 273 273 1169 275 275 1170 274 274 1171 288 288 1172 275 275 1173 289 289 1174 287 287 1175 275 275 1176 288 288 1177 290 290 1178 275 275 1179 290 290 1180 289 289 1181 288 288 1182 274 274 1183 284 284 1184 278 278 1185 291 291 1186 276 276 1187 267 267 1188 281 281 1189 292 292 1190 267 267 1191 292 292 1192 293 293 1193 280 280 1194 273 273 1195 294 294 1196 280 280 1197 295 295 1198 281 281 1199 280 280 1200 294 294 1201 295 295 1202 273 273 1203 287 287 1204 294 294 1205 272 272 1206 296 296 1207 282 282 1208 272 272 1209 271 271 1210 297 297 1211 272 272 1212 298 298 1213 296 296 1214 272 272 1215 297 297 1216 298 298 1217 271 271 1218 285 285 1219 297 297 1220 286 286 1221 276 276 1222 299 299 1223 286 286 1224 300 300 1225 285 285 1226 286 286 1227 299 299 1228 300 300 1229 299 299 1230 276 276 1231 291 291 1232 289 289 1233 301 301 1234 287 287 1235 287 287 1236 301 301 1237 294 294 1238 292 292 1239 281 281 1240 302 302 1241 292 292 1242 302 302 1243 303 303 1244 292 292 1245 303 303 1246 304 304 1247 292 292 1248 304 304 1249 305 305 1250 281 281 1251 295 295 1252 302 302 1253 298 298 1254 297 297 1255 306 306 1256 306 306 1257 297 297 1258 285 285 1259 306 306 1260 285 285 1261 300 300 1262 301 301 1263 307 307 1264 294 294 1265 294 294 1266 307 307 1267 295 295 1268 303 303 1269 302 302 1270 308 308 1271 308 308 1272 295 295 1273 307 307 1274 308 308 1275 302 302 1276 295 295 1277 309 309 1278 310 310 1279 311 311 1280 309 309 1281 312 312 1282 310 310 1283 309 309 1284 311 311 1285 313 313 1286 309 309 1287 314 314 1288 312 312 1289 309 309 1290 313 313 1291 315 315 1292 309 309 1293 316 316 1294 314 314 1295 309 309 1296 315 315 1297 316 316 1298 310 310 1299 317 317 1300 311 311 1301 310 310 1302 312 312 1303 317 317 1304 313 313 1305 318 318 1306 315 315 1307 314 314 1308 316 316 1309 319 319 1310 311 311 1311 317 317 1312 320 320 1313 311 311 1314 321 321 1315 322 322 1316 311 311 1317 323 323 1318 321 321 1319 322 322 1320 321 321 1321 318 318 1322 312 312 1323 324 324 1324 317 317 1325 315 315 1326 325 325 1327 316 316 1328 315 315 1329 318 318 1330 326 326 1331 315 315 1332 326 326 1333 325 325 1334 319 319 1335 327 327 1336 328 328 1337 328 328 1338 327 327 1339 325 325 1340 320 320 1341 317 317 1342 329 329 1343 320 320 1344 329 329 1345 330 330 1346 323 323 1347 331 331 1348 321 321 1349 324 324 1350 332 332 1351 317 317 1352 324 324 1353 333 333 1354 332 332 1355 317 317 1356 332 332 1357 329 329 1358 330 330 1359 329 329 1360 334 334 1361 333 333 1362 335 335 1363 332 332 1364 329 329 1365 336 336 1366 334 334 1367 329 329 1368 332 332 1369 336 336 1370 336 336 1371 332 332 1372 335 335 1373 337 337 1374 338 338 1375 339 339 1376 337 337 1377 340 340 1378 338 338 1379 337 337 1380 341 341 1381 340 340 1382 337 337 1383 342 342 1384 341 341 1385 337 337 1386 343 343 1387 342 342 1388 337 337 1389 344 344 1390 343 343 1391 338 338 1392 340 340 1393 345 345 1394 338 338 1395 345 345 1396 346 346 1397 338 338 1398 346 346 1399 347 347 1400 342 342 1401 343 343 1402 348 348 1403 345 345 1404 349 349 1405 346 346 1406 343 343 1407 350 350 1408 348 348 1409 343 343 1410 351 351 1411 350 350 1412 349 349 1413 352 352 1414 346 346 1415 349 349 1416 353 353 1417 352 352 1418 349 349 1419 354 354 1420 353 353 1421 348 348 1422 350 350 1423 355 355 1424 346 346 1425 352 352 1426 356 356 1427 353 353 1428 357 357 1429 352 352 1430 350 350 1431 358 358 1432 355 355 1433 350 350 1434 359 359 1435 358 358 1436 355 355 1437 358 358 1438 360 360 1439 355 355 1440 360 360 1441 361 361 1442 358 358 1443 362 362 1444 360 360 1445 363 363 1446 364 364 1447 365 365 1448 363 363 1449 365 365 1450 366 366 1451 363 363 1452 366 366 1453 367 367 1454 363 363 1455 367 367 1456 368 368 1457 363 363 1458 368 368 1459 369 369 1460 363 363 1461 369 369 1462 370 370 1463 365 365 1464 371 371 1465 366 366 1466 365 365 1467 372 372 1468 371 371 1469 365 365 1470 373 373 1471 372 372 1472 368 368 1473 374 374 1474 369 369 1475 371 371 1476 372 372 1477 375 375 1478 374 374 1479 376 376 1480 369 369 1481 374 374 1482 377 377 1483 376 376 1484 372 372 1485 378 378 1486 375 375 1487 372 372 1488 379 379 1489 378 378 1490 369 369 1491 376 376 1492 380 380 1493 377 377 1494 381 381 1495 376 376 1496 377 377 1497 382 382 1498 381 381 1499 377 377 1500 383 383 1501 382 382 1502 375 375 1503 378 378 1504 384 384 1505 375 375 1506 384 384 1507 385 385 1508 376 376 1509 381 381 1510 386 386 1511 382 382 1512 387 387 1513 381 381 1514 378 378 1515 388 388 1516 384 384 1517</p>
        </triangles>
      </mesh>
    </geometry>
  </library_geometries>
  <library_controllers>
    <controller id="Armature_Hat_Root__miiFighterH24B-skin" name="Armature">
      <skin source="#Hat_Root__miiFighterH24B-mesh">
        <bind_shape_matrix>1 0 0 0 0 1 0 0 0 0 1 0 0 0 0 1</bind_shape_matrix>
        <source id="Armature_Hat_Root__miiFighterH24B-skin-joints">
          <Name_array id="Armature_Hat_Root__miiFighterH24B-skin-joints-array" count="1">Hat_Root</Name_array>
          <technique_common>
            <accessor source="#Armature_Hat_Root__miiFighterH24B-skin-joints-array" count="1" stride="1">
              <param name="JOINT" type="name"/>
            </accessor>
          </technique_common>
        </source>
        <source id="Armature_Hat_Root__miiFighterH24B-skin-bind_poses">
          <float_array id="Armature_Hat_Root__miiFighterH24B-skin-bind_poses-array" count="16">-7.19627e-6 1 1.62921e-7 0 0 -1.62921e-7 1 0 1 7.19627e-6 0 0 0 0 0 1</float_array>
          <technique_common>
            <accessor source="#Armature_Hat_Root__miiFighterH24B-skin-bind_poses-array" count="1" stride="16">
              <param name="TRANSFORM" type="float4x4"/>
            </accessor>
          </technique_common>
        </source>
        <source id="Armature_Hat_Root__miiFighterH24B-skin-weights">
          <float_array id="Armature_Hat_Root__miiFighterH24B-skin-weights-array" count="55">1 1 1 1 1 1 1 1 1 1 1 1 1 1 1 1 1 1 1 1 1 1 1 1 1 1 1 1 1 1 1 1 1 1 1 1 1 1 1 1 1 1 1 1 1 1 1 1 1 1 1 1 1 1 1</float_array>
          <technique_common>
            <accessor source="#Armature_Hat_Root__miiFighterH24B-skin-weights-array" count="55" stride="1">
              <param name="WEIGHT" type="float"/>
            </accessor>
          </technique_common>
        </source>
        <joints>
          <input semantic="JOINT" source="#Armature_Hat_Root__miiFighterH24B-skin-joints"/>
          <input semantic="INV_BIND_MATRIX" source="#Armature_Hat_Root__miiFighterH24B-skin-bind_poses"/>
        </joints>
        <vertex_weights count="55">
          <input semantic="JOINT" source="#Armature_Hat_Root__miiFighterH24B-skin-joints" offset="0"/>
          <input semantic="WEIGHT" source="#Armature_Hat_Root__miiFighterH24B-skin-weights" offset="1"/>
          <vcount>1 1 1 1 1 1 1 1 1 1 1 1 1 1 1 1 1 1 1 1 1 1 1 1 1 1 1 1 1 1 1 1 1 1 1 1 1 1 1 1 1 1 1 1 1 1 1 1 1 1 1 1 1 1 1 </vcount>
          <v>0 0 0 1 0 2 0 3 0 4 0 5 0 6 0 7 0 8 0 9 0 10 0 11 0 12 0 13 0 14 0 15 0 16 0 17 0 18 0 19 0 20 0 21 0 22 0 23 0 24 0 25 0 26 0 27 0 28 0 29 0 30 0 31 0 32 0 33 0 34 0 35 0 36 0 37 0 38 0 39 0 40 0 41 0 42 0 43 0 44 0 45 0 46 0 47 0 48 0 49 0 50 0 51 0 52 0 53 0 54</v>
        </vertex_weights>
      </skin>
    </controller>
    <controller id="Armature_Hat_Root__miiFighterH24A-skin" name="Armature">
      <skin source="#Hat_Root__miiFighterH24A-mesh">
        <bind_shape_matrix>1 0 0 0 0 1 0 0 0 0 1 0 0 0 0 1</bind_shape_matrix>
        <source id="Armature_Hat_Root__miiFighterH24A-skin-joints">
          <Name_array id="Armature_Hat_Root__miiFighterH24A-skin-joints-array" count="1">Hat_Root</Name_array>
          <technique_common>
            <accessor source="#Armature_Hat_Root__miiFighterH24A-skin-joints-array" count="1" stride="1">
              <param name="JOINT" type="name"/>
            </accessor>
          </technique_common>
        </source>
        <source id="Armature_Hat_Root__miiFighterH24A-skin-bind_poses">
          <float_array id="Armature_Hat_Root__miiFighterH24A-skin-bind_poses-array" count="16">-7.19627e-6 1 1.62921e-7 0 0 -1.62921e-7 1 0 1 7.19627e-6 0 0 0 0 0 1</float_array>
          <technique_common>
            <accessor source="#Armature_Hat_Root__miiFighterH24A-skin-bind_poses-array" count="1" stride="16">
              <param name="TRANSFORM" type="float4x4"/>
            </accessor>
          </technique_common>
        </source>
        <source id="Armature_Hat_Root__miiFighterH24A-skin-weights">
          <float_array id="Armature_Hat_Root__miiFighterH24A-skin-weights-array" count="389">1 1 1 1 1 1 1 1 1 1 1 1 1 1 1 1 1 1 1 1 1 1 1 1 1 1 1 1 1 1 1 1 1 1 1 1 1 1 1 1 1 1 1 1 1 1 1 1 1 1 1 1 1 1 1 1 1 1 1 1 1 1 1 1 1 1 1 1 1 1 1 1 1 1 1 1 1 1 1 1 1 1 1 1 1 1 1 1 1 1 1 1 1 1 1 1 1 1 1 1 1 1 1 1 1 1 1 1 1 1 1 1 1 1 1 1 1 1 1 1 1 1 1 1 1 1 1 1 1 1 1 1 1 1 1 1 1 1 1 1 1 1 1 1 1 1 1 1 1 1 1 1 1 1 1 1 1 1 1 1 1 1 1 1 1 1 1 1 1 1 1 1 1 1 1 1 1 1 1 1 1 1 1 1 1 1 1 1 1 1 1 1 1 1 1 1 1 1 1 1 1 1 1 1 1 1 1 1 1 1 1 1 1 1 1 1 1 1 1 1 1 1 1 1 1 1 1 1 1 1 1 1 1 1 1 1 1 1 1 1 1 1 1 1 1 1 1 1 1 1 1 1 1 1 1 1 1 1 1 1 1 1 1 1 1 1 1 1 1 1 1 1 1 1 1 1 1 1 1 1 1 1 1 1 1 1 1 1 1 1 1 1 1 1 1 1 1 1 1 1 1 1 1 1 1 1 1 1 1 1 1 1 1 1 1 1 1 1 1 1 1 1 1 1 1 1 1 1 1 1 1 1 1 1 1 1 1 1 1 1 1 1 1 1 1 1 1 1 1 1 1 1 1 1 1 1 1 1 1 1 1 1 1 1 1 1 1 1 1 1 1 1 1 1 1 1 1 1 1 1 1 1 1 1 1 1 1 1 1</float_array>
          <technique_common>
            <accessor source="#Armature_Hat_Root__miiFighterH24A-skin-weights-array" count="389" stride="1">
              <param name="WEIGHT" type="float"/>
            </accessor>
          </technique_common>
        </source>
        <joints>
          <input semantic="JOINT" source="#Armature_Hat_Root__miiFighterH24A-skin-joints"/>
          <input semantic="INV_BIND_MATRIX" source="#Armature_Hat_Root__miiFighterH24A-skin-bind_poses"/>
        </joints>
        <vertex_weights count="389">
          <input semantic="JOINT" source="#Armature_Hat_Root__miiFighterH24A-skin-joints" offset="0"/>
          <input semantic="WEIGHT" source="#Armature_Hat_Root__miiFighterH24A-skin-weights" offset="1"/>
          <vcount>1 1 1 1 1 1 1 1 1 1 1 1 1 1 1 1 1 1 1 1 1 1 1 1 1 1 1 1 1 1 1 1 1 1 1 1 1 1 1 1 1 1 1 1 1 1 1 1 1 1 1 1 1 1 1 1 1 1 1 1 1 1 1 1 1 1 1 1 1 1 1 1 1 1 1 1 1 1 1 1 1 1 1 1 1 1 1 1 1 1 1 1 1 1 1 1 1 1 1 1 1 1 1 1 1 1 1 1 1 1 1 1 1 1 1 1 1 1 1 1 1 1 1 1 1 1 1 1 1 1 1 1 1 1 1 1 1 1 1 1 1 1 1 1 1 1 1 1 1 1 1 1 1 1 1 1 1 1 1 1 1 1 1 1 1 1 1 1 1 1 1 1 1 1 1 1 1 1 1 1 1 1 1 1 1 1 1 1 1 1 1 1 1 1 1 1 1 1 1 1 1 1 1 1 1 1 1 1 1 1 1 1 1 1 1 1 1 1 1 1 1 1 1 1 1 1 1 1 1 1 1 1 1 1 1 1 1 1 1 1 1 1 1 1 1 1 1 1 1 1 1 1 1 1 1 1 1 1 1 1 1 1 1 1 1 1 1 1 1 1 1 1 1 1 1 1 1 1 1 1 1 1 1 1 1 1 1 1 1 1 1 1 1 1 1 1 1 1 1 1 1 1 1 1 1 1 1 1 1 1 1 1 1 1 1 1 1 1 1 1 1 1 1 1 1 1 1 1 1 1 1 1 1 1 1 1 1 1 1 1 1 1 1 1 1 1 1 1 1 1 1 1 1 1 1 1 1 1 1 1 1 1 1 1 1 1 1 1 1 1 1 1 1 1 1 1 1 1 1 1 1 1 1 1 1 1 1 1 1 </vcount>
          <v>0 0 0 1 0 2 0 3 0 4 0 5 0 6 0 7 0 8 0 9 0 10 0 11 0 12 0 13 0 14 0 15 0 16 0 17 0 18 0 19 0 20 0 21 0 22 0 23 0 24 0 25 0 26 0 27 0 28 0 29 0 30 0 31 0 32 0 33 0 34 0 35 0 36 0 37 0 38 0 39 0 40 0 41 0 42 0 43 0 44 0 45 0 46 0 47 0 48 0 49 0 50 0 51 0 52 0 53 0 54 0 55 0 56 0 57 0 58 0 59 0 60 0 61 0 62 0 63 0 64 0 65 0 66 0 67 0 68 0 69 0 70 0 71 0 72 0 73 0 74 0 75 0 76 0 77 0 78 0 79 0 80 0 81 0 82 0 83 0 84 0 85 0 86 0 87 0 88 0 89 0 90 0 91 0 92 0 93 0 94 0 95 0 96 0 97 0 98 0 99 0 100 0 101 0 102 0 103 0 104 0 105 0 106 0 107 0 108 0 109 0 110 0 111 0 112 0 113 0 114 0 115 0 116 0 117 0 118 0 119 0 120 0 121 0 122 0 123 0 124 0 125 0 126 0 127 0 128 0 129 0 130 0 131 0 132 0 133 0 134 0 135 0 136 0 137 0 138 0 139 0 140 0 141 0 142 0 143 0 144 0 145 0 146 0 147 0 148 0 149 0 150 0 151 0 152 0 153 0 154 0 155 0 156 0 157 0 158 0 159 0 160 0 161 0 162 0 163 0 164 0 165 0 166 0 167 0 168 0 169 0 170 0 171 0 172 0 173 0 174 0 175 0 176 0 177 0 178 0 179 0 180 0 181 0 182 0 183 0 184 0 185 0 186 0 187 0 188 0 189 0 190 0 191 0 192 0 193 0 194 0 195 0 196 0 197 0 198 0 199 0 200 0 201 0 202 0 203 0 204 0 205 0 206 0 207 0 208 0 209 0 210 0 211 0 212 0 213 0 214 0 215 0 216 0 217 0 218 0 219 0 220 0 221 0 222 0 223 0 224 0 225 0 226 0 227 0 228 0 229 0 230 0 231 0 232 0 233 0 234 0 235 0 236 0 237 0 238 0 239 0 240 0 241 0 242 0 243 0 244 0 245 0 246 0 247 0 248 0 249 0 250 0 251 0 252 0 253 0 254 0 255 0 256 0 257 0 258 0 259 0 260 0 261 0 262 0 263 0 264 0 265 0 266 0 267 0 268 0 269 0 270 0 271 0 272 0 273 0 274 0 275 0 276 0 277 0 278 0 279 0 280 0 281 0 282 0 283 0 284 0 285 0 286 0 287 0 288 0 289 0 290 0 291 0 292 0 293 0 294 0 295 0 296 0 297 0 298 0 299 0 300 0 301 0 302 0 303 0 304 0 305 0 306 0 307 0 308 0 309 0 310 0 311 0 312 0 313 0 314 0 315 0 316 0 317 0 318 0 319 0 320 0 321 0 322 0 323 0 324 0 325 0 326 0 327 0 328 0 329 0 330 0 331 0 332 0 333 0 334 0 335 0 336 0 337 0 338 0 339 0 340 0 341 0 342 0 343 0 344 0 345 0 346 0 347 0 348 0 349 0 350 0 351 0 352 0 353 0 354 0 355 0 356 0 357 0 358 0 359 0 360 0 361 0 362 0 363 0 364 0 365 0 366 0 367 0 368 0 369 0 370 0 371 0 372 0 373 0 374 0 375 0 376 0 377 0 378 0 379 0 380 0 381 0 382 0 383 0 384 0 385 0 386 0 387 0 388</v>
        </vertex_weights>
      </skin>
    </controller>
  </library_controllers>
  <library_visual_scenes>
    <visual_scene id="Scene" name="Scene">
      <node id="Armature" name="Armature" type="NODE">
        <matrix sid="transform">1 0 0 0 0 -1.62921e-7 -1 0 0 1 -1.62921e-7 0 0 0 0 1</matrix>
        <node id="Armature_Hat_Root" name="Hat_Root" sid="Hat_Root" type="JOINT">
          <matrix sid="transform">-7.19627e-6 0 1 0 0 0.9999999 0 0 -1 0 -7.19627e-6 0 0 0 0 1</matrix>
          <node id="Armature_FighterHat_1" name="FighterHat_1" sid="FighterHat_1" type="JOINT">
            <matrix sid="transform">1 0 -3.69549e-6 4.200001 0 1 0 7.600001 3.69549e-6 0 1 -1.25539e-5 0 0 0 1</matrix>
            <node id="Armature_FighterHat_2" name="FighterHat_2" sid="FighterHat_2" type="JOINT">
              <matrix sid="transform">1 0 -2.27374e-13 1.5 0 1 0 -5.72205e-6 2.27374e-13 0 1 -1.57928e-7 0 0 0 1</matrix>
              <node id="Armature_FighterHat_3" name="FighterHat_3" sid="FighterHat_3" type="JOINT">
                <matrix sid="transform">1 0 -2.27374e-13 2.6 0 1 0 -9.53674e-6 2.27374e-13 0 1 -2.73743e-7 0 0 0 1</matrix>
                <extra>
                  <technique profile="blender">
                    <layer sid="layer" type="string">0</layer>
                    <roll sid="roll" type="float">1.5708</roll>
                    <tip_x sid="tip_x" type="float">0</tip_x>
                    <tip_y sid="tip_y" type="float">1.5</tip_y>
                    <tip_z sid="tip_z" type="float">0</tip_z>
                  </technique>
                </extra>
              </node>
              <extra>
                <technique profile="blender">
                  <layer sid="layer" type="string">0</layer>
                  <roll sid="roll" type="float">1.5708</roll>
                  <tip_x sid="tip_x" type="float">0</tip_x>
                  <tip_y sid="tip_y" type="float">1.5</tip_y>
                  <tip_z sid="tip_z" type="float">0</tip_z>
                </technique>
              </extra>
            </node>
            <extra>
              <technique profile="blender">
                <layer sid="layer" type="string">0</layer>
                <roll sid="roll" type="float">1.5708</roll>
                <tip_x sid="tip_x" type="float">0</tip_x>
                <tip_y sid="tip_y" type="float">1.5</tip_y>
                <tip_z sid="tip_z" type="float">0</tip_z>
              </technique>
            </extra>
          </node>
          <extra>
            <technique profile="blender">
              <layer sid="layer" type="string">0</layer>
              <roll sid="roll" type="float">1.570803</roll>
              <tip_x sid="tip_x" type="float">0</tip_x>
              <tip_y sid="tip_y" type="float">1.5</tip_y>
              <tip_z sid="tip_z" type="float">0</tip_z>
            </technique>
          </extra>
        </node>
        <node id="Hat_Root__miiFighterH24A" name="Hat_Root__miiFighterH24A" type="NODE">
          <matrix sid="transform">1 0 0 0 0 1 0 0 0 0 1 0 0 0 0 1</matrix>
          <instance_controller url="#Armature_Hat_Root__miiFighterH24A-skin">
            <skeleton>#Armature_Hat_Root</skeleton>
            <bind_material>
              <technique_common>
                <instance_material symbol="miiFighterH24A-material" target="#miiFighterH24A-material">
                  <bind_vertex_input semantic="Hat_Root__miiFighterH24A-texcoord" input_semantic="TEXCOORD" input_set="0"/>
                </instance_material>
              </technique_common>
            </bind_material>
          </instance_controller>
        </node>
        <node id="Hat_Root__miiFighterH24B" name="Hat_Root__miiFighterH24B" type="NODE">
          <matrix sid="transform">1 0 0 0 0 1 0 0 0 0 1 0 0 0 0 1</matrix>
          <instance_controller url="#Armature_Hat_Root__miiFighterH24B-skin">
            <skeleton>#Armature_Hat_Root</skeleton>
            <bind_material>
              <technique_common>
                <instance_material symbol="miiFighterH24B-material" target="#miiFighterH24B-material">
                  <bind_vertex_input semantic="Hat_Root__miiFighterH24B-texcoord" input_semantic="TEXCOORD" input_set="0"/>
                </instance_material>
              </technique_common>
            </bind_material>
          </instance_controller>
        </node>
      </node>
    </visual_scene>
  </library_visual_scenes>
  <scene>
    <instance_visual_scene url="#Scene"/>
  </scene>
</COLLADA>