<?xml version="1.0" encoding="utf-8"?>
<COLLADA xmlns="http://www.collada.org/2005/11/COLLADASchema" version="1.4.1" xmlns:xsi="http://www.w3.org/2001/XMLSchema-instance">
  <asset>
    <contributor>
      <author>Blender User</author>
      <authoring_tool>Blender 3.0.1 commit date:2022-01-25, commit time:17:19, hash:dc2d18018171</authoring_tool>
    </contributor>
    <created>2026-03-20T12:30:24</created>
    <modified>2026-03-20T12:30:24</modified>
    <unit name="meter" meter="1"/>
    <up_axis>Z_UP</up_axis>
  </asset>
  <library_effects>
    <effect id="EnShadow-effect">
      <profile_COMMON>
        <newparam sid="EnShadow_png-surface">
          <surface type="2D">
            <init_from>EnShadow_png</init_from>
          </surface>
        </newparam>
        <newparam sid="EnShadow_png-sampler">
          <sampler2D>
            <source>EnShadow_png-surface</source>
          </sampler2D>
        </newparam>
        <technique sid="common">
          <lambert>
            <emission>
              <color sid="emission">0 0 0 1</color>
            </emission>
            <diffuse>
              <texture texture="EnShadow_png-sampler" texcoord="Shadow__EnShadow-texcoord"/>
            </diffuse>
            <index_of_refraction>
              <float sid="ior">1.45</float>
            </index_of_refraction>
          </lambert>
        </technique>
      </profile_COMMON>
    </effect>
    <effect id="EnFace00-effect">
      <profile_COMMON>
        <newparam sid="EnBothEye00_Dummy_png-surface">
          <surface type="2D">
            <init_from>EnBothEye00_Dummy_png</init_from>
          </surface>
        </newparam>
        <newparam sid="EnBothEye00_Dummy_png-sampler">
          <sampler2D>
            <source>EnBothEye00_Dummy_png-surface</source>
          </sampler2D>
        </newparam>
        <technique sid="common">
          <lambert>
            <emission>
              <color sid="emission">0 0 0 1</color>
            </emission>
            <diffuse>
              <texture texture="EnBothEye00_Dummy_png-sampler" texcoord="Skl_Root__EnFace00-texcoord"/>
            </diffuse>
            <index_of_refraction>
              <float sid="ior">1.45</float>
            </index_of_refraction>
          </lambert>
        </technique>
      </profile_COMMON>
    </effect>
    <effect id="EnShieldA-effect">
      <profile_COMMON>
        <newparam sid="EnShieldA_ALB_png-surface">
          <surface type="2D">
            <init_from>EnShieldA_ALB_png</init_from>
          </surface>
        </newparam>
        <newparam sid="EnShieldA_ALB_png-sampler">
          <sampler2D>
            <source>EnShieldA_ALB_png-surface</source>
          </sampler2D>
        </newparam>
        <technique sid="common">
          <lambert>
            <emission>
              <color sid="emission">0 0 0 1</color>
            </emission>
            <diffuse>
              <texture texture="EnShieldA_ALB_png-sampler" texcoord="Skl_Root__EnShieldA-texcoord"/>
            </diffuse>
            <index_of_refraction>
              <float sid="ior">1.45</float>
            </index_of_refraction>
          </lambert>
        </technique>
      </profile_COMMON>
    </effect>
  </library_effects>
  <library_images>
    <image id="EnBothEye00_Dummy_png" name="EnBothEye00_Dummy_png">
      <init_from>EnBothEye00_Dummy.png</init_from>
    </image>
    <image id="EnShadow_png" name="EnShadow_png">
      <init_from>EnShadow.png</init_from>
    </image>
    <image id="EnShieldA_ALB_png" name="EnShieldA_ALB_png">
      <init_from>EnShieldA_ALB.png</init_from>
    </image>
  </library_images>
  <library_materials>
    <material id="EnShadow-material" name="EnShadow">
      <instance_effect url="#EnShadow-effect"/>
    </material>
    <material id="EnFace00-material" name="EnFace00">
      <instance_effect url="#EnFace00-effect"/>
    </material>
    <material id="EnShieldA-material" name="EnShieldA">
      <instance_effect url="#EnShieldA-effect"/>
    </material>
  </library_materials>
  <library_geometries>
    <geometry id="Shadow__EnShadow-mesh" name="Shadow__EnShadow">
      <mesh>
        <source id="Shadow__EnShadow-mesh-positions">
          <float_array id="Shadow__EnShadow-mesh-positions-array" count="12">-4.01544 0.04999977 4.01544 4.01544 0.04999977 4.01544 -4.01544 0.04999977 -4.01544 4.01544 0.04999977 -4.01544</float_array>
          <technique_common>
            <accessor source="#Shadow__EnShadow-mesh-positions-array" count="4" stride="3">
              <param name="X" type="float"/>
              <param name="Y" type="float"/>
              <param name="Z" type="float"/>
            </accessor>
          </technique_common>
        </source>
        <source id="Shadow__EnShadow-mesh-normals">
          <float_array id="Shadow__EnShadow-mesh-normals-array" count="3">0 1 0</float_array>
          <technique_common>
            <accessor source="#Shadow__EnShadow-mesh-normals-array" count="1" stride="3">
              <param name="X" type="float"/>
              <param name="Y" type="float"/>
              <param name="Z" type="float"/>
            </accessor>
          </technique_common>
        </source>
        <source id="Shadow__EnShadow-mesh-map-0">
          <float_array id="Shadow__EnShadow-mesh-map-0-array" count="12">-0.009960234 -1.000946 1.99005 -1.000946 -0.009960234 0.9990638 -0.009960234 0.9990638 1.99005 -1.000946 1.99005 0.9990638</float_array>
          <technique_common>
            <accessor source="#Shadow__EnShadow-mesh-map-0-array" count="6" stride="2">
              <param name="S" type="float"/>
              <param name="T" type="float"/>
            </accessor>
          </technique_common>
        </source>
        <vertices id="Shadow__EnShadow-mesh-vertices">
          <input semantic="POSITION" source="#Shadow__EnShadow-mesh-positions"/>
        </vertices>
        <triangles material="EnShadow-material" count="2">
          <input semantic="VERTEX" source="#Shadow__EnShadow-mesh-vertices" offset="0"/>
          <input semantic="NORMAL" source="#Shadow__EnShadow-mesh-normals" offset="1"/>
          <input semantic="TEXCOORD" source="#Shadow__EnShadow-mesh-map-0" offset="2" set="0"/>
          <p>0 0 0 1 0 1 2 0 2 2 0 3 1 0 4 3 0 5</p>
        </triangles>
      </mesh>
    </geometry>
    <geometry id="Skl_Root__EnFace00-mesh" name="Skl_Root__EnFace00">
      <mesh>
        <source id="Skl_Root__EnFace00-mesh-positions">
          <float_array id="Skl_Root__EnFace00-mesh-positions-array" count="147">5.23505 10.2525 0.01312839 3.40253 10.2525 0.292695 3.46949 7.89412 0.727704 5.23505 7.6969 0.356987 1.47075 10.2525 0.497343 1.47482 8.10035 1.01571 3.50775 6.43505 0.889367 0 10.2525 0.538917 0 8.18878 1.09615 5.23505 6.33645 0.475698 1.47711 6.53817 1.19031 -1.47075 10.2525 0.497343 3.54601 5 0.915448 0 6.58239 1.30376 -1.47482 8.10035 1.01571 5.23505 5 0.528474 1.4794 5 1.188 -3.40253 10.2525 0.292695 0 5 1.33447 5.23505 3.3319 0.528474 -5.23505 10.2525 0.01312839 -3.46949 7.89412 0.727704 -1.47711 6.53817 1.19031 1.48244 3.144 1.06046 3.52312 3.23712 0.830085 -5.23505 7.6969 0.356987 -1.4794 5 1.188 5.23505 2.13042 0.331271 0 3.09275 1.17915 -5.23505 6.33645 0.475698 -3.50775 6.43505 0.889367 3.48443 1.9843 0.613908 -1.48244 3.144 1.06046 -5.23505 5 0.528474 -3.54601 5 0.915448 5.23505 0 -0.240756 1.48481 1.79457 0.830717 -1.48481 1.79457 0.830717 -5.23505 3.3319 0.528474 -3.52312 3.23712 0.830085 3.40253 0 0.0438227 0 1.711 0.943482 -3.48443 1.9843 0.613908 -5.23505 2.13042 0.331271 1.48681 0 0.283797 -1.48681 0 0.283797 -5.23505 0 -0.240756 0 0 0.363301 -3.40253 0 0.0438227</float_array>
          <technique_common>
            <accessor source="#Skl_Root__EnFace00-mesh-positions-array" count="49" stride="3">
              <param name="X" type="float"/>
              <param name="Y" type="float"/>
              <param name="Z" type="float"/>
            </accessor>
          </technique_common>
        </source>
        <source id="Skl_Root__EnFace00-mesh-normals">
          <float_array id="Skl_Root__EnFace00-mesh-normals-array" count="147">0.1769818 0.1616306 0.9708517 0.1386791 0.1967266 0.9706013 0.1789349 0.1394124 0.9739335 0.2230048 0.1126468 0.968287 0.07278794 0.2417415 0.9676069 0.1060242 0.1678259 0.9800987 0.1866516 0.06244099 0.9804399 0 0.2606607 0.9654304 0 0.1882689 0.9821176 0.2322537 0.05759036 0.9709488 0.1166145 0.05798679 0.9914831 -0.07278794 0.2417415 0.9676069 0.1731938 -0.005890071 0.9848702 0 0.07022333 0.9975314 -0.1060242 0.1678259 0.9800987 0.2232772 0.019288 0.9745642 0.1148747 -0.03036671 0.9929158 -0.1386791 0.1967266 0.9706013 0 -0.03247237 0.9994727 0.1903505 -0.09076517 0.9775114 -0.1769818 0.1616306 0.9708517 -0.1789349 0.1394124 0.9739335 -0.1166145 0.05798679 0.9914831 0.102361 -0.120062 0.9874753 0.1483246 -0.1122812 0.9825441 -0.2230048 0.1126468 0.968287 -0.1148747 -0.03036671 0.9929158 0.1757884 -0.2088708 0.9620143 0 -0.1253117 0.9921175 -0.2322537 0.05759036 0.9709488 -0.1866516 0.06244099 0.9804399 0.1456354 -0.221566 0.964209 -0.102361 -0.120062 0.9874753 -0.2232772 0.019288 0.9745642 -0.1731938 -0.005890071 0.9848702 0.1598272 -0.2681692 0.9500215 0.1049547 -0.2279461 0.9680005 -0.1049547 -0.2279461 0.9680005 -0.1903505 -0.09076517 0.9775114 -0.1483246 -0.1122812 0.9825441 0.1359342 -0.2812685 0.9499526 0 -0.2382965 0.9711925 -0.1456354 -0.221566 0.964209 -0.1757884 -0.2088708 0.9620143 0.09363389 -0.2983284 0.9498594 -0.09363389 -0.2983284 0.9498594 -0.1598272 -0.2681692 0.9500215 0 -0.3211219 0.9470379 -0.1359342 -0.2812685 0.9499526</float_array>
          <technique_common>
            <accessor source="#Skl_Root__EnFace00-mesh-normals-array" count="49" stride="3">
              <param name="X" type="float"/>
              <param name="Y" type="float"/>
              <param name="Z" type="float"/>
            </accessor>
          </technique_common>
        </source>
        <source id="Skl_Root__EnFace00-mesh-map-0">
          <float_array id="Skl_Root__EnFace00-mesh-map-0-array" count="432">1.03112 1.020074 0.8452055 1.020074 0.8520026 0.7808215 1.03112 1.020074 0.8520026 0.7808215 1.03112 0.7608076 0.8452055 1.020074 0.6492213 1.020074 0.6496303 0.8017478 0.8452055 1.020074 0.6496303 0.8017478 0.8520026 0.7808215 1.03112 0.7608076 0.8520026 0.7808215 0.8558731 0.6327949 0.6492213 1.020074 0.4999989 1.020074 0.4999989 0.8107163 0.6492213 1.020074 0.4999989 0.8107163 0.6496303 0.8017478 1.03112 0.7608076 0.8558731 0.6327949 1.03112 0.622788 0.8520026 0.7808215 0.6498506 0.6432423 0.8558731 0.6327949 0.8520026 0.7808215 0.6496303 0.8017478 0.6498506 0.6432423 0.4999989 1.020074 0.3507764 1.020074 0.4999989 0.8107163 1.03112 0.622788 0.8558731 0.6327949 0.8597752 0.4871913 0.6496303 0.8017478 0.4999989 0.6477423 0.6498506 0.6432423 0.6496303 0.8017478 0.4999989 0.8107163 0.4999989 0.6477423 0.3507764 1.020074 0.3503674 0.8017478 0.4999989 0.8107163 0.4999989 0.8107163 0.3503674 0.8017478 0.4999989 0.6477423 1.03112 0.622788 0.8597752 0.4871913 1.03112 0.4871913 0.8558731 0.6327949 0.6501024 0.4871913 0.8597752 0.4871913 0.8558731 0.6327949 0.6498506 0.6432423 0.6501024 0.4871913 0.3507764 1.020074 0.1547923 1.020074 0.3503674 0.8017478 0.4999989 0.6477423 0.4999989 0.4871913 0.6498506 0.6432423 0.6498506 0.6432423 0.4999989 0.4871913 0.6501024 0.4871913 1.03112 0.4871913 0.8597752 0.4871913 1.03112 0.3179551 0.1547923 1.020074 -0.03112208 1.020074 0.1479951 0.7808215 0.1547923 1.020074 0.1479951 0.7808215 0.3503674 0.8017478 0.4999989 0.6477423 0.3501471 0.6432423 0.4999989 0.4871913 0.3503674 0.8017478 0.1479951 0.7808215 0.3501471 0.6432423 0.3503674 0.8017478 0.3501471 0.6432423 0.4999989 0.6477423 0.6501024 0.4871913 0.4999989 0.4871913 0.6503855 0.2988854 0.8597752 0.4871913 0.8574466 0.3083258 1.03112 0.3179551 0.6501024 0.4871913 0.8574466 0.3083258 0.8597752 0.4871913 0.6501024 0.4871913 0.6503855 0.2988854 0.8574466 0.3083258 -0.03112208 1.020074 -0.03112208 0.7608076 0.1479951 0.7808215 0.3501471 0.6432423 0.3498954 0.4871913 0.4999989 0.4871913 1.03112 0.3179551 0.8574466 0.3083258 1.03112 0.1960471 0.6503855 0.2988854 0.4999989 0.4871913 0.4999989 0.293693 -0.03112208 0.7608076 -0.03112208 0.622788 0.1441245 0.6327949 0.3501471 0.6432423 0.1479951 0.7808215 0.1441245 0.6327949 0.1479951 0.7808215 -0.03112208 0.7608076 0.1441245 0.6327949 0.3501471 0.6432423 0.1441245 0.6327949 0.3498954 0.4871913 0.8574466 0.3083258 0.8535131 0.1812255 1.03112 0.1960471 0.8574466 0.3083258 0.6503855 0.2988854 0.8535131 0.1812255 0.4999989 0.4871913 0.3496121 0.2988854 0.4999989 0.293693 0.4999989 0.4871913 0.3498954 0.4871913 0.3496121 0.2988854 -0.03112208 0.622788 -0.03112208 0.4871913 0.1402539 0.4871913 0.1441245 0.6327949 -0.03112208 0.622788 0.1402539 0.4871913 0.1441245 0.6327949 0.1402539 0.4871913 0.3498954 0.4871913 1.03112 0.1960471 0.8535131 0.1812255 1.03112 -0.02007675 0.6503855 0.2988854 0.4999989 0.293693 0.6506373 0.161967 0.6503855 0.2988854 0.6506373 0.161967 0.8535131 0.1812255 0.3496121 0.2988854 0.3493604 0.161967 0.4999989 0.293693 -0.03112208 0.4871913 -0.03112208 0.3179551 0.1402539 0.4871913 0.3498954 0.4871913 0.1425511 0.3083258 0.3496121 0.2988854 0.1402539 0.4871913 -0.03112208 0.3179551 0.1425511 0.3083258 0.1402539 0.4871913 0.1425511 0.3083258 0.3498954 0.4871913 1.03112 -0.02007675 0.8535131 0.1812255 0.8452055 -0.02007675 0.8535131 0.1812255 0.6506373 0.161967 0.8452055 -0.02007675 0.3493604 0.161967 0.4999989 0.1535021 0.4999989 0.293693 0.4999989 0.293693 0.4999989 0.1535021 0.6506373 0.161967 0.3496121 0.2988854 0.1425511 0.3083258 0.1464846 0.1812255 0.3496121 0.2988854 0.1464846 0.1812255 0.3493604 0.161967 -0.03112208 0.3179551 -0.03112208 0.1960471 0.1425511 0.3083258 0.1425511 0.3083258 -0.03112208 0.1960471 0.1464846 0.1812255 0.8452055 -0.02007675 0.6506373 0.161967 0.6508576 -0.02007675 0.6506373 0.161967 0.4999989 0.1535021 0.6508576 -0.02007675 0.3493604 0.161967 0.3491401 -0.02007675 0.4999989 0.1535021 -0.03112208 0.1960471 -0.03112208 -0.02007675 0.1464846 0.1812255 0.6508576 -0.02007675 0.4999989 0.1535021 0.4999989 -0.02007675 0.4999989 -0.02007675 0.4999989 0.1535021 0.3491401 -0.02007675 0.3493604 0.161967 0.1464846 0.1812255 0.1547923 -0.02007675 0.1547923 -0.02007675 0.1464846 0.1812255 -0.03112208 -0.02007675 0.1547923 -0.02007675 0.3491401 -0.02007675 0.3493604 0.161967</float_array>
          <technique_common>
            <accessor source="#Skl_Root__EnFace00-mesh-map-0-array" count="216" stride="2">
              <param name="S" type="float"/>
              <param name="T" type="float"/>
            </accessor>
          </technique_common>
        </source>
        <vertices id="Skl_Root__EnFace00-mesh-vertices">
          <input semantic="POSITION" source="#Skl_Root__EnFace00-mesh-positions"/>
        </vertices>
        <triangles material="EnFace00-material" count="72">
          <input semantic="VERTEX" source="#Skl_Root__EnFace00-mesh-vertices" offset="0"/>
          <input semantic="NORMAL" source="#Skl_Root__EnFace00-mesh-normals" offset="1"/>
          <input semantic="TEXCOORD" source="#Skl_Root__EnFace00-mesh-map-0" offset="2" set="0"/>
          <p>0 0 0 1 1 1 2 2 2 0 0 3 2 2 4 3 3 5 1 1 6 4 4 7 5 5 8 1 1 9 5 5 10 2 2 11 3 3 12 2 2 13 6 6 14 4 4 15 7 7 16 8 8 17 4 4 18 8 8 19 5 5 20 3 3 21 6 6 22 9 9 23 2 2 24 10 10 25 6 6 26 2 2 27 5 5 28 10 10 29 7 7 30 11 11 31 8 8 32 9 9 33 6 6 34 12 12 35 5 5 36 13 13 37 10 10 38 5 5 39 8 8 40 13 13 41 11 11 42 14 14 43 8 8 44 8 8 45 14 14 46 13 13 47 9 9 48 12 12 49 15 15 50 6 6 51 16 16 52 12 12 53 6 6 54 10 10 55 16 16 56 11 11 57 17 17 58 14 14 59 13 13 60 18 18 61 10 10 62 10 10 63 18 18 64 16 16 65 15 15 66 12 12 67 19 19 68 17 17 69 20 20 70 21 21 71 17 17 72 21 21 73 14 14 74 13 13 75 22 22 76 18 18 77 14 14 78 21 21 79 22 22 80 14 14 81 22 22 82 13 13 83 16 16 84 18 18 85 23 23 86 12 12 87 24 24 88 19 19 89 16 16 90 24 24 91 12 12 92 16 16 93 23 23 94 24 24 95 20 20 96 25 25 97 21 21 98 22 22 99 26 26 100 18 18 101 19 19 102 24 24 103 27 27 104 23 23 105 18 18 106 28 28 107 25 25 108 29 29 109 30 30 110 22 22 111 21 21 112 30 30 113 21 21 114 25 25 115 30 30 116 22 22 117 30 30 118 26 26 119 24 24 120 31 31 121 27 27 122 24 24 123 23 23 124 31 31 125 18 18 126 32 32 127 28 28 128 18 18 129 26 26 130 32 32 131 29 29 132 33 33 133 34 34 134 30 30 135 29 29 136 34 34 137 30 30 138 34 34 139 26 26 140 27 27 141 31 31 142 35 35 143 23 23 144 28 28 145 36 36 146 23 23 147 36 36 148 31 31 149 32 32 150 37 37 151 28 28 152 33 33 153 38 38 154 34 34 155 26 26 156 39 39 157 32 32 158 34 34 159 38 38 160 39 39 161 34 34 162 39 39 163 26 26 164 35 35 165 31 31 166 40 40 167 31 31 168 36 36 169 40 40 170 37 37 171 41 41 172 28 28 173 28 28 174 41 41 175 36 36 176 32 32 177 39 39 178 42 42 179 32 32 180 42 42 181 37 37 182 38 38 183 43 43 184 39 39 185 39 39 186 43 43 187 42 42 188 40 40 189 36 36 190 44 44 191 36 36 192 41 41 193 44 44 194 37 37 195 45 45 196 41 41 197 43 43 198 46 46 199 42 42 200 44 44 201 41 41 202 47 47 203 47 47 204 41 41 205 45 45 206 37 37 207 42 42 208 48 48 209 48 48 210 42 42 211 46 46 212 48 48 213 45 45 214 37 37 215</p>
        </triangles>
      </mesh>
    </geometry>
    <geometry id="Skl_Root__EnShieldA-mesh" name="Skl_Root__EnShieldA">
      <mesh>
        <source id="Skl_Root__EnShieldA-mesh-positions">
          <float_array id="Skl_Root__EnShieldA-mesh-positions-array" count="912">-0.428559 3.4958 -0.671782 0 3.43925 -0.728504 -0.46195 3.41053 -0.694946 0 3.4958 -0.671782 -0.584215 3.38727 -0.355696 0 3.50683 -0.786556 -0.530575 3.60102 -0.347875 -0.349167 3.70086 -0.726557 -0.513381 3.69968 -0.468793 -0.436607 3.72953 -0.61114 0 3.48425 -0.863207 -0.454258 3.33027 -0.230237 -0.593203 3.27729 -0.51393 -0.454258 3.14217 -0.379641 0 3.56712 -0.832674 -0.399773 3.86489 -0.428003 -0.427016 3.67764 -0.227327 -0.525022 3.42807 -0.860173 -0.470977 3.54323 -1.00852 0 3.60421 -0.923959 0 3.039 -0.293384 -0.592489 3.21278 -0.698303 0 2.8916 -0.727192 -0.454258 3.02579 -0.735909 -0.153934 3.84781 -0.760751 -0.268435 3.90627 -0.636058 0 3.33178 -0.09577226 0 3.73313 -0.121051 -0.422984 3.95481 -1.12501 0 3.98923 -0.945482 0 2.96596 -1.12906 -0.599022 3.32834 -0.936149 -0.454258 3.09 -1.07713 0 3.71678 -0.84979 0 3.97436 -0.349915 0 4.00013 -0.64217 -0.422984 6.39977 -1.12501 0 6.36535 -0.945482 -0.454258 3.31536 -1.40172 0 3.22698 -1.50307 -0.598997 3.48132 -1.13476 -0.599329 3.91063 -1.27208 0 3.89421 -0.760715 0 6.75037 -0.923959 0 3.75365 -1.77313 -0.454258 3.79318 -1.6446 -0.470977 6.81134 -1.00852 0 6.87033 -0.863207 -0.599329 6.44394 -1.27208 -0.454258 6.5614 -1.6446 0 6.60093 -1.77313 -0.525022 6.92651 -0.860173 -0.46195 6.94405 -0.694946 0 6.91533 -0.728504 -0.454258 7.03922 -1.40172 0 7.12759 -1.50307 -0.598997 6.87326 -1.13476 -0.593203 7.07729 -0.51393 -0.599022 7.02624 -0.936149 -0.592489 7.1418 -0.698303 -0.428559 6.85878 -0.671782 0 6.85878 -0.671782 0 7.38862 -1.12906 -0.454258 7.21241 -0.379641 -0.584215 6.9673 -0.355696 -0.454258 7.26458 -1.07713 -0.454258 7.32878 -0.735909 0 6.84774 -0.786556 -0.454258 7.0243 -0.230237 -0.530575 6.75356 -0.347875 0 7.46298 -0.727192 -0.349167 6.65371 -0.726557 0 6.78746 -0.832674 -0.427016 6.67694 -0.227327 -0.513381 6.6549 -0.468793 0 7.31557 -0.293384 -0.153934 6.50677 -0.760751 0 6.63779 -0.84979 -0.436607 6.62504 -0.61114 0 7.0228 -0.09577226 -0.399773 6.48969 -0.428003 0 6.62145 -0.121051 0 6.46037 -0.760715 -0.268435 6.44831 -0.636058 0 6.38021 -0.349915 0 6.35445 -0.64217 0.428559 6.85878 -0.671782 0 6.91533 -0.728504 0.46195 6.94405 -0.694946 0 6.85878 -0.671782 0.584215 6.9673 -0.355696 0 6.84774 -0.786556 0.530575 6.75356 -0.347875 0.349167 6.65371 -0.726557 0.513381 6.6549 -0.468793 0.436607 6.62504 -0.61114 0 6.87033 -0.863207 0.454258 7.0243 -0.230237 0.593203 7.07729 -0.51393 0.454258 7.21241 -0.379641 0 6.78746 -0.832674 0.399773 6.48969 -0.428003 0.427016 6.67694 -0.227327 0.525022 6.92651 -0.860173 0.470977 6.81134 -1.00852 0 6.75037 -0.923959 0 7.31557 -0.293384 0.592489 7.1418 -0.698303 0 7.46298 -0.727192 0.454258 7.32878 -0.735909 0.153934 6.50677 -0.760751 0.268435 6.44831 -0.636058 0 7.0228 -0.09577226 0 6.62145 -0.121051 0.422984 6.39977 -1.12501 0 6.36535 -0.945482 0 7.38862 -1.12906 0.599022 7.02624 -0.936149 0.454258 7.26458 -1.07713 0 6.63779 -0.84979 0 6.38021 -0.349915 0 6.35445 -0.64217 0 3.98923 -0.945482 0.454258 7.03922 -1.40172 0 7.12759 -1.50307 0.598997 6.87326 -1.13476 0.599329 6.44394 -1.27208 0 6.46037 -0.760715 0.422984 3.95481 -1.12501 0 3.60421 -0.923959 0 6.60093 -1.77313 0.454258 6.5614 -1.6446 0.599329 3.91063 -1.27208 0.454258 3.79318 -1.6446 0.470977 3.54323 -1.00852 0 3.48425 -0.863207 0 3.75365 -1.77313 0.598997 3.48132 -1.13476 0.454258 3.31536 -1.40172 0.525022 3.42807 -0.860173 0.46195 3.41053 -0.694946 0 3.43925 -0.728504 0.454258 3.09 -1.07713 0 3.22698 -1.50307 0 2.96596 -1.12906 0.599022 3.32834 -0.936149 0.428559 3.4958 -0.671782 0 3.4958 -0.671782 0.454258 3.02579 -0.735909 0 2.8916 -0.727192 0.593203 3.27729 -0.51393 0.592489 3.21278 -0.698303 0 3.50683 -0.786556 0.454258 3.14217 -0.379641 0 3.039 -0.293384 0.584215 3.38727 -0.355696 0.349167 3.70086 -0.726557 0 3.56712 -0.832674 0.454258 3.33027 -0.230237 0 3.33178 -0.09577226 0.436607 3.72953 -0.61114 0.530575 3.60102 -0.347875 0.513381 3.69968 -0.468793 0.153934 3.84781 -0.760751 0 3.71678 -0.84979 0.427016 3.67764 -0.227327 0 3.73313 -0.121051 0.268435 3.90627 -0.636058 0.399773 3.86489 -0.428003 0 3.89421 -0.760715 0 3.97436 -0.349915 0 4.00013 -0.64217 0 5 -0.225732 1.48244 3.144 -0.388721 0 3.09275 -0.308289 1.4794 5 -0.306165 -1.48244 3.144 -0.388721 1.47482 7.38917 -0.434464 -1.4794 5 -0.306165 0 7.48527 -0.370421 -1.47482 7.39768 -0.434464 1.48481 1.76224 -0.434244 3.13719 3.21085 -0.352698 3 1.9843 -0.44355 -3.13719 3.21085 -0.352698 -1.48481 1.76224 -0.434245 -3 1.9843 -0.44355 1.47075 9.6551 -0.51108 3.1067 7.19256 -0.524432 3 9.302781 -0.641528 -3.1067 7.19256 -0.524432 -1.47075 9.6551 -0.51108 -3 9.302781 -0.641528 1.48681 0.893765 -0.470774 0 1.711 -0.35618 3.22865 5 -0.459958 4.02134 3.3319 -0.509641 -4.02134 3.3319 -0.509641 -3.22865 5 -0.459958 0 10.1878 -0.48797 4.23702 9.22557 -0.934892 -4.23702 9.22557 -0.934892 0 0.03584319 -0.513413 -1.48681 0.893765 -0.470774 4.33256 5 -0.587147 -4.33256 5 -0.587147 4.36727 6.99562 -0.700405 -4.36727 6.99562 -0.700405 -1.48244 3.144 0.784599 -1.48481 1.79457 0.554856 0 3.09275 0.903294 -3 1.9843 0.251216 0 5 1.0586 -3.13719 3.23712 0.554224 -1.4794 5 0.912137 0 1.711 0.667621 -1.48681 0.893765 0.188571 -1.47711 6.53817 0.914447 0 6.58239 1.0279 -4.02134 3.3319 0.252613 -3.22865 5 0.639587 0 0.03584307 0.08743995 -1.47482 8.10035 0.739851 0 8.18878 0.820284 -3.16768 6.43505 0.613505 -4.33256 5 0.252613 -1.47075 9.704131 0.286115 0 10.1878 0.335769 -3.1067 7.89412 0.451842 -4.34992 6.33645 0.199837 -3 9.301671 0.121863 -4.36727 7.6969 0.08112615 -4.23702 9.22557 -0.125387 3.1067 7.89412 0.451843 4.23702 9.22557 -0.125387 3 9.301671 0.121863 4.36727 7.6969 0.08112615 1.47482 8.10035 0.739851 3.16768 6.43505 0.613506 1.47711 6.53817 0.914447 1.47075 9.704131 0.286115 4.34992 6.33645 0.199837 0 6.58239 1.0279 1.4794 5 0.912137 0 5 1.0586 0 8.18878 0.820284 0 10.1878 0.335769 3.22865 5 0.639587 4.33256 5 0.252613 1.48244 3.144 0.784599 0 3.09275 0.903294 4.02134 3.3319 0.252613 3.13719 3.23712 0.554224 1.48481 1.79457 0.554856 0 1.711 0.667621 3 1.9843 0.251216 1.48681 0.893765 0.188571 0 0.03584307 0.08743995 -3 1.9843 -0.44355 -4.02134 3.3319 0.252613 -4.02134 3.3319 -0.509641 -3 1.9843 0.251216 -1.48681 0.893765 0.188571 -1.48681 0.893765 -0.470774 -4.33256 5 0.252613 -4.33256 5 -0.587147 0 0.03584307 0.08743995 0 0.03584319 -0.513413 -4.34992 6.33645 0.199837 -4.36727 6.99562 -0.700405 -4.36727 7.6969 0.08112615 -4.23702 9.22557 -0.934892 -4.23702 9.22557 -0.125387 3 1.9843 -0.44355 1.48681 0.893765 0.188571 1.48681 0.893765 -0.470774 3 1.9843 0.251216 4.02134 3.3319 0.252613 4.02134 3.3319 -0.509641 0 0.03584307 0.08743995 0 0.03584319 -0.513413 4.33256 5 0.252613 4.33256 5 -0.587147 4.34992 6.33645 0.199837 4.36727 6.99562 -0.700405 4.36727 7.6969 0.08112615 4.23702 9.22557 -0.934892 4.23702 9.22557 -0.125387 -3 9.302781 -0.641528 -4.23702 9.22557 -0.934892 -4.23702 9.22557 -0.125387 -3 9.301671 0.121863 -1.47075 9.6551 -0.51108 -1.47075 9.704131 0.286115 0 10.1878 -0.48797 0 10.1878 0.335769 3 9.302781 -0.641528 4.23702 9.22557 -0.125387 4.23702 9.22557 -0.934892 3 9.301671 0.121863 1.47075 9.6551 -0.51108 1.47075 9.704131 0.286115 0 10.1878 -0.48797 0 10.1878 0.335769</float_array>
          <technique_common>
            <accessor source="#Skl_Root__EnShieldA-mesh-positions-array" count="304" stride="3">
              <param name="X" type="float"/>
              <param name="Y" type="float"/>
              <param name="Z" type="float"/>
            </accessor>
          </technique_common>
        </source>
        <source id="Skl_Root__EnShieldA-mesh-normals">
          <float_array id="Skl_Root__EnShieldA-mesh-normals-array" count="900">-0.6329329 0.1741412 -0.7543678 -0.02865743 0.9705076 -0.2393613 -0.5306118 0.8361119 -0.1391688 0 -0.337272 -0.9414073 -0.9538953 0.01742619 0.2996335 -0.2533127 -0.776602 -0.5768206 -0.9411905 0.2369228 0.2408903 -0.5257225 0.1786894 -0.8316767 -0.946687 0.3036393 -0.1076425 -0.7907043 0.3774065 -0.4820281 -0.1312953 0.7864597 0.6035252 -0.5139725 -0.2648449 0.8158981 -0.9925614 -0.08343827 0.08865696 -0.5328363 -0.6992275 0.4766198 -0.4365821 -0.3220422 -0.8400505 -0.5945472 0.7815086 0.1890978 -0.5477689 0.3811309 0.7447741 -0.6088981 0.7483424 0.2631101 -0.5019859 0.5162995 0.6938624 -0.2662816 0.2999444 0.9160391 -0.2700356 -0.7700349 0.5780374 -0.9618756 -0.273239 -0.01165831 -0.2812958 -0.9572972 0.06674557 -0.5661902 -0.8236493 0.03210604 -0.3185276 0.4717028 -0.8222145 -0.472837 0.7972886 -0.3751749 -0.263139 -0.248337 0.9322482 -0.2878884 0.3989174 0.8706234 -0.507537 0.1151495 0.8539011 -0.3922672 0.02459871 0.9195224 -0.2826964 -0.884895 -0.3701941 -0.9999083 0.01123112 0.007568776 -0.6120042 -0.7274283 -0.3103206 -0.4666062 0.05179083 -0.8829475 -0.3285098 0.8511225 0.4094775 -0.3115435 0.9102454 -0.2727531 -0.507537 -0.1151495 0.8539011 -0.3922672 -0.02459871 0.9195224 -0.6235714 -0.510955 -0.5916787 -0.2838275 -0.6305548 -0.7223867 -0.9980137 0.003997981 0.06286984 -0.9827978 0.04452693 0.179237 -0.1860723 0.6179114 -0.7639127 -0.2662816 -0.2999444 0.9160391 -0.282489 -0.2265771 -0.9321282 -0.645166 -0.171149 -0.7446266 -0.5019752 -0.5162886 0.6938782 -0.1312929 -0.7864453 0.6035446 -0.9827978 -0.04452693 0.179237 -0.645166 0.171149 -0.7446266 -0.282489 0.2265771 -0.9321282 -0.6089124 -0.7483225 0.2631336 -0.5306118 -0.8361119 -0.1391688 -0.02865743 -0.9705076 -0.2393613 -0.6235714 0.510955 -0.5916787 -0.2838275 0.6305548 -0.7223867 -0.9980137 -0.003997981 0.06286984 -0.9925587 0.08343803 0.08868724 -0.9999081 -0.01123112 0.007599294 -0.9618676 0.2732672 -0.01165825 -0.6329329 -0.1741412 -0.7543678 0 0.3372352 -0.9414204 -0.2826964 0.884895 -0.3701941 -0.53284 0.6992017 0.4766535 -0.9538947 -0.01745671 0.2996333 -0.6120101 0.7274353 -0.310293 -0.5661902 0.8236493 0.03210604 -0.2533127 0.776602 -0.5768206 -0.5139725 0.2648449 0.8158981 -0.9411905 -0.2369228 0.2408903 -0.281324 0.9572889 0.06674498 -0.5257329 -0.1787235 -0.8316627 -0.4365778 0.3220697 -0.8400423 -0.5477689 -0.3811309 0.7447741 -0.9466902 -0.3036305 -0.1076394 -0.2700356 0.7700349 0.5780374 -0.3185276 -0.4717028 -0.8222145 -0.4666055 -0.05182129 -0.8829461 -0.7906953 -0.3774327 -0.4820225 -0.263139 0.248337 0.9322482 -0.5945438 -0.7815042 0.1891272 -0.2878918 -0.3988918 0.870634 -0.1860767 -0.6179258 -0.7639001 -0.472837 -0.7972886 -0.3751749 -0.3285371 -0.851114 0.4094735 -0.3115409 -0.9102378 -0.2727814 0.6329329 -0.1741412 -0.7543678 0.02865743 -0.9705076 -0.2393613 0.5306118 -0.8361119 -0.1391688 0.9538947 -0.01745671 0.2996333 0.2533127 0.776602 -0.5768206 0.9411905 -0.2369228 0.2408903 0.5257329 -0.1787235 -0.8316627 0.9466902 -0.3036305 -0.1076394 0.7906953 -0.3774327 -0.4820225 0.1312929 -0.7864453 0.6035446 0.5139725 0.2648449 0.8158981 0.9925587 0.08343803 0.08868724 0.53284 0.6992017 0.4766535 0.4365778 0.3220697 -0.8400423 0.5945438 -0.7815042 0.1891272 0.5477689 -0.3811309 0.7447741 0.6089124 -0.7483225 0.2631336 0.5019752 -0.5162886 0.6938782 0.2662816 -0.2999444 0.9160391 0.2700356 0.7700349 0.5780374 0.9618676 0.2732672 -0.01165825 0.281324 0.9572889 0.06674498 0.5661902 0.8236493 0.03210604 0.3185276 -0.4717028 -0.8222145 0.472837 -0.7972886 -0.3751749 0.263139 0.248337 0.9322482 0.2878918 -0.3988918 0.870634 0.507537 -0.1151495 0.8539011 0.3922672 -0.02459871 0.9195224 0.2826964 0.884895 -0.3701941 0.9999081 -0.01123112 0.007599294 0.6120101 0.7274353 -0.310293 0.4666055 -0.05182129 -0.8829461 0.3285371 -0.851114 0.4094735 0.3115409 -0.9102378 -0.2727814 0.3922672 0.02459871 0.9195224 0.6235714 0.510955 -0.5916787 0.2838275 0.6305548 -0.7223867 0.9980137 -0.003997981 0.06286984 0.9827978 -0.04452693 0.179237 0.1860767 -0.6179258 -0.7639001 0.507537 0.1151495 0.8539011 0.2662816 0.2999444 0.9160391 0.282489 0.2265771 -0.9321282 0.645166 0.171149 -0.7446266 0.9827978 0.04452693 0.179237 0.645166 -0.171149 -0.7446266 0.5019859 0.5162995 0.6938624 0.1312953 0.7864597 0.6035252 0.282489 -0.2265771 -0.9321282 0.9980137 0.003997981 0.06286984 0.6235714 -0.510955 -0.5916787 0.6088981 0.7483424 0.2631101 0.5306118 0.8361119 -0.1391688 0.02865743 0.9705076 -0.2393613 0.6120042 -0.7274283 -0.3103206 0.2838275 -0.6305548 -0.7223867 0.2826964 -0.884895 -0.3701941 0.9999083 0.01123112 0.007568776 0.6329329 0.1741412 -0.7543678 0.5661902 -0.8236493 0.03210604 0.2812958 -0.9572972 0.06674557 0.9925614 -0.08343827 0.08865696 0.9618756 -0.273239 -0.01165831 0.2533127 -0.776602 -0.5768206 0.5328363 -0.6992275 0.4766198 0.2700356 -0.7700349 0.5780374 0.9538953 0.01742619 0.2996335 0.5257225 0.1786894 -0.8316767 0.4365821 -0.3220422 -0.8400505 0.5139725 -0.2648449 0.8158981 0.263139 -0.248337 0.9322482 0.7907043 0.3774065 -0.4820281 0.9411905 0.2369228 0.2408903 0.946687 0.3036393 -0.1076425 0.3185276 0.4717028 -0.8222145 0.4666062 0.05179083 -0.8829475 0.5477689 0.3811309 0.7447741 0.2878884 0.3989174 0.8706234 0.472837 0.7972886 -0.3751749 0.5945472 0.7815086 0.1890978 0.1860723 0.6179114 -0.7639127 0.3285098 0.8511225 0.4094775 0.3115435 0.9102454 -0.2727531 0 -0.00564599 -0.9999842 -0.0222181 0.04272717 -0.9988397 0 0.03839325 -0.9992628 -0.05551463 -0.01480185 -0.9983482 0.0222181 0.04272717 -0.9988397 -0.0579558 -0.04828119 -0.997151 0.05554509 -0.01474082 -0.9983474 -9.15562e-5 -0.047365 -0.9988777 0.05798625 -0.04825067 -0.9971507 -0.03296077 0.03775233 -0.9987434 -0.09525102 0.03125184 -0.9949626 -0.03424203 0.06021356 -0.9975981 0.09525102 0.03125184 -0.9949626 0.03296077 0.03775233 -0.9987434 0.03424203 0.06021356 -0.9975981 -0.05926877 -0.03772205 -0.9975292 -0.115943 -0.06134384 -0.9913598 -0.149328 -0.05346876 -0.9873411 0.1160636 -0.06131255 -0.9913477 0.05923825 -0.03778308 -0.9975287 0.1493914 -0.05356115 -0.9873264 -0.03128159 0.05935877 -0.9977465 0 0.05585032 -0.9984392 -0.1084024 -0.0424515 -0.9932004 -0.1611115 -0.002014219 -0.9869341 0.1611115 -0.002014219 -0.9869341 0.1084024 -0.0424515 -0.9932004 0 -0.04342794 -0.9990566 -0.2073455 -0.08151602 -0.9748656 0.2073455 -0.08151602 -0.9748656 0 0.09344941 -0.9956241 0.03128159 0.05935877 -0.9977465 -0.1143559 -0.04059064 -0.9926103 0.1143559 -0.04059064 -0.9926103 -0.1438961 -0.07355028 -0.9868558 0.1438961 -0.07355028 -0.9868558 -0.1253116 -0.1285467 0.9837544 -0.1545187 -0.2712242 0.9500324 -0.08334749 -0.1248839 0.9886645 -0.2192181 -0.2510495 0.9428243 -0.08981692 -0.03234994 0.9954328 -0.2424733 -0.1591565 0.9570142 -0.1276322 -0.03018367 0.9913622 -0.09863924 -0.2584704 0.9609701 -0.1464012 -0.3553975 0.923179 -0.1316577 0.05847382 0.9895692 -0.07403874 0.07004076 0.9947928 -0.3327791 -0.124609 0.9347357 -0.2455293 -0.01529026 0.9692686 -0.1236009 -0.3247501 0.9376888 -0.1275405 0.190563 0.9733546 -0.07516866 0.193583 0.9782 -0.2483018 0.06402868 0.9665644 -0.330792 -0.01116979 0.9436376 -0.1266236 0.2575504 0.9579323 -0.1095932 0.2341101 0.9660134 -0.2336881 0.1638594 0.958405 -0.3333609 0.0541715 0.9412418 -0.1937971 0.2464733 0.9495756 -0.3083341 0.1235411 0.9432221 -0.2498283 0.1987395 0.9476753 0.2336881 0.1638594 0.958405 0.2498283 0.1987395 0.9476753 0.1937971 0.2464733 0.9495756 0.3083341 0.1235411 0.9432221 0.1275405 0.190563 0.9733546 0.2483018 0.06402868 0.9665644 0.1316577 0.05847382 0.9895692 0.1266236 0.2575504 0.9579323 0.3333609 0.0541715 0.9412418 0.07403874 0.07004076 0.9947928 0.1276322 -0.03018367 0.9913622 0.08981692 -0.03234994 0.9954328 0.07516866 0.193583 0.9782 0.1095932 0.2341101 0.9660134 0.2455293 -0.01529026 0.9692686 0.330792 -0.01116979 0.9436376 0.1253116 -0.1285467 0.9837544 0.08334749 -0.1248839 0.9886645 0.3327791 -0.124609 0.9347357 0.2424733 -0.1591565 0.9570142 0.1545187 -0.2712242 0.9500324 0.09863924 -0.2584704 0.9609701 0.2192181 -0.2510495 0.9428243 0.1464012 -0.3553975 0.923179 0.1236009 -0.3247501 0.9376888 -0.6993741 -0.7147558 0 -0.9145376 -0.4045011 0 -0.9170677 -0.3987317 0 -0.6997442 -0.7143934 0 -0.5441836 -0.8389661 0 -0.5423855 -0.8401299 0 -0.9950231 -0.09964573 0 -0.995332 -0.0965026 0.00125128 -0.4997762 -0.8661546 0 -0.9998683 -0.01483225 0.006592094 -0.9999522 0.006012201 -0.007721245 -0.9989907 0.03839331 -0.0233168 -0.9970961 0.07452809 -0.01565635 -0.9963917 0.08487397 0 0.6993741 -0.7147558 0 0.5441836 -0.8389661 0 0.5423855 -0.8401299 0 0.6997442 -0.7143934 0 0.9145376 -0.4045011 0 0.9170677 -0.3987317 0 0.4997762 -0.8661546 0 0.9950231 -0.09964573 0 0.995332 -0.0965026 0.00125128 0.9998683 -0.01483225 0.006592094 0.9999522 0.006012201 -0.007721245 0.9989907 0.03839331 -0.0233168 0.9970961 0.07452809 -0.01565635 0.9963917 0.08487397 0 -0.1359329 0.9907174 0.001159727 -0.06228893 0.9980583 0 -0.06207615 0.9980713 4.57789e-4 -0.1555575 0.9877918 -0.008331775 -0.288771 0.9561002 -0.04983752 -0.2921882 0.95509 -0.04928803 -0.3206351 0.9470425 -0.01742649 -0.312389 0.9499543 0 0.1359329 0.9907174 0.001159727 0.06207615 0.9980713 4.57789e-4 0.06228893 0.9980583 0 0.1555575 0.9877918 -0.008331775 0.288771 0.9561002 -0.04983752 0.2921882 0.95509 -0.04928803 0.3206351 0.9470425 -0.01742649 0.312389 0.9499543 0</float_array>
          <technique_common>
            <accessor source="#Skl_Root__EnShieldA-mesh-normals-array" count="300" stride="3">
              <param name="X" type="float"/>
              <param name="Y" type="float"/>
              <param name="Z" type="float"/>
            </accessor>
          </technique_common>
        </source>
        <source id="Skl_Root__EnShieldA-mesh-map-0">
          <float_array id="Skl_Root__EnShieldA-mesh-map-0-array" count="2532">0.1402364 0.1276923 0.1797985 0.1278933 0.1346076 0.1313108 0.1402364 0.1276923 0.1818087 0.1259635 0.1797985 0.1278933 0.1402364 0.1276923 0.1346076 0.1313108 0.1024433 0.1263253 0.1402364 0.1276923 0.1843015 0.1230686 0.1818087 0.1259635 0.1402364 0.1276923 0.1024433 0.1263253 0.1101225 0.1218625 0.1402364 0.1276923 0.1512929 0.1217418 0.1843015 0.1230686 0.1402364 0.1276923 0.1101225 0.1218625 0.1239934 0.1210584 0.1402364 0.1276923 0.1385477 0.121179 0.1512929 0.1217418 0.1402364 0.1276923 0.1239934 0.1210584 0.1385477 0.121179 0.1797985 0.1278933 0.1831758 0.1306675 0.1346076 0.1313108 0.1024433 0.1263253 0.08439111 0.1243954 0.1101225 0.1218625 0.1024433 0.1263253 0.1346076 0.1313108 0.1045742 0.1307881 0.1024433 0.1263253 0.08197879 0.1302654 0.08439111 0.1243954 0.1024433 0.1263253 0.1045742 0.1307881 0.08197879 0.1302654 0.1843015 0.1230686 0.1512929 0.1217418 0.1864725 0.1210182 0.1239934 0.1210584 0.1258026 0.1157513 0.1385477 0.121179 0.1239934 0.1210584 0.1101225 0.1218625 0.1019608 0.1176007 0.1239934 0.1210584 0.1019608 0.1176007 0.1258026 0.1157513 0.1101225 0.1218625 0.08439111 0.1243954 0.1019608 0.1176007 0.1831758 0.1306675 0.1412817 0.1361354 0.1346076 0.1313108 0.1831758 0.1306675 0.1668524 0.1406786 0.1412817 0.1361354 0.1831758 0.1306675 0.1921415 0.1321953 0.1668524 0.1406786 0.1346076 0.1313108 0.1412817 0.1361354 0.1045742 0.1307881 0.08197879 0.1302654 0.03714972 0.1286974 0.08439111 0.1243954 0.08197879 0.1302654 0.1045742 0.1307881 0.1116504 0.1356931 0.08197879 0.1302654 0.04659801 0.1429703 0.03714972 0.1286974 0.08197879 0.1302654 0.1116504 0.1356931 0.09098476 0.139191 0.08197879 0.1302654 0.09098476 0.139191 0.04659801 0.1429703 0.1045742 0.1307881 0.1412817 0.1361354 0.1116504 0.1356931 0.1512929 0.1217418 0.163475 0.1155101 0.1864725 0.1210182 0.1512929 0.1217418 0.1385477 0.121179 0.1469909 0.1149471 0.1512929 0.1217418 0.1469909 0.1149471 0.163475 0.1155101 0.1385477 0.121179 0.1258026 0.1157513 0.1469909 0.1149471 0.1019608 0.1176007 0.08439111 0.1243954 0.04901033 0.1176811 0.1019608 0.1176007 0.08439111 0.1082329 0.1258026 0.1157513 0.1019608 0.1176007 0.04901033 0.1176811 0.08439111 0.1082329 0.04901033 0.1176811 0.08439111 0.1243954 0.03714972 0.1286974 0.1921415 0.1321953 0.2064546 0.1434528 0.1668524 0.1406786 0.1921415 0.1321953 0.2188379 0.1336829 0.2064546 0.1434528 0.09098476 0.139191 0.07007795 0.1539062 0.04659801 0.1429703 0.09098476 0.139191 0.1116504 0.1356931 0.1281346 0.1411611 0.09098476 0.139191 0.1089164 0.146428 0.07007795 0.1539062 0.09098476 0.139191 0.1281346 0.1411611 0.1089164 0.146428 0.1412817 0.1361354 0.1668524 0.1406786 0.1281346 0.1411611 0.1412817 0.1361354 0.1281346 0.1411611 0.1116504 0.1356931 0.1864725 0.1210182 0.163475 0.1155101 0.183618 0.1169172 0.1469909 0.1149471 0.1258026 0.1157513 0.1244758 0.1058607 0.1469909 0.1149471 0.1582886 0.1087153 0.163475 0.1155101 0.1469909 0.1149471 0.1244758 0.1058607 0.1582886 0.1087153 0.1244758 0.1058607 0.1258026 0.1157513 0.08439111 0.1082329 0.2188379 0.1336829 0.4595878 0.1434528 0.2064546 0.1434528 0.2188379 0.1336829 0.4472045 0.1336829 0.4595878 0.1434528 0.07007795 0.1539062 0.1089164 0.146428 0.1353715 0.1538258 0.07007795 0.1539062 0.1353715 0.1538258 0.1079112 0.1637967 0.1668524 0.1406786 0.1478754 0.1443775 0.1281346 0.1411611 0.1668524 0.1406786 0.2064546 0.1434528 0.1969662 0.1494836 0.1668524 0.1406786 0.1969662 0.1494836 0.1478754 0.1443775 0.1089164 0.146428 0.1478754 0.1443775 0.1353715 0.1538258 0.1089164 0.146428 0.1281346 0.1411611 0.1478754 0.1443775 0.2064546 0.1434528 0.4595878 0.1434528 0.1969662 0.1494836 0.183618 0.1169172 0.163475 0.1155101 0.1715162 0.1120524 0.1715162 0.1120524 0.163475 0.1155101 0.1582886 0.1087153 0.4472045 0.1336829 0.4738607 0.1321953 0.4595878 0.1434528 0.1079112 0.1637967 0.1353715 0.1538258 0.1697874 0.172079 0.1478754 0.1443775 0.1969662 0.1494836 0.1847437 0.1602586 0.1478754 0.1443775 0.1847437 0.1602586 0.1353715 0.1538258 0.1353715 0.1538258 0.1847437 0.1602586 0.1697874 0.172079 0.4738607 0.1321953 0.4991901 0.1406786 0.4595878 0.1434528 0.4738607 0.1321953 0.4828265 0.1306675 0.4991901 0.1406786 0.1969662 0.1494836 0.4690763 0.1494836 0.1847437 0.1602586 0.1969662 0.1494836 0.4595878 0.1434528 0.4690763 0.1494836 0.4595878 0.1434528 0.4991901 0.1406786 0.4690763 0.1494836 0.1697874 0.172079 0.1847437 0.1602586 0.4812987 0.1602586 0.1697874 0.172079 0.4812987 0.1602586 0.4962149 0.172079 0.1847437 0.1602586 0.4690763 0.1494836 0.4812987 0.1602586 0.4828265 0.1306675 0.5247607 0.1361354 0.4991901 0.1406786 0.4828265 0.1306675 0.5313947 0.1313108 0.5247607 0.1361354 0.4828265 0.1306675 0.486244 0.1278933 0.5313947 0.1313108 0.4962149 0.172079 0.4812987 0.1602586 0.530671 0.1538258 0.4962149 0.172079 0.530671 0.1538258 0.5581312 0.1637967 0.4690763 0.1494836 0.4991901 0.1406786 0.5181671 0.1443775 0.4690763 0.1494836 0.5181671 0.1443775 0.4812987 0.1602586 0.4812987 0.1602586 0.5181671 0.1443775 0.530671 0.1538258 0.5247607 0.1361354 0.5313947 0.1313108 0.5614281 0.1307881 0.5247607 0.1361354 0.5378677 0.1411611 0.4991901 0.1406786 0.5247607 0.1361354 0.5614281 0.1307881 0.5543921 0.1356931 0.5247607 0.1361354 0.5543921 0.1356931 0.5378677 0.1411611 0.4991901 0.1406786 0.5378677 0.1411611 0.5181671 0.1443775 0.486244 0.1278933 0.5257659 0.1276923 0.5313947 0.1313108 0.486244 0.1278933 0.4842337 0.1259635 0.5257659 0.1276923 0.5581312 0.1637967 0.530671 0.1538258 0.5959243 0.1539062 0.5614281 0.1307881 0.5840637 0.1302654 0.5543921 0.1356931 0.5614281 0.1307881 0.5313947 0.1313108 0.5635992 0.1263253 0.5614281 0.1307881 0.5635992 0.1263253 0.5840637 0.1302654 0.5313947 0.1313108 0.5257659 0.1276923 0.5635992 0.1263253 0.5378677 0.1411611 0.5570859 0.146428 0.5181671 0.1443775 0.5378677 0.1411611 0.5543921 0.1356931 0.5750577 0.139191 0.5378677 0.1411611 0.5750577 0.139191 0.5570859 0.146428 0.5570859 0.146428 0.5959243 0.1539062 0.530671 0.1538258 0.5570859 0.146428 0.530671 0.1538258 0.5181671 0.1443775 0.5570859 0.146428 0.5750577 0.139191 0.5959243 0.1539062 0.5543921 0.1356931 0.5840637 0.1302654 0.5750577 0.139191 0.4842337 0.1259635 0.481741 0.1230686 0.5257659 0.1276923 0.5635992 0.1263253 0.5816514 0.1243954 0.5840637 0.1302654 0.5635992 0.1263253 0.5257659 0.1276923 0.55592 0.1218625 0.5635992 0.1263253 0.55592 0.1218625 0.5816514 0.1243954 0.5959243 0.1539062 0.5750577 0.139191 0.6194043 0.1429703 0.5750577 0.139191 0.5840637 0.1302654 0.6194043 0.1429703 0.481741 0.1230686 0.5147496 0.1217418 0.5257659 0.1276923 0.481741 0.1230686 0.4795699 0.1210182 0.5147496 0.1217418 0.55592 0.1218625 0.5640414 0.1176007 0.5816514 0.1243954 0.55592 0.1218625 0.5257659 0.1276923 0.5420491 0.1210584 0.55592 0.1218625 0.5420491 0.1210584 0.5640414 0.1176007 0.5840637 0.1302654 0.6288927 0.1286974 0.6194043 0.1429703 0.5840637 0.1302654 0.5816514 0.1243954 0.6288927 0.1286974 0.4795699 0.1210182 0.5025272 0.1155101 0.5147496 0.1217418 0.4795699 0.1210182 0.4823842 0.1169172 0.5025272 0.1155101 0.5257659 0.1276923 0.5274947 0.121179 0.5420491 0.1210584 0.5257659 0.1276923 0.5147496 0.1217418 0.5274947 0.121179 0.5640414 0.1176007 0.6169919 0.1176811 0.5816514 0.1243954 0.5640414 0.1176007 0.5420491 0.1210584 0.5402398 0.1157513 0.5640414 0.1176007 0.5816514 0.1082329 0.6169919 0.1176811 0.5640414 0.1176007 0.5402398 0.1157513 0.5816514 0.1082329 0.6169919 0.1176811 0.6288927 0.1286974 0.5816514 0.1243954 0.5420491 0.1210584 0.5274947 0.121179 0.5402398 0.1157513 0.4823842 0.1169172 0.4944861 0.1120524 0.5025272 0.1155101 0.5147496 0.1217418 0.5190516 0.1149471 0.5274947 0.121179 0.5147496 0.1217418 0.5025272 0.1155101 0.5190516 0.1149471 0.5274947 0.121179 0.5190516 0.1149471 0.5402398 0.1157513 0.5816514 0.1082329 0.5402398 0.1157513 0.5415666 0.1058607 0.5402398 0.1157513 0.5190516 0.1149471 0.5415666 0.1058607 0.4944861 0.1120524 0.5077539 0.1087153 0.5025272 0.1155101 0.5077539 0.1087153 0.5190516 0.1149471 0.5025272 0.1155101 0.5077539 0.1087153 0.5415666 0.1058607 0.5190516 0.1149471 0.1402364 0.1277325 0.1797985 0.1278933 0.1346076 0.1313108 0.1402364 0.1277325 0.1817685 0.1259635 0.1797985 0.1278933 0.1402364 0.1277325 0.1346076 0.1313108 0.1024433 0.1263655 0.1402364 0.1277325 0.1843015 0.1231089 0.1817685 0.1259635 0.1402364 0.1277325 0.1024433 0.1263655 0.1101225 0.1219027 0.1402364 0.1277325 0.1512929 0.1217418 0.1843015 0.1231089 0.1402364 0.1277325 0.1101225 0.1219027 0.1239934 0.1210584 0.1402364 0.1277325 0.1385477 0.121179 0.1512929 0.1217418 0.1402364 0.1277325 0.1239934 0.1210584 0.1385477 0.121179 0.1797985 0.1278933 0.1831758 0.1307077 0.1346076 0.1313108 0.1024433 0.1263655 0.08435088 0.1243954 0.1101225 0.1219027 0.1024433 0.1263655 0.1346076 0.1313108 0.1045742 0.1308283 0.1024433 0.1263655 0.08197879 0.1303056 0.08435088 0.1243954 0.1024433 0.1263655 0.1045742 0.1308283 0.08197879 0.1303056 0.1843015 0.1231089 0.1512929 0.1217418 0.1864725 0.1210182 0.1239934 0.1210584 0.1258026 0.1157513 0.1385477 0.121179 0.1239934 0.1210584 0.1101225 0.1219027 0.1019608 0.1176007 0.1239934 0.1210584 0.1019608 0.1176007 0.1258026 0.1157513 0.1101225 0.1219027 0.08435088 0.1243954 0.1019608 0.1176007 0.1831758 0.1307077 0.1412817 0.1361354 0.1346076 0.1313108 0.1831758 0.1307077 0.1668524 0.1407188 0.1412817 0.1361354 0.1831758 0.1307077 0.1921415 0.1322355 0.1668524 0.1407188 0.1346076 0.1313108 0.1412817 0.1361354 0.1045742 0.1308283 0.08197879 0.1303056 0.03714972 0.1287376 0.08435088 0.1243954 0.08197879 0.1303056 0.1045742 0.1308283 0.1116101 0.1357333 0.08197879 0.1303056 0.04659801 0.1429703 0.03714972 0.1287376 0.08197879 0.1303056 0.1116101 0.1357333 0.09098476 0.139191 0.08197879 0.1303056 0.09098476 0.139191 0.04659801 0.1429703 0.1045742 0.1308283 0.1412817 0.1361354 0.1116101 0.1357333 0.1512929 0.1217418 0.163475 0.1155101 0.1864725 0.1210182 0.1512929 0.1217418 0.1385477 0.121179 0.1469909 0.1149471 0.1512929 0.1217418 0.1469909 0.1149471 0.163475 0.1155101 0.1385477 0.121179 0.1258026 0.1157513 0.1469909 0.1149471 0.1019608 0.1176007 0.08435088 0.1243954 0.04901033 0.1176811 0.1019608 0.1176007 0.08439111 0.1082731 0.1258026 0.1157513 0.1019608 0.1176007 0.04901033 0.1176811 0.08439111 0.1082731 0.04901033 0.1176811 0.08435088 0.1243954 0.03714972 0.1287376 0.1921415 0.1322355 0.2064546 0.143493 0.1668524 0.1407188 0.1921415 0.1322355 0.2188379 0.1337231 0.2064546 0.143493 0.09098476 0.139191 0.07007795 0.1539464 0.04659801 0.1429703 0.09098476 0.139191 0.1116101 0.1357333 0.1281346 0.1412013 0.09098476 0.139191 0.1089164 0.1464682 0.07007795 0.1539464 0.09098476 0.139191 0.1281346 0.1412013 0.1089164 0.1464682 0.1412817 0.1361354 0.1668524 0.1407188 0.1281346 0.1412013 0.1412817 0.1361354 0.1281346 0.1412013 0.1116101 0.1357333 0.1864725 0.1210182 0.163475 0.1155101 0.183618 0.1169172 0.1469909 0.1149471 0.1258026 0.1157513 0.1244357 0.105901 0.1469909 0.1149471 0.1582886 0.1087153 0.163475 0.1155101 0.1469909 0.1149471 0.1244357 0.105901 0.1582886 0.1087153 0.1244357 0.105901 0.1258026 0.1157513 0.08439111 0.1082731 0.2188379 0.1337231 0.4472448 0.1337231 0.2064546 0.143493 0.07007795 0.1539464 0.1089164 0.1464682 0.1353715 0.153866 0.07007795 0.1539464 0.1353715 0.153866 0.1078711 0.1638369 0.1668524 0.1407188 0.1478754 0.1443775 0.1281346 0.1412013 0.1668524 0.1407188 0.2064546 0.143493 0.1969259 0.1495238 0.1668524 0.1407188 0.1969259 0.1495238 0.1478754 0.1443775 0.1089164 0.1464682 0.1478754 0.1443775 0.1353715 0.153866 0.1089164 0.1464682 0.1281346 0.1412013 0.1478754 0.1443775 0.183618 0.1169172 0.163475 0.1155101 0.1715162 0.1120524 0.1715162 0.1120524 0.163475 0.1155101 0.1582886 0.1087153 0.4472448 0.1337231 0.4595878 0.143493 0.2064546 0.143493 0.4472448 0.1337231 0.4739009 0.1322355 0.4595878 0.143493 0.1078711 0.1638369 0.1353715 0.153866 0.1697874 0.172079 0.1969259 0.1495238 0.1847437 0.1602586 0.1478754 0.1443775 0.1969259 0.1495238 0.2064546 0.143493 0.4691165 0.1495238 0.1969259 0.1495238 0.4812987 0.1602586 0.1847437 0.1602586 0.1969259 0.1495238 0.4691165 0.1495238 0.4812987 0.1602586 0.1353715 0.153866 0.1847437 0.1602586 0.1697874 0.172079 0.1353715 0.153866 0.1478754 0.1443775 0.1847437 0.1602586 0.2064546 0.143493 0.4595878 0.143493 0.4691165 0.1495238 0.4739009 0.1322355 0.4991901 0.1407188 0.4595878 0.143493 0.4739009 0.1322355 0.4828667 0.1307077 0.4991901 0.1407188 0.4595878 0.143493 0.4991901 0.1407188 0.4691165 0.1495238 0.4812987 0.1602586 0.4962551 0.172079 0.1847437 0.1602586 0.4812987 0.1602586 0.4691165 0.1495238 0.5181671 0.1443775 0.4812987 0.1602586 0.530671 0.153866 0.4962551 0.172079 0.4812987 0.1602586 0.5181671 0.1443775 0.530671 0.153866 0.4691165 0.1495238 0.4991901 0.1407188 0.5181671 0.1443775 0.1847437 0.1602586 0.4962551 0.172079 0.1697874 0.172079 0.4828667 0.1307077 0.524801 0.1361354 0.4991901 0.1407188 0.4828667 0.1307077 0.5314348 0.1313108 0.524801 0.1361354 0.4828667 0.1307077 0.486244 0.1278933 0.5314348 0.1313108 0.530671 0.153866 0.5181671 0.1443775 0.5571261 0.1464682 0.530671 0.153866 0.5581715 0.1638369 0.4962551 0.172079 0.530671 0.153866 0.5571261 0.1464682 0.5959645 0.1539464 0.530671 0.153866 0.5959645 0.1539464 0.5581715 0.1638369 0.4991901 0.1407188 0.524801 0.1361354 0.5379079 0.1412013 0.4991901 0.1407188 0.5379079 0.1412013 0.5181671 0.1443775 0.5181671 0.1443775 0.5379079 0.1412013 0.5571261 0.1464682 0.486244 0.1278933 0.5258061 0.1277325 0.5314348 0.1313108 0.486244 0.1278933 0.4842739 0.1259635 0.5258061 0.1277325 0.5959645 0.1539464 0.5571261 0.1464682 0.5750577 0.139191 0.5959645 0.1539464 0.5750577 0.139191 0.6194444 0.1429703 0.5571261 0.1464682 0.5379079 0.1412013 0.5750577 0.139191 0.524801 0.1361354 0.5314348 0.1313108 0.5614682 0.1308283 0.524801 0.1361354 0.5544323 0.1357333 0.5379079 0.1412013 0.524801 0.1361354 0.5614682 0.1308283 0.5544323 0.1357333 0.5379079 0.1412013 0.5544323 0.1357333 0.5750577 0.139191 0.4842739 0.1259635 0.481741 0.1231089 0.5258061 0.1277325 0.6194444 0.1429703 0.5750577 0.139191 0.5840637 0.1303056 0.6194444 0.1429703 0.5840637 0.1303056 0.6288927 0.1287376 0.5544323 0.1357333 0.5614682 0.1308283 0.5840637 0.1303056 0.5544323 0.1357333 0.5840637 0.1303056 0.5750577 0.139191 0.5314348 0.1313108 0.5258061 0.1277325 0.5635992 0.1263655 0.5314348 0.1313108 0.5635992 0.1263655 0.5614682 0.1308283 0.5614682 0.1308283 0.5635992 0.1263655 0.5840637 0.1303056 0.481741 0.1231089 0.5147496 0.1217418 0.5258061 0.1277325 0.481741 0.1231089 0.4795699 0.1210182 0.5147496 0.1217418 0.6288927 0.1287376 0.5840637 0.1303056 0.5816916 0.1243954 0.6288927 0.1287376 0.5816916 0.1243954 0.6170321 0.1176811 0.5840637 0.1303056 0.5635992 0.1263655 0.5816916 0.1243954 0.5258061 0.1277325 0.5147496 0.1217418 0.5274947 0.121179 0.5258061 0.1277325 0.55592 0.1219027 0.5635992 0.1263655 0.5258061 0.1277325 0.5274947 0.121179 0.5420491 0.1210584 0.5258061 0.1277325 0.5420491 0.1210584 0.55592 0.1219027 0.5635992 0.1263655 0.55592 0.1219027 0.5816916 0.1243954 0.4795699 0.1210182 0.5025674 0.1155101 0.5147496 0.1217418 0.4795699 0.1210182 0.4824244 0.1169172 0.5025674 0.1155101 0.6170321 0.1176811 0.5816916 0.1243954 0.5640816 0.1176007 0.6170321 0.1176811 0.5640816 0.1176007 0.5816514 0.1082731 0.55592 0.1219027 0.5420491 0.1210584 0.5640816 0.1176007 0.55592 0.1219027 0.5640816 0.1176007 0.5816916 0.1243954 0.5274947 0.121179 0.5147496 0.1217418 0.5190516 0.1149471 0.5274947 0.121179 0.5402398 0.1157513 0.5420491 0.1210584 0.5274947 0.121179 0.5190516 0.1149471 0.5402398 0.1157513 0.5640816 0.1176007 0.5402398 0.1157513 0.5816514 0.1082731 0.5640816 0.1176007 0.5420491 0.1210584 0.5402398 0.1157513 0.5147496 0.1217418 0.5025674 0.1155101 0.5190516 0.1149471 0.4824244 0.1169172 0.4945263 0.1120524 0.5025674 0.1155101 0.5816514 0.1082731 0.5402398 0.1157513 0.5416068 0.105901 0.5402398 0.1157513 0.5190516 0.1149471 0.5416068 0.105901 0.4945263 0.1120524 0.5077539 0.1087153 0.5025674 0.1155101 0.5077539 0.1087153 0.5190516 0.1149471 0.5025674 0.1155101 0.5077539 0.1087153 0.5416068 0.105901 0.5190516 0.1149471 1.000029 0.422237 1.107739 0.5571261 1.000029 0.5608652 1.000029 0.422237 1.107538 0.422237 1.107739 0.5571261 1.000029 0.422237 1.000029 0.5608652 0.8922782 0.5571261 1.000029 0.422237 1.107216 0.2485899 1.107538 0.422237 1.000029 0.422237 0.8922782 0.5571261 0.8924792 0.422237 1.000029 0.422237 1.000029 0.2415942 1.107216 0.2485899 1.000029 0.422237 0.8924792 0.422237 0.8928009 0.2479868 1.000029 0.422237 0.8928009 0.2479868 1.000029 0.2415942 1.107739 0.5571261 1.10794 0.6575592 1.000029 0.5608652 1.107739 0.5571261 1.107538 0.422237 1.228033 0.5522612 1.107739 0.5571261 1.218062 0.6414368 1.10794 0.6575592 1.107739 0.5571261 1.228033 0.5522612 1.218062 0.6414368 0.8922782 0.5571261 0.7719837 0.5522612 0.8924792 0.422237 0.8922782 0.5571261 1.000029 0.5608652 0.8920772 0.6575592 0.8922782 0.5571261 0.7819546 0.6414368 0.7719837 0.5522612 0.8922782 0.5571261 0.8920772 0.6575592 0.7819546 0.6414368 1.107216 0.2485899 1.000029 0.2415942 1.106895 0.08390867 1.107216 0.2485899 1.225782 0.262903 1.107538 0.422237 1.107216 0.2485899 1.106895 0.08390867 1.218062 0.1095194 1.107216 0.2485899 1.218062 0.1095194 1.225782 0.262903 0.8928009 0.2479868 0.8924792 0.422237 0.774195 0.2628628 0.8928009 0.2479868 0.8931226 0.08390867 1.000029 0.2415942 0.8928009 0.2479868 0.774195 0.2628628 0.7819546 0.1095194 0.8928009 0.2479868 0.7819546 0.1095194 0.8931226 0.08390867 1.10794 0.6575592 1.218062 0.6414368 1.108061 0.7206816 1.10794 0.6575592 1.000029 0.6612983 1.000029 0.5608652 1.10794 0.6575592 1.108061 0.7206816 1.000029 0.6612983 1.000029 0.5608652 1.000029 0.6612983 0.8920772 0.6575592 1.228033 0.5522612 1.107538 0.422237 1.234667 0.422237 1.228033 0.5522612 1.292282 0.5434965 1.218062 0.6414368 1.228033 0.5522612 1.234667 0.422237 1.292282 0.5434965 1.107538 0.422237 1.225782 0.262903 1.234667 0.422237 0.7719837 0.5522612 0.7819546 0.6414368 0.7077355 0.5434965 0.7719837 0.5522612 0.7653498 0.422237 0.8924792 0.422237 0.7719837 0.5522612 0.7077355 0.5434965 0.7653498 0.422237 0.8924792 0.422237 0.7653498 0.422237 0.774195 0.2628628 1.106895 0.08390867 1.000029 0.2415942 1.000029 0.04519087 1.000029 0.04519087 1.000029 0.2415942 0.8931226 0.08390867 1.218062 0.1095194 1.307962 0.115108 1.225782 0.262903 0.7819546 0.1095194 0.774195 0.2628628 0.6920554 0.115108 1.108061 0.7206816 1.000029 0.7830402 1.000029 0.6612983 0.8920772 0.6575592 0.8919565 0.7206816 0.7819546 0.6414368 0.8920772 0.6575592 1.000029 0.6612983 0.8919565 0.7206816 0.8919565 0.7206816 1.000029 0.6612983 1.000029 0.7830402 1.292282 0.5434965 1.234667 0.422237 1.314877 0.422237 0.7077355 0.5434965 0.6851401 0.422237 0.7653498 0.422237 1.307962 0.115108 1.31741 0.2772162 1.225782 0.262903 1.31741 0.2772162 1.314877 0.422237 1.234667 0.422237 1.31741 0.2772162 1.234667 0.422237 1.225782 0.262903 0.774195 0.2628628 0.6826071 0.2772162 0.6920554 0.115108 0.774195 0.2628628 0.7653498 0.422237 0.6826071 0.2772162 0.6826071 0.2772162 0.7653498 0.422237 0.6851401 0.422237 0.2382973 0.4282678 0.2380963 0.3215627 0.3554961 0.4242071 0.2382973 0.4282678 0.1182842 0.3365593 0.2380963 0.3215627 0.2382973 0.4282678 0.3554961 0.4242071 0.3554961 0.5750175 0.2382973 0.4282678 0.1074288 0.4356254 0.1182842 0.3365593 0.2382973 0.4282678 0.3554961 0.5750175 0.2385385 0.5750175 0.2382973 0.4282678 0.2385385 0.5750175 0.1074288 0.4356254 0.2380963 0.3215627 0.3554961 0.314969 0.3554961 0.4242071 0.2380963 0.3215627 0.1182842 0.3365593 0.2379355 0.2503589 0.2380963 0.3215627 0.2379355 0.2503589 0.3554961 0.314969 0.3554961 0.5750175 0.2386994 0.6966388 0.2385385 0.5750175 0.3554961 0.5750175 0.3554961 0.7000964 0.2386994 0.6966388 0.1074288 0.4356254 0.03755182 0.4431036 0.1182842 0.3365593 0.1074288 0.4356254 0.2385385 0.5750175 0.100232 0.5750175 0.1074288 0.4356254 0.100232 0.5750175 0.03755182 0.4431036 0.2379355 0.2503589 0.3554961 0.1824922 0.3554961 0.314969 0.3554961 0.7000964 0.2389004 0.8201498 0.2386994 0.6966388 0.3554961 0.7000964 0.3554961 0.8271455 0.2389004 0.8201498 0.2385385 0.5750175 0.1050567 0.6884771 0.100232 0.5750175 0.2385385 0.5750175 0.2386994 0.6966388 0.1050567 0.6884771 0.03755182 0.4431036 0.100232 0.5750175 0.01483577 0.5750175 0.3554961 0.8271455 0.2392221 0.9469174 0.2389004 0.8201498 0.3554961 0.8271455 0.3554961 0.9851929 0.2392221 0.9469174 0.2386994 0.6966388 0.1098813 0.8038264 0.1050567 0.6884771 0.2386994 0.6966388 0.2389004 0.8201498 0.1098813 0.8038264 0.100232 0.5750175 0.01322752 0.6806772 0.01483577 0.5750175 0.100232 0.5750175 0.1050567 0.6884771 0.01322752 0.6806772 0.2392221 0.9469174 0.1182842 0.9256889 0.2389004 0.8201498 0.2389004 0.8201498 0.1182842 0.9256889 0.1098813 0.8038264 0.1050567 0.6884771 0.01624298 0.7882267 0.01322752 0.6806772 0.1050567 0.6884771 0.1098813 0.8038264 0.01624298 0.7882267 0.1182842 0.9256889 0.02050471 0.9187736 0.1098813 0.8038264 0.1098813 0.8038264 0.02050471 0.9187736 0.01624298 0.7882267 0.6011108 0.8038264 0.6904874 0.9187736 0.5927079 0.9256889 0.6011108 0.8038264 0.6947491 0.7882267 0.6904874 0.9187736 0.6011108 0.8038264 0.5927079 0.9256889 0.4720917 0.8201498 0.6011108 0.8038264 0.6059354 0.6884771 0.6947491 0.7882267 0.6011108 0.8038264 0.4720917 0.8201498 0.4722927 0.6965986 0.6011108 0.8038264 0.4722927 0.6965986 0.6059354 0.6884771 0.5927079 0.9256889 0.4717701 0.9469174 0.4720917 0.8201498 0.6947491 0.7882267 0.6059354 0.6884771 0.6977645 0.6806772 0.4722927 0.6965986 0.4720917 0.8201498 0.3554961 0.7000964 0.4722927 0.6965986 0.4724535 0.5750175 0.6059354 0.6884771 0.4722927 0.6965986 0.3554961 0.7000964 0.3554961 0.5750175 0.4722927 0.6965986 0.3554961 0.5750175 0.4724535 0.5750175 0.4717701 0.9469174 0.3554961 0.8271455 0.4720917 0.8201498 0.4717701 0.9469174 0.3554961 0.9851929 0.3554961 0.8271455 0.3554961 0.8271455 0.3554961 0.7000964 0.4720917 0.8201498 0.6977645 0.6806772 0.6059354 0.6884771 0.6107601 0.5750175 0.6977645 0.6806772 0.6107601 0.5750175 0.6961563 0.5750175 0.6059354 0.6884771 0.4724535 0.5750175 0.6107601 0.5750175 0.3554961 0.5750175 0.4726948 0.4282678 0.4724535 0.5750175 0.3554961 0.5750175 0.3554961 0.4242071 0.4726948 0.4282678 0.6961563 0.5750175 0.6107601 0.5750175 0.6734403 0.4431036 0.4724535 0.5750175 0.4726948 0.4282678 0.6035633 0.4356254 0.4724535 0.5750175 0.6035633 0.4356254 0.6107601 0.5750175 0.6107601 0.5750175 0.6035633 0.4356254 0.6734403 0.4431036 0.3554961 0.4242071 0.4728958 0.3215627 0.4726948 0.4282678 0.3554961 0.4242071 0.3554961 0.314969 0.4728958 0.3215627 0.6035633 0.4356254 0.5927079 0.3365593 0.6734403 0.4431036 0.6035633 0.4356254 0.4726948 0.4282678 0.5927079 0.3365593 0.4726948 0.4282678 0.4728958 0.3215627 0.5927079 0.3365593 0.3554961 0.314969 0.4730566 0.2503589 0.4728958 0.3215627 0.3554961 0.314969 0.3554961 0.1824922 0.4730566 0.2503589 0.4730566 0.2503589 0.5927079 0.3365593 0.4728958 0.3215627 0.1988157 0.01009154 0.2876695 0.0820592 0.2876695 0.01009154 0.1988157 0.01009154 0.1988157 0.0820592 0.2876695 0.0820592 0.1988157 0.01009154 0.100031 0.0820592 0.1988157 0.0820592 0.1988157 0.01009154 0.100031 0.01009154 0.100031 0.0820592 0.2876695 0.01009154 0.2876695 0.0820592 0.3766843 0.0820592 0.2876695 0.01009154 0.3766843 0.0820592 0.3766843 0.01009154 0.100031 0.01009154 0.00824207 0.0820592 0.100031 0.0820592 0.100031 0.01009154 0.00824207 0.01009154 0.00824207 0.0820592 0.3766843 0.0820592 0.4480087 0.0820592 0.3766843 0.01009154 0.4480087 0.0820592 0.4841533 0.01009154 0.3766843 0.01009154 0.4480087 0.0820592 0.5206196 0.0820592 0.4841533 0.01009154 0.5206196 0.0820592 0.6021561 0.01009154 0.4841533 0.01009154 0.5206196 0.0820592 0.6021561 0.0820592 0.6021561 0.01009154 0.1988157 0.01009154 0.100031 0.08226025 0.100031 0.01009154 0.1988157 0.01009154 0.1988157 0.08226025 0.100031 0.08226025 0.1988157 0.01009154 0.2876695 0.08226025 0.1988157 0.08226025 0.1988157 0.01009154 0.2876695 0.01009154 0.2876695 0.08226025 0.100031 0.01009154 0.100031 0.08226025 0.00824207 0.08226025 0.100031 0.01009154 0.00824207 0.08226025 0.00824207 0.01009154 0.2876695 0.01009154 0.3766843 0.08226025 0.2876695 0.08226025 0.2876695 0.01009154 0.3766843 0.01009154 0.3766843 0.08226025 0.3766843 0.01009154 0.4480087 0.08222001 0.3766843 0.08226025 0.3766843 0.01009154 0.4831884 0.01009154 0.4480087 0.08222001 0.4831884 0.01009154 0.5206196 0.08222001 0.4480087 0.08222001 0.4831884 0.01009154 0.6021561 0.01009154 0.5206196 0.08222001 0.6021561 0.01009154 0.6021561 0.08222001 0.5206196 0.08222001 0.6627858 0.01009154 0.6021561 0.01009154 0.6021561 0.0820592 0.6627858 0.01009154 0.6021561 0.0820592 0.6627858 0.0820592 0.6627858 0.01009154 0.6627858 0.0820592 0.7400204 0.01009154 0.6627858 0.0820592 0.7400204 0.0820592 0.7400204 0.01009154 0.7400204 0.0820592 0.8142797 0.01009154 0.7400204 0.01009154 0.7400204 0.0820592 0.8142797 0.0820592 0.8142797 0.01009154 0.6627858 0.01009154 0.6021561 0.08222001 0.6021561 0.01009154 0.6627858 0.01009154 0.6627858 0.08222001 0.6021561 0.08222001 0.6627858 0.01009154 0.7400204 0.01009154 0.6627858 0.08222001 0.7400204 0.01009154 0.7400204 0.08222001 0.6627858 0.08222001 0.7400204 0.01009154 0.8142797 0.01009154 0.7400204 0.08222001 0.8142797 0.01009154 0.8142797 0.08222001 0.7400204 0.08222001</float_array>
          <technique_common>
            <accessor source="#Skl_Root__EnShieldA-mesh-map-0-array" count="1266" stride="2">
              <param name="S" type="float"/>
              <param name="T" type="float"/>
            </accessor>
          </technique_common>
        </source>
        <vertices id="Skl_Root__EnShieldA-mesh-vertices">
          <input semantic="POSITION" source="#Skl_Root__EnShieldA-mesh-positions"/>
        </vertices>
        <triangles material="EnShieldA-material" count="422">
          <input semantic="VERTEX" source="#Skl_Root__EnShieldA-mesh-vertices" offset="0"/>
          <input semantic="NORMAL" source="#Skl_Root__EnShieldA-mesh-normals" offset="1"/>
          <input semantic="TEXCOORD" source="#Skl_Root__EnShieldA-mesh-map-0" offset="2" set="0"/>
          <p>0 0 0 1 1 1 2 2 2 0 0 3 3 3 4 1 1 5 0 0 6 2 2 7 4 4 8 0 0 9 5 5 10 3 3 11 0 0 12 4 4 13 6 6 14 0 0 15 7 7 16 5 5 17 0 0 18 6 6 19 8 8 20 0 0 21 9 9 22 7 7 23 0 0 24 8 8 25 9 9 26 1 1 27 10 10 28 2 2 29 4 4 30 11 11 31 6 6 32 4 4 33 2 2 34 12 12 35 4 4 36 13 13 37 11 11 38 4 4 39 12 12 40 13 13 41 5 5 42 7 7 43 14 14 44 8 8 45 15 15 46 9 9 47 8 8 48 6 6 49 16 16 50 8 8 51 16 16 52 15 15 53 6 6 54 11 11 55 16 16 56 10 10 57 17 17 58 2 2 59 10 10 60 18 18 61 17 17 62 10 10 63 19 19 64 18 18 65 2 2 66 17 17 67 12 12 68 13 13 69 20 20 70 11 11 71 13 13 72 12 12 73 21 21 74 13 13 75 22 22 76 20 20 77 13 13 78 21 21 79 23 23 80 13 13 81 23 23 82 22 22 83 12 12 84 17 17 85 21 21 86 7 7 87 24 24 88 14 14 89 7 7 90 9 9 91 25 25 92 7 7 93 25 25 94 24 24 95 9 9 96 15 15 97 25 25 98 16 16 99 11 11 100 26 26 101 16 16 102 27 27 103 15 15 104 16 16 105 26 26 106 27 27 107 26 26 108 11 11 109 20 20 110 19 19 111 28 28 112 18 18 113 19 19 114 29 29 115 28 28 116 23 23 117 30 30 118 22 22 119 23 23 120 21 21 121 31 31 122 23 23 123 32 32 124 30 30 125 23 23 126 31 31 127 32 32 128 17 17 129 18 18 130 31 31 131 17 17 132 31 31 133 21 21 134 14 14 135 24 24 136 33 33 137 25 25 138 15 15 139 34 34 140 25 25 141 35 35 142 24 24 143 25 25 144 34 34 145 35 35 146 34 34 147 15 15 148 27 27 149 29 29 150 36 36 151 28 28 152 29 29 153 37 37 154 36 36 155 30 30 156 32 32 157 38 38 158 30 30 159 38 38 160 39 39 161 18 18 162 40 40 163 31 31 164 18 18 165 28 28 166 41 41 167 18 18 168 41 41 169 40 40 170 32 32 171 40 40 172 38 38 173 32 32 174 31 31 175 40 40 176 28 28 177 36 36 178 41 41 179 33 33 180 24 24 181 42 42 182 42 42 183 24 24 184 35 35 185 37 37 186 43 43 187 36 36 188 39 39 189 38 38 190 44 44 191 40 40 192 41 41 193 45 45 194 40 40 195 45 45 196 38 38 197 38 38 198 45 45 199 44 44 200 43 43 201 46 46 202 36 36 203 43 43 204 47 47 205 46 46 206 41 41 207 48 48 208 45 45 209 41 41 210 36 36 211 48 48 212 36 36 213 46 46 214 48 48 215 44 44 216 45 45 217 49 49 218 44 44 219 49 49 220 50 50 221 45 45 222 48 48 223 49 49 224 47 47 225 51 51 226 46 46 227 47 47 228 52 52 229 51 51 230 47 47 231 53 53 232 52 52 233 50 50 234 49 49 235 54 54 236 50 50 237 54 54 238 55 55 239 48 48 240 46 46 241 56 56 242 48 48 243 56 56 244 49 49 245 49 49 246 56 56 247 54 54 248 51 51 249 52 52 250 57 57 251 51 51 252 58 58 253 46 46 254 51 51 255 57 57 256 59 59 257 51 51 258 59 59 259 58 58 260 46 46 261 58 58 262 56 56 263 53 53 264 60 60 265 52 52 266 53 53 267 61 61 268 60 60 269 55 55 270 54 54 271 62 62 272 57 57 273 63 63 274 59 59 275 57 57 276 52 52 277 64 64 278 57 57 279 64 64 280 63 63 281 52 52 282 60 60 283 64 64 284 58 58 285 65 65 286 56 56 287 58 58 288 59 59 289 66 66 290 58 58 291 66 66 292 65 65 293 65 65 294 62 62 295 54 54 296 65 65 297 54 54 298 56 56 299 65 65 300 66 66 301 62 62 302 59 59 303 63 63 304 66 66 305 61 61 306 67 67 307 60 60 308 64 64 309 68 68 310 63 63 311 64 64 312 60 60 313 69 69 314 64 64 315 69 69 316 68 68 317 62 62 318 66 66 319 70 70 320 66 66 321 63 63 322 70 70 323 67 67 324 71 71 325 60 60 326 67 67 327 72 72 328 71 71 329 69 69 330 73 73 331 68 68 332 69 69 333 60 60 334 74 74 335 69 69 336 74 74 337 73 73 338 63 63 339 75 75 340 70 70 341 63 63 342 68 68 343 75 75 344 72 72 345 76 76 346 71 71 347 72 72 348 77 77 349 76 76 350 60 60 351 78 78 352 74 74 353 60 60 354 71 71 355 78 78 356 73 73 357 79 79 358 68 68 359 73 73 360 74 74 361 80 80 362 73 73 363 81 81 364 79 79 365 73 73 366 80 80 367 81 81 368 79 79 369 75 75 370 68 68 371 74 74 372 78 78 373 80 80 374 77 77 375 82 82 376 76 76 377 71 71 378 83 83 379 78 78 380 71 71 381 76 76 382 83 83 383 78 78 384 83 83 385 80 80 386 81 81 387 80 80 388 84 84 389 80 80 390 83 83 391 84 84 392 82 82 393 85 85 394 76 76 395 85 85 396 83 83 397 76 76 398 85 85 399 84 84 400 83 83 401 86 86 402 87 87 403 88 88 404 86 86 405 89 61 406 87 87 407 86 86 408 88 88 409 90 89 410 86 86 411 91 90 412 89 61 413 86 86 414 90 89 415 92 91 416 86 86 417 93 92 418 91 90 419 86 86 420 92 91 421 94 93 422 86 86 423 95 94 424 93 92 425 86 86 426 94 93 427 95 94 428 87 87 429 96 95 430 88 88 431 90 89 432 97 96 433 92 91 434 90 89 435 88 88 436 98 97 437 90 89 438 99 98 439 97 96 440 90 89 441 98 97 442 99 98 443 91 90 444 93 92 445 100 99 446 94 93 447 101 100 448 95 94 449 94 93 450 92 91 451 102 101 452 94 93 453 102 101 454 101 100 455 92 91 456 97 96 457 102 101 458 96 95 459 103 102 460 88 88 461 96 95 462 104 103 463 103 102 464 96 95 465 105 104 466 104 103 467 88 88 468 103 102 469 98 97 470 99 98 471 106 105 472 97 96 473 99 98 474 98 97 475 107 106 476 99 98 477 108 107 478 106 105 479 99 98 480 107 106 481 109 108 482 99 98 483 109 108 484 108 107 485 98 97 486 103 102 487 107 106 488 93 92 489 110 109 490 100 99 491 93 92 492 95 94 493 111 110 494 93 92 495 111 110 496 110 109 497 95 94 498 101 100 499 111 110 500 102 101 501 97 96 502 112 111 503 102 101 504 113 112 505 101 100 506 102 101 507 112 111 508 113 112 509 112 111 510 97 96 511 106 105 512 105 104 513 114 113 514 104 103 515 105 104 516 115 114 517 114 113 518 109 108 519 116 115 520 108 107 521 109 108 522 107 106 523 117 116 524 109 108 525 118 117 526 116 115 527 109 108 528 117 116 529 118 117 530 103 102 531 104 103 532 117 116 533 103 102 534 117 116 535 107 106 536 100 99 537 110 109 538 119 118 539 111 110 540 101 100 541 120 119 542 111 110 543 121 120 544 110 109 545 111 110 546 120 119 547 121 120 548 120 119 549 101 100 550 113 112 551 115 114 552 122 121 553 114 113 554 116 115 555 118 117 556 123 122 557 116 115 558 123 122 559 124 123 560 104 103 561 125 124 562 117 116 563 104 103 564 114 113 565 126 125 566 104 103 567 126 125 568 125 124 569 118 117 570 125 124 571 123 122 572 118 117 573 117 116 574 125 124 575 119 118 576 110 109 577 127 126 578 127 126 579 110 109 580 121 120 581 122 121 582 128 127 583 114 113 584 122 121 585 129 128 586 128 127 587 124 123 588 123 122 589 130 129 590 126 125 591 131 130 592 125 124 593 126 125 594 114 113 595 132 131 596 126 125 597 133 132 598 131 130 599 126 125 600 132 131 601 133 132 602 123 122 603 131 130 604 130 129 605 123 122 606 125 124 607 131 130 608 114 113 609 128 127 610 132 131 611 129 128 612 134 133 613 128 127 614 129 128 615 135 134 616 134 133 617 128 127 618 134 133 619 132 131 620 133 132 621 136 135 622 131 130 623 133 132 624 132 131 625 137 136 626 133 132 627 138 137 628 136 135 629 133 132 630 137 136 631 138 137 632 132 131 633 134 133 634 137 136 635 131 130 636 136 135 637 130 129 638 135 134 639 139 138 640 134 133 641 135 134 642 140 139 643 139 138 644 135 134 645 141 140 646 140 139 647 138 137 648 137 136 649 142 141 650 138 137 651 143 142 652 136 135 653 138 137 654 142 141 655 144 143 656 138 137 657 144 143 658 143 142 659 134 133 660 139 138 661 145 144 662 134 133 663 145 144 664 137 136 665 137 136 666 145 144 667 142 141 668 141 140 669 146 145 670 140 139 671 141 140 672 147 3 673 146 145 674 144 143 675 142 141 676 148 146 677 144 143 678 148 146 679 149 147 680 142 141 681 145 144 682 148 146 683 139 138 684 140 139 685 150 148 686 139 138 687 151 149 688 145 144 689 139 138 690 150 148 691 151 149 692 145 144 693 151 149 694 148 146 695 147 3 696 152 150 697 146 145 698 149 147 699 148 146 700 153 151 701 149 147 702 153 151 703 154 152 704 151 149 705 150 148 706 153 151 707 151 149 708 153 151 709 148 146 710 140 139 711 146 145 712 155 153 713 140 139 714 155 153 715 150 148 716 150 148 717 155 153 718 153 151 719 152 150 720 156 154 721 146 145 722 152 150 723 157 155 724 156 154 725 154 152 726 153 151 727 158 156 728 154 152 729 158 156 730 159 157 731 153 151 732 155 153 733 158 156 734 146 145 735 156 154 736 160 158 737 146 145 738 161 159 739 155 153 740 146 145 741 160 158 742 162 160 743 146 145 744 162 160 745 161 159 746 155 153 747 161 159 748 158 156 749 157 155 750 163 161 751 156 154 752 157 155 753 164 162 754 163 161 755 159 157 756 158 156 757 165 163 758 159 157 759 165 163 760 166 164 761 161 159 762 162 160 763 165 163 764 161 159 765 165 163 766 158 156 767 160 158 768 156 154 769 167 165 770 160 158 771 168 166 772 162 160 773 160 158 774 167 165 775 168 166 776 165 163 777 168 166 778 166 164 779 165 163 780 162 160 781 168 166 782 156 154 783 163 161 784 167 165 785 164 162 786 169 167 787 163 161 788 166 164 789 168 166 790 170 168 791 168 166 792 167 165 793 170 168 794 169 167 795 171 169 796 163 161 797 171 169 798 167 165 799 163 161 800 171 169 801 170 168 802 167 165 803 172 170 804 173 171 805 174 172 806 172 170 807 175 173 808 173 171 809 172 170 810 174 172 811 176 174 812 172 170 813 177 175 814 175 173 815 172 170 816 176 174 817 178 176 818 172 170 819 179 177 820 177 175 821 172 170 822 178 176 823 180 178 824 172 170 825 180 178 826 179 177 827 173 171 828 181 179 829 174 172 830 173 171 831 175 173 832 182 180 833 173 171 834 183 181 835 181 179 836 173 171 837 182 180 838 183 181 839 176 174 840 184 182 841 178 176 842 176 174 843 174 172 844 185 183 845 176 174 846 186 184 847 184 182 848 176 174 849 185 183 850 186 184 851 177 175 852 179 177 853 187 185 854 177 175 855 188 186 856 175 173 857 177 175 858 187 185 859 189 187 860 177 175 861 189 187 862 188 186 863 180 178 864 178 176 865 190 188 866 180 178 867 191 189 868 179 177 869 180 178 870 190 188 871 192 190 872 180 178 873 192 190 874 191 189 875 181 179 876 183 181 877 193 191 878 181 179 879 194 192 880 174 172 881 181 179 882 193 191 883 194 192 884 174 172 885 194 192 886 185 183 887 182 180 888 175 173 889 195 193 890 182 180 891 196 194 892 183 181 893 182 180 894 195 193 895 196 194 896 175 173 897 188 186 898 195 193 899 184 182 900 186 184 901 197 195 902 184 182 903 198 196 904 178 176 905 184 182 906 197 195 907 198 196 908 178 176 909 198 196 910 190 188 911 187 185 912 179 177 913 199 197 914 199 197 915 179 177 916 191 189 917 189 187 918 200 198 919 188 186 920 192 190 921 190 188 922 201 199 923 193 191 924 202 200 925 194 192 926 185 183 927 203 201 928 186 184 929 185 183 930 194 192 931 203 201 932 203 201 933 194 192 934 202 200 935 196 194 936 195 193 937 204 202 938 197 195 939 205 203 940 198 196 941 200 198 942 206 204 943 188 186 944 206 204 945 204 202 946 195 193 947 206 204 948 195 193 949 188 186 950 190 188 951 207 205 952 201 199 953 190 188 954 198 196 955 207 205 956 207 205 957 198 196 958 205 203 959 208 206 960 209 207 961 210 208 962 208 206 963 211 209 964 209 207 965 208 206 966 210 208 967 212 210 968 208 206 969 213 211 970 211 209 971 208 206 972 212 210 973 214 212 974 208 206 975 214 212 976 213 211 977 209 207 978 215 213 979 210 208 980 209 207 981 211 209 982 216 214 983 209 207 984 216 214 985 215 213 986 212 210 987 217 215 988 214 212 989 212 210 990 218 216 991 217 215 992 213 211 993 219 217 994 211 209 995 213 211 996 214 212 997 220 218 998 213 211 999 220 218 1000 219 217 1001 216 214 1002 221 219 1003 215 213 1004 218 216 1005 222 220 1006 217 215 1007 218 216 1008 223 221 1009 222 220 1010 214 212 1011 224 222 1012 220 218 1013 214 212 1014 217 215 1015 224 222 1016 219 217 1017 220 218 1018 225 223 1019 223 221 1020 226 224 1021 222 220 1022 223 221 1023 227 225 1024 226 224 1025 217 215 1026 228 226 1027 224 222 1028 217 215 1029 222 220 1030 228 226 1031 220 218 1032 229 227 1033 225 223 1034 220 218 1035 224 222 1036 229 227 1037 226 224 1038 230 228 1039 222 220 1040 222 220 1041 230 228 1042 228 226 1043 224 222 1044 231 229 1045 229 227 1046 224 222 1047 228 226 1048 231 229 1049 230 228 1050 232 230 1051 228 226 1052 228 226 1053 232 230 1054 231 229 1055 233 231 1056 234 232 1057 235 233 1058 233 231 1059 236 234 1060 234 232 1061 233 231 1062 235 233 1063 237 235 1064 233 231 1065 238 236 1066 236 234 1067 233 231 1068 237 235 1069 239 237 1070 233 231 1071 239 237 1072 238 236 1073 235 233 1074 240 238 1075 237 235 1076 236 234 1077 238 236 1078 241 239 1079 239 237 1080 237 235 1081 242 240 1082 239 237 1083 243 241 1084 238 236 1085 239 237 1086 242 240 1087 244 242 1088 239 237 1089 244 242 1090 243 241 1091 240 238 1092 245 243 1093 237 235 1094 240 238 1095 246 244 1096 245 243 1097 245 243 1098 242 240 1099 237 235 1100 241 239 1101 238 236 1102 247 245 1103 241 239 1104 247 245 1105 248 246 1106 238 236 1107 243 241 1108 247 245 1109 244 242 1110 249 247 1111 243 241 1112 244 242 1113 250 248 1114 249 247 1115 248 246 1116 247 245 1117 251 249 1118 243 241 1119 249 247 1120 252 250 1121 243 241 1122 252 250 1123 247 245 1124 247 245 1125 252 250 1126 251 249 1127 250 248 1128 253 251 1129 249 247 1130 250 248 1131 254 252 1132 253 251 1133 252 250 1134 255 253 1135 251 249 1136 252 250 1137 249 247 1138 255 253 1139 249 247 1140 253 251 1141 255 253 1142 254 252 1143 256 254 1144 253 251 1145 254 252 1146 257 255 1147 256 254 1148 256 254 1149 255 253 1150 253 251 1151 258 256 1152 259 257 1153 260 258 1154 258 256 1155 261 259 1156 259 257 1157 258 256 1158 262 260 1159 261 259 1160 258 256 1161 263 261 1162 262 260 1163 260 258 1164 259 257 1165 264 262 1166 260 258 1167 264 262 1168 265 263 1169 263 261 1170 266 264 1171 262 260 1172 263 261 1173 267 264 1174 266 264 1175 264 262 1176 268 265 1177 265 263 1178 268 265 1179 269 266 1180 265 263 1181 268 265 1182 270 267 1183 269 266 1184 270 267 1185 271 268 1186 269 266 1187 270 267 1188 272 269 1189 271 268 1190 273 270 1191 274 271 1192 275 272 1193 273 270 1194 276 273 1195 274 271 1196 273 270 1197 277 274 1198 276 273 1199 273 270 1200 278 275 1201 277 274 1202 275 272 1203 274 271 1204 279 276 1205 275 272 1206 279 276 1207 280 276 1208 278 275 1209 281 277 1210 277 274 1211 278 275 1212 282 278 1213 281 277 1214 282 278 1215 283 279 1216 281 277 1217 282 278 1218 284 280 1219 283 279 1220 284 280 1221 285 281 1222 283 279 1223 284 280 1224 286 282 1225 285 281 1226 286 282 1227 287 283 1228 285 281 1229 288 284 1230 289 285 1231 290 286 1232 288 284 1233 290 286 1234 291 287 1235 288 284 1236 291 287 1237 292 288 1238 291 287 1239 293 289 1240 292 288 1241 293 289 1242 294 290 1243 292 288 1244 293 289 1245 295 291 1246 294 290 1247 296 292 1248 297 293 1249 298 294 1250 296 292 1251 299 295 1252 297 293 1253 296 292 1254 300 296 1255 299 295 1256 300 296 1257 301 297 1258 299 295 1259 300 296 1260 302 298 1261 301 297 1262 302 298 1263 303 299 1264 301 297 1265</p>
        </triangles>
      </mesh>
    </geometry>
  </library_geometries>
  <library_controllers>
    <controller id="Armature_Shadow__EnShadow-skin" name="Armature">
      <skin source="#Shadow__EnShadow-mesh">
        <bind_shape_matrix>1 0 0 0 0 1 0 0 0 0 1 0 0 0 0 1</bind_shape_matrix>
        <source id="Armature_Shadow__EnShadow-skin-joints">
          <Name_array id="Armature_Shadow__EnShadow-skin-joints-array" count="1">Shadow</Name_array>
          <technique_common>
            <accessor source="#Armature_Shadow__EnShadow-skin-joints-array" count="1" stride="1">
              <param name="JOINT" type="name"/>
            </accessor>
          </technique_common>
        </source>
        <source id="Armature_Shadow__EnShadow-skin-bind_poses">
          <float_array id="Armature_Shadow__EnShadow-skin-bind_poses-array" count="16">1 0 0 0 0 -1.62921e-7 1 0 0 -1 -1.62921e-7 0 0 0 0 1</float_array>
          <technique_common>
            <accessor source="#Armature_Shadow__EnShadow-skin-bind_poses-array" count="1" stride="16">
              <param name="TRANSFORM" type="float4x4"/>
            </accessor>
          </technique_common>
        </source>
        <source id="Armature_Shadow__EnShadow-skin-weights">
          <float_array id="Armature_Shadow__EnShadow-skin-weights-array" count="4">1 1 1 1</float_array>
          <technique_common>
            <accessor source="#Armature_Shadow__EnShadow-skin-weights-array" count="4" stride="1">
              <param name="WEIGHT" type="float"/>
            </accessor>
          </technique_common>
        </source>
        <joints>
          <input semantic="JOINT" source="#Armature_Shadow__EnShadow-skin-joints"/>
          <input semantic="INV_BIND_MATRIX" source="#Armature_Shadow__EnShadow-skin-bind_poses"/>
        </joints>
        <vertex_weights count="4">
          <input semantic="JOINT" source="#Armature_Shadow__EnShadow-skin-joints" offset="0"/>
          <input semantic="WEIGHT" source="#Armature_Shadow__EnShadow-skin-weights" offset="1"/>
          <vcount>1 1 1 1 </vcount>
          <v>0 0 0 1 0 2 0 3</v>
        </vertex_weights>
      </skin>
    </controller>
    <controller id="Armature_Skl_Root__EnFace00-skin" name="Armature">
      <skin source="#Skl_Root__EnFace00-mesh">
        <bind_shape_matrix>1 0 0 0 0 1 0 0 0 0 1 0 0 0 0 1</bind_shape_matrix>
        <source id="Armature_Skl_Root__EnFace00-skin-joints">
          <Name_array id="Armature_Skl_Root__EnFace00-skin-joints-array" count="3">Spine MiiMask Waist</Name_array>
          <technique_common>
            <accessor source="#Armature_Skl_Root__EnFace00-skin-joints-array" count="3" stride="1">
              <param name="JOINT" type="name"/>
            </accessor>
          </technique_common>
        </source>
        <source id="Armature_Skl_Root__EnFace00-skin-bind_poses">
          <float_array id="Armature_Skl_Root__EnFace00-skin-bind_poses-array" count="48">-7.19627e-6 -1 -1.62921e-7 0 0 -1.62921e-7 1 -5 -1 7.19627e-6 0 0 0 0 0 1 -3.50078e-6 -1 -1.62921e-7 -1.2991 0 -1.62921e-7 1 -5.474424 -1 3.50078e-6 0 -1.86175e-6 0 0 0 1 -7.19627e-6 1 1.62921e-7 0 0 -1.62921e-7 1 -5 1 7.19627e-6 0 0 0 0 0 1</float_array>
          <technique_common>
            <accessor source="#Armature_Skl_Root__EnFace00-skin-bind_poses-array" count="3" stride="16">
              <param name="TRANSFORM" type="float4x4"/>
            </accessor>
          </technique_common>
        </source>
        <source id="Armature_Skl_Root__EnFace00-skin-weights">
          <float_array id="Armature_Skl_Root__EnFace00-skin-weights-array" count="133">0.9 0.1 0.9 0.1 0.7 0.1 0.2 0.7 0.1 0.2 0.9 0.1 0.7 0.1 0.2 0.6 0.1 0.3 0.9 0.1 0.7 0.1 0.2 0.6 0.1 0.3 0.6 0.1 0.3 0.9 0.1 0.4 0.1 0.5 0.6 0.1 0.3 0.7 0.1 0.2 0.4 0.1 0.5 0.4 0.1 0.5 0.9 0.1 0.4 0.1 0.5 0.2 0.1 0.7 0.9 0.1 0.7 0.1 0.2 0.6 0.1 0.3 0.2 0.1 0.7 0.2 0.1 0.7 0.7 0.1 0.2 0.4 0.1 0.5 0.1 0.1 0.8 0.2 0.1 0.7 0.6 0.1 0.3 0.6 0.1 0.3 0.1 0.1 0.8 0.2 0.1 0.7 0.4 0.1 0.5 0.4 0.1 0.5 0.1 0.9 0.1 0.1 0.8 0.1 0.1 0.8 0.2 0.1 0.7 0.2 0.1 0.7 0.1 0.9 0.1 0.1 0.8 0.1 0.1 0.8 0.1 0.1 0.8 0.1 0.9 0.1 0.9 0.1 0.9 0.1 0.9 0.1 0.9</float_array>
          <technique_common>
            <accessor source="#Armature_Skl_Root__EnFace00-skin-weights-array" count="133" stride="1">
              <param name="WEIGHT" type="float"/>
            </accessor>
          </technique_common>
        </source>
        <joints>
          <input semantic="JOINT" source="#Armature_Skl_Root__EnFace00-skin-joints"/>
          <input semantic="INV_BIND_MATRIX" source="#Armature_Skl_Root__EnFace00-skin-bind_poses"/>
        </joints>
        <vertex_weights count="49">
          <input semantic="JOINT" source="#Armature_Skl_Root__EnFace00-skin-joints" offset="0"/>
          <input semantic="WEIGHT" source="#Armature_Skl_Root__EnFace00-skin-weights" offset="1"/>
          <vcount>2 2 3 3 2 3 3 2 3 3 3 2 3 3 3 3 3 2 3 3 2 3 3 3 3 3 3 3 3 3 3 3 3 3 3 2 3 3 3 3 2 3 3 3 2 2 2 2 2 </vcount>
          <v>0 0 1 1 0 2 1 3 0 4 1 5 2 6 0 7 1 8 2 9 0 10 1 11 0 12 1 13 2 14 0 15 1 16 2 17 0 18 1 19 0 20 1 21 2 22 0 23 1 24 2 25 0 26 1 27 2 28 0 29 1 30 0 31 1 32 2 33 0 34 1 35 2 36 0 37 1 38 2 39 0 40 1 41 2 42 0 43 1 44 2 45 0 46 1 47 0 48 1 49 2 50 0 51 1 52 2 53 0 54 1 55 0 56 1 57 2 58 0 59 1 60 2 61 0 62 1 63 2 64 0 65 1 66 2 67 0 68 1 69 2 70 0 71 1 72 2 73 0 74 1 75 2 76 0 77 1 78 2 79 0 80 1 81 2 82 0 83 1 84 2 85 0 86 1 87 2 88 0 89 1 90 2 91 0 92 1 93 2 94 0 95 1 96 2 97 1 98 2 99 0 100 1 101 2 102 0 103 1 104 2 105 0 106 1 107 2 108 0 109 1 110 2 111 1 112 2 113 0 114 1 115 2 116 0 117 1 118 2 119 0 120 1 121 2 122 1 123 2 124 1 125 2 126 1 127 2 128 1 129 2 130 1 131 2 132</v>
        </vertex_weights>
      </skin>
    </controller>
    <controller id="Armature_Skl_Root__EnShieldA-skin" name="Armature">
      <skin source="#Skl_Root__EnShieldA-mesh">
        <bind_shape_matrix>1 0 0 0 0 1 0 0 0 0 1 0 0 0 0 1</bind_shape_matrix>
        <source id="Armature_Skl_Root__EnShieldA-skin-joints">
          <Name_array id="Armature_Skl_Root__EnShieldA-skin-joints-array" count="2">Spine Waist</Name_array>
          <technique_common>
            <accessor source="#Armature_Skl_Root__EnShieldA-skin-joints-array" count="2" stride="1">
              <param name="JOINT" type="name"/>
            </accessor>
          </technique_common>
        </source>
        <source id="Armature_Skl_Root__EnShieldA-skin-bind_poses">
          <float_array id="Armature_Skl_Root__EnShieldA-skin-bind_poses-array" count="32">-7.19627e-6 -1 -1.62921e-7 0 0 -1.62921e-7 1 -5 -1 7.19627e-6 0 0 0 0 0 1 -7.19627e-6 1 1.62921e-7 0 0 -1.62921e-7 1 -5 1 7.19627e-6 0 0 0 0 0 1</float_array>
          <technique_common>
            <accessor source="#Armature_Skl_Root__EnShieldA-skin-bind_poses-array" count="2" stride="16">
              <param name="TRANSFORM" type="float4x4"/>
            </accessor>
          </technique_common>
        </source>
        <source id="Armature_Skl_Root__EnShieldA-skin-weights">
          <float_array id="Armature_Skl_Root__EnShieldA-skin-weights-array" count="566">0.4 0.6 0.4 0.6 0.4 0.6 0.4 0.6 0.4 0.6 0.4 0.6 0.4 0.6 0.4 0.6 0.4 0.6 0.4 0.6 0.4 0.6 0.4 0.6 0.4 0.6 0.4 0.6 0.4 0.6 0.4 0.6 0.4 0.6 0.4 0.6 0.4 0.6 0.4 0.6 0.3 0.7 0.4 0.6 0.3 0.7 0.4 0.6 0.4 0.6 0.4 0.6 0.3 0.7 0.4 0.6 0.4 0.6 0.4 0.6 0.4 0.6 0.4 0.6 0.4 0.6 0.4 0.6 0.4 0.6 0.4 0.6 0.8 0.2 0.8 0.2 0.4 0.6 0.4 0.6 0.4 0.6 0.4 0.6 0.4 0.6 0.8 0.2 0.4 0.6 0.4 0.6 0.8 0.2 0.8 0.2 0.8 0.2 0.8 0.2 0.8 0.2 0.8 0.2 0.8 0.2 0.8 0.2 0.8 0.2 0.8 0.2 0.8 0.2 0.8 0.2 0.8 0.2 0.8 0.2 0.8 0.2 0.8 0.2 0.8 0.2 0.8 0.2 0.8 0.2 0.8 0.2 0.8 0.2 0.8 0.2 0.8 0.2 0.8 0.2 0.8 0.2 0.8 0.2 0.8 0.2 0.8 0.2 0.8 0.2 0.8 0.2 0.8 0.2 0.8 0.2 0.8 0.2 0.8 0.2 0.8 0.2 0.8 0.2 0.8 0.2 0.8 0.2 0.8 0.2 0.8 0.2 0.8 0.2 0.8 0.2 0.8 0.2 0.8 0.2 0.8 0.2 0.8 0.2 0.8 0.2 0.8 0.2 0.8 0.2 0.8 0.2 0.8 0.2 0.8 0.2 0.8 0.2 0.8 0.2 0.8 0.2 0.8 0.2 0.8 0.2 0.8 0.2 0.8 0.2 0.8 0.2 0.8 0.2 0.8 0.2 0.8 0.2 0.8 0.2 0.8 0.2 0.8 0.2 0.8 0.2 0.8 0.2 0.8 0.2 0.8 0.2 0.8 0.2 0.8 0.2 0.8 0.2 0.8 0.2 0.8 0.2 0.8 0.2 0.4 0.6 0.8 0.2 0.8 0.2 0.8 0.2 0.8 0.2 0.8 0.2 0.4 0.6 0.4 0.6 0.8 0.2 0.8 0.2 0.4 0.6 0.4 0.6 0.4 0.6 0.4 0.6 0.4 0.6 0.4 0.6 0.4 0.6 0.4 0.6 0.4 0.6 0.4 0.6 0.4 0.6 0.4 0.6 0.4 0.6 0.4 0.6 0.4 0.6 0.4 0.6 0.4 0.6 0.3 0.7 0.4 0.6 0.4 0.6 0.4 0.6 0.4 0.6 0.3 0.7 0.4 0.6 0.4 0.6 0.4 0.6 0.4 0.6 0.3 0.7 0.4 0.6 0.4 0.6 0.4 0.6 0.4 0.6 0.4 0.6 0.4 0.6 0.4 0.6 0.4 0.6 0.4 0.6 0.4 0.6 0.4 0.6 0.4 0.6 0.5 0.5 0.3 0.7 0.3 0.7 0.5 0.5 0.3 0.7 0.8 0.2 0.5 0.5 0.8 0.2 0.8 0.2 0.2 0.8 0.3 0.7 0.2 0.8 0.3 0.7 0.2 0.8 0.2 0.8 1 0.8 0.2 1 0.8 0.2 1 1 0.1 0.9 0.2 0.8 0.5 0.5 0.3 0.7 0.3 0.7 0.5 0.5 1 1 1 1 0.1 0.9 0.5 0.5 0.5 0.5 0.8 0.2 0.8 0.2 0.3 0.7 0.2 0.8 0.3 0.7 0.2 0.8 0.5 0.5 0.3 0.7 0.5 0.5 0.2 0.8 0.1 0.9 0.7 0.3 0.7 0.3 0.3 0.7 0.5 0.5 1 0.9 0.1 0.9 0.1 0.7 0.3 0.5 0.5 1 1 0.9 0.1 0.7 0.3 1 0.9 0.1 1 0.9 0.1 1 1 0.9 0.1 0.9 0.1 0.7 0.3 0.7 0.3 1 0.7 0.3 0.7 0.3 0.5 0.5 0.5 0.5 0.9 0.1 1 0.5 0.5 0.5 0.5 0.3 0.7 0.3 0.7 0.3 0.7 0.3 0.7 0.2 0.8 0.2 0.8 0.2 0.8 0.1 0.9 1 0.2 0.8 0.3 0.7 0.3 0.7 0.2 0.8 0.1 0.9 0.1 0.9 0.5 0.5 0.5 0.5 1 1 0.7 0.3 0.8 0.2 0.9 0.1 1 1 0.2 0.8 0.1 0.9 0.1 0.9 0.2 0.8 0.3 0.7 0.3 0.7 1 1 0.5 0.5 0.5 0.5 0.7 0.3 0.8 0.2 0.9 0.1 1 1 1 1 1 1 1 1 1 1 1 1 1 1 1 1 1 1</float_array>
          <technique_common>
            <accessor source="#Armature_Skl_Root__EnShieldA-skin-weights-array" count="566" stride="1">
              <param name="WEIGHT" type="float"/>
            </accessor>
          </technique_common>
        </source>
        <joints>
          <input semantic="JOINT" source="#Armature_Skl_Root__EnShieldA-skin-joints"/>
          <input semantic="INV_BIND_MATRIX" source="#Armature_Skl_Root__EnShieldA-skin-bind_poses"/>
        </joints>
        <vertex_weights count="304">
          <input semantic="JOINT" source="#Armature_Skl_Root__EnShieldA-skin-joints" offset="0"/>
          <input semantic="WEIGHT" source="#Armature_Skl_Root__EnShieldA-skin-weights" offset="1"/>
          <vcount>2 2 2 2 2 2 2 2 2 2 2 2 2 2 2 2 2 2 2 2 2 2 2 2 2 2 2 2 2 2 2 2 2 2 2 2 2 2 2 2 2 2 2 2 2 2 2 2 2 2 2 2 2 2 2 2 2 2 2 2 2 2 2 2 2 2 2 2 2 2 2 2 2 2 2 2 2 2 2 2 2 2 2 2 2 2 2 2 2 2 2 2 2 2 2 2 2 2 2 2 2 2 2 2 2 2 2 2 2 2 2 2 2 2 2 2 2 2 2 2 2 2 2 2 2 2 2 2 2 2 2 2 2 2 2 2 2 2 2 2 2 2 2 2 2 2 2 2 2 2 2 2 2 2 2 2 2 2 2 2 2 2 2 2 2 2 2 2 2 2 2 2 2 2 2 2 2 2 2 2 2 2 2 2 2 2 2 1 2 1 2 1 1 2 2 2 2 2 2 1 1 1 1 2 2 2 2 2 2 2 2 2 2 2 2 2 2 2 2 2 2 1 2 2 2 2 1 1 2 2 1 2 1 2 1 1 2 2 2 2 1 2 2 2 2 2 1 2 2 2 2 2 2 2 2 2 2 1 2 2 2 2 2 2 2 2 1 1 2 2 2 1 1 2 2 2 2 2 2 1 1 2 2 2 2 2 1 1 1 1 1 1 1 1 1 1 1 1 1 1 1 1 1 1 </vcount>
          <v>0 0 1 1 0 2 1 3 0 4 1 5 0 6 1 7 0 8 1 9 0 10 1 11 0 12 1 13 0 14 1 15 0 16 1 17 0 18 1 19 0 20 1 21 0 22 1 23 0 24 1 25 0 26 1 27 0 28 1 29 0 30 1 31 0 32 1 33 0 34 1 35 0 36 1 37 0 38 1 39 0 40 1 41 0 42 1 43 0 44 1 45 0 46 1 47 0 48 1 49 0 50 1 51 0 52 1 53 0 54 1 55 0 56 1 57 0 58 1 59 0 60 1 61 0 62 1 63 0 64 1 65 0 66 1 67 0 68 1 69 0 70 1 71 0 72 1 73 0 74 1 75 0 76 1 77 0 78 1 79 0 80 1 81 0 82 1 83 0 84 1 85 0 86 1 87 0 88 1 89 0 90 1 91 0 92 1 93 0 94 1 95 0 96 1 97 0 98 1 99 0 100 1 101 0 102 1 103 0 104 1 105 0 106 1 107 0 108 1 109 0 110 1 111 0 112 1 113 0 114 1 115 0 116 1 117 0 118 1 119 0 120 1 121 0 122 1 123 0 124 1 125 0 126 1 127 0 128 1 129 0 130 1 131 0 132 1 133 0 134 1 135 0 136 1 137 0 138 1 139 0 140 1 141 0 142 1 143 0 144 1 145 0 146 1 147 0 148 1 149 0 150 1 151 0 152 1 153 0 154 1 155 0 156 1 157 0 158 1 159 0 160 1 161 0 162 1 163 0 164 1 165 0 166 1 167 0 168 1 169 0 170 1 171 0 172 1 173 0 174 1 175 0 176 1 177 0 178 1 179 0 180 1 181 0 182 1 183 0 184 1 185 0 186 1 187 0 188 1 189 0 190 1 191 0 192 1 193 0 194 1 195 0 196 1 197 0 198 1 199 0 200 1 201 0 202 1 203 0 204 1 205 0 206 1 207 0 208 1 209 0 210 1 211 0 212 1 213 0 214 1 215 0 216 1 217 0 218 1 219 0 220 1 221 0 222 1 223 0 224 1 225 0 226 1 227 0 228 1 229 0 230 1 231 0 232 1 233 0 234 1 235 0 236 1 237 0 238 1 239 0 240 1 241 0 242 1 243 0 244 1 245 0 246 1 247 0 248 1 249 0 250 1 251 0 252 1 253 0 254 1 255 0 256 1 257 0 258 1 259 0 260 1 261 0 262 1 263 0 264 1 265 0 266 1 267 0 268 1 269 0 270 1 271 0 272 1 273 0 274 1 275 0 276 1 277 0 278 1 279 0 280 1 281 0 282 1 283 0 284 1 285 0 286 1 287 0 288 1 289 0 290 1 291 0 292 1 293 0 294 1 295 0 296 1 297 0 298 1 299 0 300 1 301 0 302 1 303 0 304 1 305 0 306 1 307 0 308 1 309 0 310 1 311 0 312 1 313 0 314 1 315 0 316 1 317 0 318 1 319 0 320 1 321 0 322 1 323 0 324 1 325 0 326 1 327 0 328 1 329 0 330 1 331 0 332 1 333 0 334 1 335 0 336 1 337 0 338 1 339 0 340 1 341 0 342 1 343 0 344 1 345 0 346 1 347 0 348 1 349 0 350 1 351 0 352 1 353 0 354 1 355 0 356 1 357 0 358 1 359 0 360 1 361 0 362 1 363 0 364 1 365 0 366 1 367 0 368 1 369 0 370 1 371 0 372 1 373 0 374 0 375 1 376 0 377 0 378 1 379 0 380 0 381 0 382 1 383 0 384 1 385 0 386 1 387 0 388 1 389 0 390 1 391 0 392 1 393 0 394 0 395 0 396 1 397 0 398 1 399 0 400 1 401 0 402 1 403 0 404 1 405 0 406 1 407 0 408 1 409 0 410 1 411 0 412 1 413 0 414 1 415 0 416 1 417 0 418 1 419 0 420 1 421 0 422 1 423 0 424 1 425 0 426 1 427 0 428 1 429 0 430 1 431 0 432 1 433 1 434 0 435 1 436 0 437 1 438 0 439 1 440 0 441 1 442 0 443 0 444 0 445 1 446 0 447 1 448 0 449 0 450 1 451 0 452 0 453 1 454 0 455 0 456 0 457 1 458 0 459 1 460 0 461 1 462 0 463 1 464 0 465 0 466 1 467 0 468 1 469 0 470 1 471 0 472 1 473 0 474 1 475 0 476 0 477 1 478 0 479 1 480 0 481 1 482 0 483 1 484 0 485 1 486 0 487 1 488 0 489 1 490 0 491 1 492 0 493 1 494 0 495 1 496 1 497 0 498 1 499 0 500 1 501 0 502 1 503 0 504 1 505 0 506 1 507 0 508 1 509 0 510 1 511 0 512 1 513 1 514 1 515 0 516 1 517 0 518 1 519 0 520 1 521 0 522 0 523 0 524 1 525 0 526 1 527 0 528 1 529 0 530 1 531 0 532 1 533 0 534 1 535 1 536 1 537 0 538 1 539 0 540 1 541 0 542 1 543 0 544 1 545 0 546 1 547 0 548 0 549 0 550 0 551 0 552 0 553 0 554 0 555 0 556 0 557 0 558 0 559 0 560 0 561 0 562 0 563 0 564 0 565</v>
        </vertex_weights>
      </skin>
    </controller>
  </library_controllers>
  <library_visual_scenes>
    <visual_scene id="Scene" name="Scene">
      <node id="Armature" name="Armature" type="NODE">
        <matrix sid="transform">1 0 0 0 0 -1.62921e-7 -1 0 0 1 -1.62921e-7 0 0 0 0 1</matrix>
        <node id="Armature_Skl_Root" name="Skl_Root" sid="Skl_Root" type="JOINT">
          <matrix sid="transform">1 0 0 0 0 1 0 0 0 0 1 0 0 0 0 1</matrix>
          <node id="Armature_Shadow" name="Shadow" sid="Shadow" type="JOINT">
            <matrix sid="transform">1 0 0 0 0 1 0 0 0 0 1 0 0 0 0 1</matrix>
            <extra>
              <technique profile="blender">
                <layer sid="layer" type="string">0</layer>
                <tip_x sid="tip_x" type="float">0</tip_x>
                <tip_y sid="tip_y" type="float">1.383018</tip_y>
                <tip_z sid="tip_z" type="float">0</tip_z>
              </technique>
            </extra>
          </node>
          <node id="Armature_Spine" name="Spine" sid="Spine" type="JOINT">
            <matrix sid="transform">-7.19627e-6 0 -1 0 0 0.9999999 0 5 1 0 -7.19627e-6 -6.75085e-14 0 0 0 1</matrix>
            <node id="Armature_MiiMask" name="MiiMask" sid="MiiMask" type="JOINT">
              <matrix sid="transform">1 0 3.69549e-6 1.2991 0 1 0 0.4744239 -3.69549e-6 0 1 -2.93906e-6 0 0 0 1</matrix>
              <extra>
                <technique profile="blender">
                  <layer sid="layer" type="string">0</layer>
                  <roll sid="roll" type="float">-1.5708</roll>
                  <tip_x sid="tip_x" type="float">0</tip_x>
                  <tip_y sid="tip_y" type="float">1.383018</tip_y>
                  <tip_z sid="tip_z" type="float">0</tip_z>
                </technique>
              </extra>
            </node>
            <extra>
              <technique profile="blender">
                <layer sid="layer" type="string">0</layer>
                <roll sid="roll" type="float">-1.570803</roll>
                <tip_x sid="tip_x" type="float">0</tip_x>
                <tip_y sid="tip_y" type="float">1.383018</tip_y>
                <tip_z sid="tip_z" type="float">0</tip_z>
              </technique>
            </extra>
          </node>
          <node id="Armature_Waist" name="Waist" sid="Waist" type="JOINT">
            <matrix sid="transform">-7.19627e-6 0 1 0 0 0.9999999 0 5 -1 0 -7.19627e-6 -6.75085e-14 0 0 0 1</matrix>
            <extra>
              <technique profile="blender">
                <layer sid="layer" type="string">0</layer>
                <roll sid="roll" type="float">1.570803</roll>
                <tip_x sid="tip_x" type="float">0</tip_x>
                <tip_y sid="tip_y" type="float">1.383018</tip_y>
                <tip_z sid="tip_z" type="float">0</tip_z>
              </technique>
            </extra>
          </node>
          <extra>
            <technique profile="blender">
              <layer sid="layer" type="string">0</layer>
              <tip_x sid="tip_x" type="float">0</tip_x>
              <tip_y sid="tip_y" type="float">1.383018</tip_y>
              <tip_z sid="tip_z" type="float">0</tip_z>
            </technique>
          </extra>
        </node>
        <node id="Skl_Root__EnShieldA" name="Skl_Root__EnShieldA" type="NODE">
          <matrix sid="transform">1 0 0 0 0 1 0 0 0 0 1 0 0 0 0 1</matrix>
          <instance_controller url="#Armature_Skl_Root__EnShieldA-skin">
            <skeleton>#Armature_Skl_Root</skeleton>
            <bind_material>
              <technique_common>
                <instance_material symbol="EnShieldA-material" target="#EnShieldA-material">
                  <bind_vertex_input semantic="Skl_Root__EnShieldA-texcoord" input_semantic="TEXCOORD" input_set="0"/>
                </instance_material>
              </technique_common>
            </bind_material>
          </instance_controller>
        </node>
        <node id="Skl_Root__EnFace00" name="Skl_Root__EnFace00" type="NODE">
          <matrix sid="transform">1 0 0 0 0 1 0 0 0 0 1 0 0 0 0 1</matrix>
          <instance_controller url="#Armature_Skl_Root__EnFace00-skin">
            <skeleton>#Armature_Skl_Root</skeleton>
            <bind_material>
              <technique_common>
                <instance_material symbol="EnFace00-material" target="#EnFace00-material">
                  <bind_vertex_input semantic="Skl_Root__EnFace00-texcoord" input_semantic="TEXCOORD" input_set="0"/>
                </instance_material>
              </technique_common>
            </bind_material>
          </instance_controller>
        </node>
        <node id="Shadow__EnShadow" name="Shadow__EnShadow" type="NODE">
          <matrix sid="transform">1 0 0 0 0 1 0 0 0 0 1 0 0 0 0 1</matrix>
          <instance_controller url="#Armature_Shadow__EnShadow-skin">
            <skeleton>#Armature_Skl_Root</skeleton>
            <bind_material>
              <technique_common>
                <instance_material symbol="EnShadow-material" target="#EnShadow-material">
                  <bind_vertex_input semantic="Shadow__EnShadow-texcoord" input_semantic="TEXCOORD" input_set="0"/>
                </instance_material>
              </technique_common>
            </bind_material>
          </instance_controller>
        </node>
      </node>
    </visual_scene>
  </library_visual_scenes>
  <scene>
    <instance_visual_scene url="#Scene"/>
  </scene>
</COLLADA>